<svg width="605" height="311" viewBox="0 0 605 311" fill="none" xmlns="http://www.w3.org/2000/svg">
<rect x="10" y="9" width="582" height="293" stroke="#1E1E1E" stroke-width="2"/>
<line x1="9" y1="54" x2="593" y2="54" stroke="#1E1E1E" stroke-width="2"/>
<line x1="9" y1="114" x2="593" y2="114" stroke="#1E1E1E" stroke-width="2"/>
<path d="M31.5176 28.018H28.7257V26.4824C28.7257 25.2261 27.7486 24.249 26.4922 24.249H24.2588C23.0024 24.249 22.0253 25.254 22.0253 26.4824V35.9468C22.0253 37.1752 23.0304 38.1802 24.2588 38.1802H26.4922C27.7207 38.1802 28.7257 37.1752 28.7257 35.9468V34.4113V33.2666H24.538V30.4748H31.5176V34.4113V35.9468C31.5176 38.7107 29.2841 41 26.4922 41H24.2588C21.4949 41 19.2335 38.7107 19.2335 35.9468V26.4824C19.2335 23.6906 21.4949 21.4571 24.2588 21.4571H26.4922C29.2841 21.4571 31.5176 23.6906 31.5176 26.4824V28.018ZM48.2577 24.249H38.7654V29.358H47.1409V32.1499H38.7654V38.2082H48.2577V41H35.9736V32.1499V24.249V21.4571H48.2577V24.249ZM62.2059 21.4571H64.9978V41H60.9496L55.5055 26.1474V41H52.7137V21.4571H56.7619L62.2059 36.3097V21.4571ZM81.7379 24.249H72.2457V29.358H80.6212V32.1499H72.2457V38.2082H81.7379V41H69.4538V32.1499V24.249V21.4571H81.7379V24.249ZM98.478 28.1575C98.478 30.4748 96.9425 32.4011 94.8207 32.9874L98.478 41H95.407L91.8614 33.1829H88.9858V41H86.1939V21.4571H88.9858H93.4527C96.2445 21.4571 98.478 23.6906 98.478 26.4824V28.1575ZM95.6862 28.1575V26.4824C95.6862 25.2261 94.709 24.249 93.4527 24.249H88.9858V30.391H93.4527C94.709 30.391 95.6862 29.4139 95.6862 28.1575ZM110.472 21.4571L115.218 34.5788V41H112.426V36.4772H105.726V41H102.934V34.5788L107.68 21.4571H110.472ZM109.048 25.8682L106.228 33.6854H111.924L109.104 25.8682H109.048ZM131.958 21.4571V24.249H127.212V41H124.42V24.249H119.674V21.4571H127.212H131.958ZM148.698 24.249H143.952V38.2082H148.698V41H141.16H136.414V38.2082H141.16V24.249H136.414V21.4571H143.952H148.698V24.249ZM162.647 21.4571H165.438V27.8784L160.692 41H157.901L153.154 27.8784V21.4571H155.946V27.3758L159.269 36.5889H159.324L162.647 27.3758V21.4571ZM182.179 24.249H172.686V29.358H181.062V32.1499H172.686V38.2082H182.179V41H169.895V32.1499V24.249V21.4571H182.179V24.249ZM215.659 21.4571V24.249H210.913V41H208.121V24.249H203.375V21.4571H210.913H215.659ZM227.374 41H225.14C222.376 41 220.115 38.7107 220.115 35.9468V26.4824C220.115 23.6906 222.376 21.4571 225.14 21.4571H227.374C230.165 21.4571 232.399 23.6906 232.399 26.4824V35.9468C232.399 38.7107 230.165 41 227.374 41ZM227.374 38.1802C228.602 38.1802 229.607 37.1752 229.607 35.9468V26.4824C229.607 25.2261 228.63 24.249 227.374 24.249H225.14C223.884 24.249 222.907 25.254 222.907 26.4824V35.9468C222.907 37.1752 223.912 38.1802 225.14 38.1802H227.374ZM244.114 41H241.88C239.116 41 236.855 38.7107 236.855 35.9468V26.4824C236.855 23.6906 239.116 21.4571 241.88 21.4571H244.114C246.906 21.4571 249.139 23.6906 249.139 26.4824V35.9468C249.139 38.7107 246.906 41 244.114 41ZM244.114 38.1802C245.342 38.1802 246.347 37.1752 246.347 35.9468V26.4824C246.347 25.2261 245.37 24.249 244.114 24.249H241.88C240.624 24.249 239.647 25.254 239.647 26.4824V35.9468C239.647 37.1752 240.652 38.1802 241.88 38.1802H244.114ZM256.387 38.2082H265.879V41H253.595V21.4571H256.387V38.2082Z" fill="#1E1E1E"/>
<path d="M31.3984 144.656V146.848H27.672V160H25.48V146.848H21.7536V144.656H27.672H31.3984ZM40.5962 148.821C42.7663 148.821 44.5418 150.574 44.5418 152.766V160H42.3498V152.766C42.3498 151.802 41.5607 151.013 40.5962 151.013H39.5879L37.089 152.701V160H34.897V144.437H37.089V150.048L38.9084 148.821H40.5962ZM53.8493 144.656V146.848H51.4381V144.656H53.8493ZM53.8493 157.808H57.6853V160H51.6573H48.0405V157.808H51.6573V151.013H48.0405V148.821H53.8493V157.808ZM61.1839 156.317H63.3759V156.756C63.3759 157.37 63.9458 157.808 64.8884 157.808H67.1023C68.1326 157.808 68.6367 157.457 68.6367 156.909C68.6367 154.432 61.3374 156.032 61.3374 151.78C61.3374 150.004 62.7622 148.821 64.8446 148.821H66.9489C68.9217 148.821 70.4561 150.246 70.4561 152.087V152.284H68.2641V152.087C68.2641 151.473 67.7161 151.013 66.9489 151.013H64.8446C63.9239 151.013 63.5294 151.32 63.5294 151.78C63.5294 153.556 70.8287 152.438 70.8287 156.909C70.8287 158.751 69.3162 160 67.1023 160H64.8884C62.7622 160 61.1839 158.619 61.1839 156.756V156.317ZM93.17 148.821C95.3401 148.821 97.1156 150.596 97.1156 152.766V156.054C97.1156 158.246 95.3401 160 93.17 160H91.4821L89.6628 158.772V164.603H87.4708V148.821H89.6628V150.048L91.4821 148.821H93.17ZM94.9236 156.054V152.766C94.9236 151.802 94.1345 151.013 93.17 151.013H92.1617L89.6628 152.701V156.12L92.1617 157.808H93.17C94.1345 157.808 94.9236 157.019 94.9236 156.054ZM106.313 148.821C108.484 148.821 110.259 150.574 110.259 152.766V153.643H108.067V152.766C108.067 151.802 107.278 151.013 106.313 151.013H106.094L102.806 153.227V160H100.614V148.821H102.806V150.574L105.415 148.821H106.313ZM119.457 160H117.703C115.511 160 113.758 158.268 113.758 156.076V152.766C113.758 150.574 115.511 148.821 117.703 148.821H119.457C121.649 148.821 123.402 150.574 123.402 152.766V156.076C123.402 158.268 121.649 160 119.457 160ZM119.457 157.808C120.443 157.808 121.21 157.063 121.21 156.076V152.766C121.21 151.78 120.443 151.013 119.457 151.013H117.703C116.717 151.013 115.95 151.78 115.95 152.766V156.076C115.95 157.063 116.717 157.786 117.703 157.808H119.457ZM134.135 144.656H136.546V146.848H134.135V144.656ZM129.641 148.821H136.546V160.636C136.546 162.806 134.77 164.603 132.6 164.603H130.847C128.655 164.603 126.901 162.806 126.901 160.636V160H129.093V160.636C129.093 161.6 129.882 162.389 130.847 162.389H132.6C133.565 162.389 134.354 161.6 134.354 160.636V151.013H129.641V148.821ZM149.689 152.547V152.986V154.673V154.915H142.237V156.032C142.237 156.997 143.026 157.786 143.99 157.786H145.744C146.708 157.786 147.497 156.997 147.497 156.032V155.813H149.689V156.032C149.689 158.203 147.936 160 145.744 160H143.99C141.82 160 140.045 158.203 140.045 156.032V152.766C140.045 150.574 141.82 148.821 143.99 148.821H145.744C147.87 148.821 149.58 150.465 149.689 152.547ZM147.497 153.161V152.766C147.497 151.78 146.73 151.013 145.744 151.013H143.99C143.004 151.013 142.237 151.802 142.237 152.766V153.161H147.497ZM160.641 152.766C160.641 151.78 159.874 151.013 158.887 151.013H157.134C156.147 151.013 155.38 151.802 155.38 152.766V156.032C155.38 156.997 156.169 157.786 157.134 157.786H158.887C159.852 157.786 160.641 156.997 160.641 156.032V155.813H162.833V156.032C162.833 158.203 161.079 160 158.887 160H157.134C154.963 160 153.188 158.203 153.188 156.032V152.766C153.188 150.574 154.963 148.821 157.134 148.821H158.887C161.079 148.821 162.833 150.574 162.833 152.766V152.986H160.641V152.766ZM175.976 151.013H171.921V156.054C171.921 157.041 172.688 157.808 173.675 157.808H175.976V160H173.675C171.483 160 169.729 158.246 169.729 156.054V151.013H166.331V148.821H169.729V145.971H171.921V148.821H175.976V151.013ZM200.071 148.821H202.263V160H200.071V158.772L198.252 160H196.564C194.394 160 192.618 158.224 192.618 156.054V152.766C192.618 150.574 194.394 148.821 196.564 148.821H198.252L200.071 150.048V148.821ZM197.572 157.808L200.071 156.12V152.701L197.572 151.013H196.564C195.599 151.013 194.81 151.802 194.81 152.766V156.054C194.81 157.019 195.599 157.808 196.564 157.808H197.572ZM211.571 144.656V146.848H209.159V144.656H211.571ZM211.571 157.808H215.407V160H209.379H205.762V157.808H209.379V151.013H205.762V148.821H211.571V157.808ZM226.314 148.821C228.046 148.821 228.988 149.917 228.988 152.328V160H226.796V152.328C226.796 151.912 226.796 151.561 226.753 151.32L224.824 153.161V160H222.632V152.328C222.632 151.912 222.632 151.561 222.588 151.32L220.659 153.161V160H218.467V148.821H220.659V150.092L221.974 148.821H222.149C223.311 148.821 224.122 149.325 224.539 150.377L226.139 148.821H226.314ZM222.04 150.662H221.908H222.04ZM226.205 150.662H226.073H226.205ZM232.049 156.317H234.241V156.756C234.241 157.37 234.811 157.808 235.753 157.808H237.967C238.997 157.808 239.501 157.457 239.501 156.909C239.501 154.432 232.202 156.032 232.202 151.78C232.202 150.004 233.627 148.821 235.709 148.821H237.814C239.786 148.821 241.321 150.246 241.321 152.087V152.284H239.129V152.087C239.129 151.473 238.581 151.013 237.814 151.013H235.709C234.789 151.013 234.394 151.32 234.394 151.78C234.394 153.556 241.693 152.438 241.693 156.909C241.693 158.751 240.181 160 237.967 160H235.753C233.627 160 232.049 158.619 232.049 156.756V156.317ZM267.98 151.013H263.925V156.054C263.925 157.041 264.692 157.808 265.679 157.808H267.98V160H265.679C263.487 160 261.733 158.246 261.733 156.054V151.013H258.335V148.821H261.733V145.971H263.925V148.821H267.98V151.013ZM277.178 160H275.425C273.233 160 271.479 158.268 271.479 156.076V152.766C271.479 150.574 273.233 148.821 275.425 148.821H277.178C279.37 148.821 281.124 150.574 281.124 152.766V156.076C281.124 158.268 279.37 160 277.178 160ZM277.178 157.808C278.165 157.808 278.932 157.063 278.932 156.076V152.766C278.932 151.78 278.165 151.013 277.178 151.013H275.425C274.438 151.013 273.671 151.78 273.671 152.766V156.076C273.671 157.063 274.438 157.786 275.425 157.808H277.178ZM305.219 152.766C305.219 151.78 304.451 151.013 303.465 151.013H301.711C300.725 151.013 299.958 151.802 299.958 152.766V156.032C299.958 156.997 300.747 157.786 301.711 157.786H303.465C304.429 157.786 305.219 156.997 305.219 156.032V155.813H307.411V156.032C307.411 158.203 305.657 160 303.465 160H301.711C299.541 160 297.766 158.203 297.766 156.032V152.766C297.766 150.574 299.541 148.821 301.711 148.821H303.465C305.657 148.821 307.411 150.574 307.411 152.766V152.986H305.219V152.766ZM316.608 148.821C318.778 148.821 320.554 150.574 320.554 152.766V153.643H318.362V152.766C318.362 151.802 317.573 151.013 316.608 151.013H316.389L313.101 153.227V160H310.909V148.821H313.101V150.574L315.71 148.821H316.608ZM333.697 152.547V152.986V154.673V154.915H326.245V156.032C326.245 156.997 327.034 157.786 327.998 157.786H329.752C330.716 157.786 331.505 156.997 331.505 156.032V155.813H333.697V156.032C333.697 158.203 331.944 160 329.752 160H327.998C325.828 160 324.053 158.203 324.053 156.032V152.766C324.053 150.574 325.828 148.821 327.998 148.821H329.752C331.878 148.821 333.588 150.465 333.697 152.547ZM331.505 153.161V152.766C331.505 151.78 330.738 151.013 329.752 151.013H327.998C327.012 151.013 326.245 151.802 326.245 152.766V153.161H331.505ZM344.649 148.821H346.841V160H344.649V158.772L342.83 160H341.142C338.972 160 337.196 158.224 337.196 156.054V152.766C337.196 150.574 338.972 148.821 341.142 148.821H342.83L344.649 150.048V148.821ZM342.15 157.808L344.649 156.12V152.701L342.15 151.013H341.142C340.177 151.013 339.388 151.802 339.388 152.766V156.054C339.388 157.019 340.177 157.808 341.142 157.808H342.15ZM359.984 151.013H355.929V156.054C355.929 157.041 356.696 157.808 357.683 157.808H359.984V160H357.683C355.491 160 353.737 158.246 353.737 156.054V151.013H350.34V148.821H353.737V145.971H355.929V148.821H359.984V151.013ZM373.128 152.547V152.986V154.673V154.915H365.675V156.032C365.675 156.997 366.464 157.786 367.429 157.786H369.182C370.147 157.786 370.936 156.997 370.936 156.032V155.813H373.128V156.032C373.128 158.203 371.374 160 369.182 160H367.429C365.258 160 363.483 158.203 363.483 156.032V152.766C363.483 150.574 365.258 148.821 367.429 148.821H369.182C371.308 148.821 373.018 150.465 373.128 152.547ZM370.936 153.161V152.766C370.936 151.78 370.169 151.013 369.182 151.013H367.429C366.442 151.013 365.675 151.802 365.675 152.766V153.161H370.936ZM397.223 148.821H399.415V160.636C399.415 162.806 397.661 164.603 395.469 164.603H393.715C391.545 164.603 389.77 162.806 389.77 160.636H391.962C391.962 161.6 392.751 162.389 393.715 162.389H395.469C396.434 162.389 397.223 161.6 397.223 160.636V158.772L395.403 160H393.715C391.545 160 389.77 158.224 389.77 156.054V152.766C389.77 150.574 391.545 148.821 393.715 148.821H395.403L397.223 150.048V148.821ZM394.724 157.808L397.223 156.12V152.701L394.724 151.013H393.715C392.751 151.013 391.962 151.802 391.962 152.766V156.054C391.962 157.019 392.751 157.808 393.715 157.808H394.724ZM408.612 148.821C410.783 148.821 412.558 150.574 412.558 152.766V153.643H410.366V152.766C410.366 151.802 409.577 151.013 408.612 151.013H408.393L405.105 153.227V160H402.913V148.821H405.105V150.574L407.714 148.821H408.612ZM423.51 148.821H425.702V160H423.51V158.772L421.69 160H420.002C417.832 160 416.057 158.224 416.057 156.054V152.766C416.057 150.574 417.832 148.821 420.002 148.821H421.69L423.51 150.048V148.821ZM421.011 157.808L423.51 156.12V152.701L421.011 151.013H420.002C419.038 151.013 418.249 151.802 418.249 152.766V156.054C418.249 157.019 419.038 157.808 420.002 157.808H421.011ZM434.899 148.821C437.069 148.821 438.845 150.596 438.845 152.766V156.054C438.845 158.246 437.069 160 434.899 160H433.212L431.392 158.772V164.603H429.2V148.821H431.392V150.048L433.212 148.821H434.899ZM436.653 156.054V152.766C436.653 151.802 435.864 151.013 434.899 151.013H433.891L431.392 152.701V156.12L433.891 157.808H434.899C435.864 157.808 436.653 157.019 436.653 156.054ZM448.043 148.821C450.213 148.821 451.988 150.574 451.988 152.766V160H449.796V152.766C449.796 151.802 449.007 151.013 448.043 151.013H447.034L444.536 152.701V160H442.344V144.437H444.536V150.048L446.355 148.821H448.043ZM461.296 144.656V146.848H458.885V144.656H461.296ZM461.296 157.808H465.132V160H459.104H455.487V157.808H459.104V151.013H455.487V148.821H461.296V157.808ZM476.083 152.766C476.083 151.78 475.316 151.013 474.33 151.013H472.576C471.59 151.013 470.822 151.802 470.822 152.766V156.032C470.822 156.997 471.612 157.786 472.576 157.786H474.33C475.294 157.786 476.083 156.997 476.083 156.032V155.813H478.275V156.032C478.275 158.203 476.522 160 474.33 160H472.576C470.406 160 468.63 158.203 468.63 156.032V152.766C468.63 150.574 470.406 148.821 472.576 148.821H474.33C476.522 148.821 478.275 150.574 478.275 152.766V152.986H476.083V152.766ZM481.774 156.317H483.966V156.756C483.966 157.37 484.536 157.808 485.478 157.808H487.692C488.723 157.808 489.227 157.457 489.227 156.909C489.227 154.432 481.927 156.032 481.927 151.78C481.927 150.004 483.352 148.821 485.435 148.821H487.539C489.512 148.821 491.046 150.246 491.046 152.087V152.284H488.854V152.087C488.854 151.473 488.306 151.013 487.539 151.013H485.435C484.514 151.013 484.119 151.32 484.119 151.78C484.119 153.556 491.419 152.438 491.419 156.909C491.419 158.751 489.906 160 487.692 160H485.478C483.352 160 481.774 158.619 481.774 156.756V156.317ZM515.623 146.629C514.637 146.629 513.87 147.396 513.87 148.382V149.478H517.706V151.67H513.87V160H511.678V151.67H508.061V149.478H511.678V148.382C511.678 146.19 513.431 144.437 515.623 144.437H517.706V146.629H515.623ZM526.903 160H525.15C522.958 160 521.204 158.268 521.204 156.076V152.766C521.204 150.574 522.958 148.821 525.15 148.821H526.903C529.095 148.821 530.849 150.574 530.849 152.766V156.076C530.849 158.268 529.095 160 526.903 160ZM526.903 157.808C527.89 157.808 528.657 157.063 528.657 156.076V152.766C528.657 151.78 527.89 151.013 526.903 151.013H525.15C524.163 151.013 523.396 151.78 523.396 152.766V156.076C523.396 157.063 524.163 157.786 525.15 157.808H526.903ZM540.047 148.821C542.217 148.821 543.992 150.574 543.992 152.766V153.643H541.8V152.766C541.8 151.802 541.011 151.013 540.047 151.013H539.828L536.54 153.227V160H534.348V148.821H536.54V150.574L539.148 148.821H540.047ZM31.3984 177.013H27.3432V182.054C27.3432 183.041 28.1104 183.808 29.0968 183.808H31.3984V186H29.0968C26.9048 186 25.1512 184.246 25.1512 182.054V177.013H21.7536V174.821H25.1512V171.971H27.3432V174.821H31.3984V177.013ZM40.5962 174.821C42.7663 174.821 44.5418 176.574 44.5418 178.766V186H42.3498V178.766C42.3498 177.802 41.5607 177.013 40.5962 177.013H39.5879L37.089 178.701V186H34.897V170.437H37.089V176.048L38.9084 174.821H40.5962ZM57.6853 178.547V178.986V180.673V180.915H50.2325V182.032C50.2325 182.997 51.0216 183.786 51.9861 183.786H53.7397C54.7042 183.786 55.4933 182.997 55.4933 182.032V181.813H57.6853V182.032C57.6853 184.203 55.9317 186 53.7397 186H51.9861C49.816 186 48.0405 184.203 48.0405 182.032V178.766C48.0405 176.574 49.816 174.821 51.9861 174.821H53.7397C55.8659 174.821 57.5757 176.465 57.6853 178.547ZM55.4933 179.161V178.766C55.4933 177.78 54.7261 177.013 53.7397 177.013H51.9861C50.9997 177.013 50.2325 177.802 50.2325 178.766V179.161H55.4933ZM83.9722 177.013H79.9169V182.054C79.9169 183.041 80.6841 183.808 81.6706 183.808H83.9722V186H81.6706C79.4786 186 77.7249 184.246 77.7249 182.054V177.013H74.3273V174.821H77.7249V171.971H79.9169V174.821H83.9722V177.013ZM97.1156 178.547V178.986V180.673V180.915H89.6628V182.032C89.6628 182.997 90.4519 183.786 91.4164 183.786H93.17C94.1345 183.786 94.9236 182.997 94.9236 182.032V181.813H97.1156V182.032C97.1156 184.203 95.362 186 93.17 186H91.4164C89.2463 186 87.4708 184.203 87.4708 182.032V178.766C87.4708 176.574 89.2463 174.821 91.4164 174.821H93.17C95.2962 174.821 97.006 176.465 97.1156 178.547ZM94.9236 179.161V178.766C94.9236 177.78 94.1564 177.013 93.17 177.013H91.4164C90.43 177.013 89.6628 177.802 89.6628 178.766V179.161H94.9236ZM108.067 178.766C108.067 177.78 107.3 177.013 106.313 177.013H104.56C103.573 177.013 102.806 177.802 102.806 178.766V182.032C102.806 182.997 103.595 183.786 104.56 183.786H106.313C107.278 183.786 108.067 182.997 108.067 182.032V181.813H110.259V182.032C110.259 184.203 108.505 186 106.313 186H104.56C102.39 186 100.614 184.203 100.614 182.032V178.766C100.614 176.574 102.39 174.821 104.56 174.821H106.313C108.505 174.821 110.259 176.574 110.259 178.766V178.986H108.067V178.766ZM119.457 174.821C121.627 174.821 123.402 176.574 123.402 178.766V186H121.21V178.766C121.21 177.802 120.421 177.013 119.457 177.013H118.449L115.95 178.701V186H113.758V170.437H115.95V176.048L117.769 174.821H119.457ZM132.6 174.821C134.77 174.821 136.546 176.574 136.546 178.766V186H134.354V178.766C134.354 177.802 133.565 177.013 132.6 177.013H131.592L129.093 178.701V186H126.901V174.821H129.093V176.048L130.912 174.821H132.6ZM145.744 186H143.99C141.798 186 140.045 184.268 140.045 182.076V178.766C140.045 176.574 141.798 174.821 143.99 174.821H145.744C147.936 174.821 149.689 176.574 149.689 178.766V182.076C149.689 184.268 147.936 186 145.744 186ZM145.744 183.808C146.73 183.808 147.497 183.063 147.497 182.076V178.766C147.497 177.78 146.73 177.013 145.744 177.013H143.99C143.004 177.013 142.237 177.78 142.237 178.766V182.076C142.237 183.063 143.004 183.786 143.99 183.808H145.744ZM155.38 186H153.188V182.493L160.641 173.374V170.656H162.833V174.163L155.38 183.282V186ZM175.976 178.547V178.986V180.673V180.915H168.523V182.032C168.523 182.997 169.313 183.786 170.277 183.786H172.031C172.995 183.786 173.784 182.997 173.784 182.032V181.813H175.976V182.032C175.976 184.203 174.223 186 172.031 186H170.277C168.107 186 166.331 184.203 166.331 182.032V178.766C166.331 176.574 168.107 174.821 170.277 174.821H172.031C174.157 174.821 175.867 176.465 175.976 178.547ZM173.784 179.161V178.766C173.784 177.78 173.017 177.013 172.031 177.013H170.277C169.291 177.013 168.523 177.802 168.523 178.766V179.161H173.784ZM185.284 183.808H189.12V186H183.092H179.475V183.808H183.092V172.629H179.475V170.437H185.284V183.808ZM202.263 178.547V178.986V180.673V180.915H194.81V182.032C194.81 182.997 195.599 183.786 196.564 183.786H198.317C199.282 183.786 200.071 182.997 200.071 182.032V181.813H202.263V182.032C202.263 184.203 200.509 186 198.317 186H196.564C194.394 186 192.618 184.203 192.618 182.032V178.766C192.618 176.574 194.394 174.821 196.564 174.821H198.317C200.444 174.821 202.153 176.465 202.263 178.547ZM200.071 179.161V178.766C200.071 177.78 199.304 177.013 198.317 177.013H196.564C195.577 177.013 194.81 177.802 194.81 178.766V179.161H200.071ZM213.215 178.766C213.215 177.78 212.447 177.013 211.461 177.013H209.707C208.721 177.013 207.954 177.802 207.954 178.766V182.032C207.954 182.997 208.743 183.786 209.707 183.786H211.461C212.425 183.786 213.215 182.997 213.215 182.032V181.813H215.407V182.032C215.407 184.203 213.653 186 211.461 186H209.707C207.537 186 205.762 184.203 205.762 182.032V178.766C205.762 176.574 207.537 174.821 209.707 174.821H211.461C213.653 174.821 215.407 176.574 215.407 178.766V178.986H213.215V178.766ZM228.55 177.013H224.495V182.054C224.495 183.041 225.262 183.808 226.248 183.808H228.55V186H226.248C224.056 186 222.303 184.246 222.303 182.054V177.013H218.905V174.821H222.303V171.971H224.495V174.821H228.55V177.013ZM237.748 174.821C239.918 174.821 241.693 176.574 241.693 178.766V179.643H239.501V178.766C239.501 177.802 238.712 177.013 237.748 177.013H237.529L234.241 179.227V186H232.049V174.821H234.241V176.574L236.849 174.821H237.748ZM250.891 186H249.138C246.946 186 245.192 184.268 245.192 182.076V178.766C245.192 176.574 246.946 174.821 249.138 174.821H250.891C253.083 174.821 254.837 176.574 254.837 178.766V182.076C254.837 184.268 253.083 186 250.891 186ZM250.891 183.808C251.878 183.808 252.645 183.063 252.645 182.076V178.766C252.645 177.78 251.878 177.013 250.891 177.013H249.138C248.151 177.013 247.384 177.78 247.384 178.766V182.076C247.384 183.063 248.151 183.786 249.138 183.808H250.891ZM278.932 174.821H281.124V186.636C281.124 188.806 279.37 190.603 277.178 190.603H275.425C273.254 190.603 271.479 188.806 271.479 186.636H273.671C273.671 187.6 274.46 188.389 275.425 188.389H277.178C278.143 188.389 278.932 187.6 278.932 186.636V184.772L277.112 186H275.425C273.254 186 271.479 184.224 271.479 182.054V178.766C271.479 176.574 273.254 174.821 275.425 174.821H277.112L278.932 176.048V174.821ZM276.433 183.808L278.932 182.12V178.701L276.433 177.013H275.425C274.46 177.013 273.671 177.802 273.671 178.766V182.054C273.671 183.019 274.46 183.808 275.425 183.808H276.433ZM290.322 174.821C292.492 174.821 294.267 176.574 294.267 178.766V179.643H292.075V178.766C292.075 177.802 291.286 177.013 290.322 177.013H290.102L286.814 179.227V186H284.622V174.821H286.814V176.574L289.423 174.821H290.322ZM303.465 186H301.711C299.519 186 297.766 184.268 297.766 182.076V178.766C297.766 176.574 299.519 174.821 301.711 174.821H303.465C305.657 174.821 307.411 176.574 307.411 178.766V182.076C307.411 184.268 305.657 186 303.465 186ZM303.465 183.808C304.451 183.808 305.219 183.063 305.219 182.076V178.766C305.219 177.78 304.451 177.013 303.465 177.013H301.711C300.725 177.013 299.958 177.78 299.958 178.766V182.076C299.958 183.063 300.725 183.786 301.711 183.808H303.465ZM318.362 174.821H320.554V186H318.362V184.772L316.543 186H314.855C312.685 186 310.909 184.246 310.909 182.054V174.821H313.101V182.054C313.101 183.019 313.89 183.808 314.855 183.808H315.863L318.362 182.12V174.821ZM329.752 174.821C331.922 174.821 333.697 176.596 333.697 178.766V182.054C333.697 184.246 331.922 186 329.752 186H328.064L326.245 184.772V190.603H324.053V174.821H326.245V176.048L328.064 174.821H329.752ZM331.505 182.054V178.766C331.505 177.802 330.716 177.013 329.752 177.013H328.744L326.245 178.701V182.12L328.744 183.808H329.752C330.716 183.808 331.505 183.019 331.505 182.054ZM359.984 170.656V172.848H356.258V186H354.066V172.848H350.34V170.656H356.258H359.984ZM369.182 186H367.429C365.237 186 363.483 184.268 363.483 182.076V178.766C363.483 176.574 365.237 174.821 367.429 174.821H369.182C371.374 174.821 373.128 176.574 373.128 178.766V182.076C373.128 184.268 371.374 186 369.182 186ZM369.182 183.808C370.169 183.808 370.936 183.063 370.936 182.076V178.766C370.936 177.78 370.169 177.013 369.182 177.013H367.429C366.442 177.013 365.675 177.78 365.675 178.766V182.076C365.675 183.063 366.442 183.786 367.429 183.808H369.182ZM384.079 174.821H386.271V186H384.079V184.772L382.26 186H380.572C378.402 186 376.626 184.246 376.626 182.054V174.821H378.818V182.054C378.818 183.019 379.608 183.808 380.572 183.808H381.58L384.079 182.12V174.821ZM397.003 170.656H399.415V172.848H397.003V170.656ZM392.51 174.821H399.415V186.636C399.415 188.806 397.639 190.603 395.469 190.603H393.715C391.523 190.603 389.77 188.806 389.77 186.636V186H391.962V186.636C391.962 187.6 392.751 188.389 393.715 188.389H395.469C396.434 188.389 397.223 187.6 397.223 186.636V177.013H392.51V174.821ZM408.612 186H406.859C404.667 186 402.913 184.268 402.913 182.076V178.766C402.913 176.574 404.667 174.821 406.859 174.821H408.612C410.804 174.821 412.558 176.574 412.558 178.766V182.076C412.558 184.268 410.804 186 408.612 186ZM408.612 183.808C409.599 183.808 410.366 183.063 410.366 182.076V178.766C410.366 177.78 409.599 177.013 408.612 177.013H406.859C405.872 177.013 405.105 177.78 405.105 178.766V182.076C405.105 183.063 405.872 183.786 406.859 183.808H408.612ZM423.51 174.821H425.702V186H423.51V184.772L421.69 186H420.002C417.832 186 416.057 184.246 416.057 182.054V174.821H418.249V182.054C418.249 183.019 419.038 183.808 420.002 183.808H421.011L423.51 182.12V174.821ZM434.899 174.821C437.069 174.821 438.845 176.574 438.845 178.766V179.643H436.653V178.766C436.653 177.802 435.864 177.013 434.899 177.013H434.68L431.392 179.227V186H429.2V174.821H431.392V176.574L434.001 174.821H434.899ZM442.344 182.317H444.536V182.756C444.536 183.37 445.106 183.808 446.048 183.808H448.262C449.292 183.808 449.796 183.457 449.796 182.909C449.796 180.432 442.497 182.032 442.497 177.78C442.497 176.004 443.922 174.821 446.004 174.821H448.109C450.081 174.821 451.616 176.246 451.616 178.087V178.284H449.424V178.087C449.424 177.473 448.876 177.013 448.109 177.013H446.004C445.084 177.013 444.689 177.32 444.689 177.78C444.689 179.556 451.988 178.438 451.988 182.909C451.988 184.751 450.476 186 448.262 186H446.048C443.922 186 442.344 184.619 442.344 182.756V182.317ZM463.685 178.109C464.562 178.832 465.132 179.928 465.132 181.178V182.054C465.132 184.246 463.378 186 461.186 186H456.934H455.487V170.656H457.679H460.748C462.94 170.656 464.693 172.41 464.693 174.602V175.478C464.693 176.487 464.321 177.429 463.685 178.109ZM460.748 172.848H457.679V177.232H460.748C461.734 177.232 462.501 176.465 462.501 175.478V174.602C462.501 173.615 461.734 172.848 460.748 172.848ZM462.94 182.054V181.178C462.94 180.191 462.173 179.424 461.186 179.424H457.679V183.808H461.186C462.173 183.808 462.94 183.041 462.94 182.054ZM487.473 174.821C489.643 174.821 491.419 176.574 491.419 178.766V182.054C491.419 184.224 489.643 186 487.473 186H485.785L483.966 184.772V186H481.774V170.437H483.966V176.048L485.785 174.821H487.473ZM489.227 182.054V178.766C489.227 177.802 488.438 177.013 487.473 177.013H486.465L483.966 178.701V182.12L486.465 183.808H487.473C488.438 183.808 489.227 183.019 489.227 182.054ZM502.37 174.821H504.562V186H502.37V184.772L500.551 186H498.863C496.693 186 494.917 184.224 494.917 182.054V178.766C494.917 176.574 496.693 174.821 498.863 174.821H500.551L502.37 176.048V174.821ZM499.871 183.808L502.37 182.12V178.701L499.871 177.013H498.863C497.898 177.013 497.109 177.802 497.109 178.766V182.054C497.109 183.019 497.898 183.808 498.863 183.808H499.871ZM508.061 182.317H510.253V182.756C510.253 183.37 510.823 183.808 511.765 183.808H513.979C515.009 183.808 515.514 183.457 515.514 182.909C515.514 180.432 508.214 182.032 508.214 177.78C508.214 176.004 509.639 174.821 511.721 174.821H513.826C515.799 174.821 517.333 176.246 517.333 178.087V178.284H515.141V178.087C515.141 177.473 514.593 177.013 513.826 177.013H511.721C510.801 177.013 510.406 177.32 510.406 177.78C510.406 179.556 517.706 178.438 517.706 182.909C517.706 184.751 516.193 186 513.979 186H511.765C509.639 186 508.061 184.619 508.061 182.756V182.317ZM530.849 178.547V178.986V180.673V180.915H523.396V182.032C523.396 182.997 524.185 183.786 525.15 183.786H526.903C527.868 183.786 528.657 182.997 528.657 182.032V181.813H530.849V182.032C530.849 184.203 529.095 186 526.903 186H525.15C522.98 186 521.204 184.203 521.204 182.032V178.766C521.204 176.574 522.98 174.821 525.15 174.821H526.903C529.03 174.821 530.739 176.465 530.849 178.547ZM528.657 179.161V178.766C528.657 177.78 527.89 177.013 526.903 177.013H525.15C524.163 177.013 523.396 177.802 523.396 178.766V179.161H528.657ZM541.8 170.437H543.992V186H541.8V184.772L539.981 186H538.293C536.123 186 534.348 184.224 534.348 182.054V178.766C534.348 176.574 536.123 174.821 538.293 174.821H539.981L541.8 176.048V170.437ZM539.302 183.808L541.8 182.12V178.701L539.302 177.013H538.293C537.329 177.013 536.54 177.802 536.54 178.766V182.054C536.54 183.019 537.329 183.808 538.293 183.808H539.302ZM27.5624 196.656V198.848H25.1512V196.656H27.5624ZM27.5624 209.808H31.3984V212H25.3704H21.7536V209.808H25.3704V203.013H21.7536V200.821H27.5624V209.808ZM40.5962 200.821C42.7663 200.821 44.5418 202.574 44.5418 204.766V212H42.3498V204.766C42.3498 203.802 41.5607 203.013 40.5962 203.013H39.5879L37.089 204.701V212H34.897V200.821H37.089V202.048L38.9084 200.821H40.5962ZM70.8287 203.013H66.7735V208.054C66.7735 209.041 67.5407 209.808 68.5271 209.808H70.8287V212H68.5271C66.3351 212 64.5815 210.246 64.5815 208.054V203.013H61.1839V200.821H64.5815V197.971H66.7735V200.821H70.8287V203.013ZM80.0265 200.821C82.1966 200.821 83.9722 202.574 83.9722 204.766V212H81.7801V204.766C81.7801 203.802 80.991 203.013 80.0265 203.013H79.0182L76.5193 204.701V212H74.3273V196.437H76.5193V202.048L78.3387 200.821H80.0265ZM97.1156 204.547V204.986V206.673V206.915H89.6628V208.032C89.6628 208.997 90.4519 209.786 91.4164 209.786H93.17C94.1345 209.786 94.9236 208.997 94.9236 208.032V207.813H97.1156V208.032C97.1156 210.203 95.362 212 93.17 212H91.4164C89.2463 212 87.4708 210.203 87.4708 208.032V204.766C87.4708 202.574 89.2463 200.821 91.4164 200.821H93.17C95.2962 200.821 97.006 202.465 97.1156 204.547ZM94.9236 205.161V204.766C94.9236 203.78 94.1564 203.013 93.17 203.013H91.4164C90.43 203.013 89.6628 203.802 89.6628 204.766V205.161H94.9236ZM121.21 196.656H123.402V212H120.224L115.95 200.339V212H113.758V196.656H116.936L121.21 208.317V196.656ZM136.546 204.547V204.986V206.673V206.915H129.093V208.032C129.093 208.997 129.882 209.786 130.847 209.786H132.6C133.565 209.786 134.354 208.997 134.354 208.032V207.813H136.546V208.032C136.546 210.203 134.792 212 132.6 212H130.847C128.677 212 126.901 210.203 126.901 208.032V204.766C126.901 202.574 128.677 200.821 130.847 200.821H132.6C134.727 200.821 136.436 202.465 136.546 204.547ZM134.354 205.161V204.766C134.354 203.78 133.587 203.013 132.6 203.013H130.847C129.86 203.013 129.093 203.802 129.093 204.766V205.161H134.354ZM149.689 203.013H145.634V208.054C145.634 209.041 146.401 209.808 147.388 209.808H149.689V212H147.388C145.196 212 143.442 210.246 143.442 208.054V203.013H140.045V200.821H143.442V197.971H145.634V200.821H149.689V203.013ZM158.887 200.821C161.057 200.821 162.833 202.574 162.833 204.766V212H160.641V204.766C160.641 203.802 159.852 203.013 158.887 203.013H157.879L155.38 204.701V212H153.188V196.437H155.38V202.048L157.199 200.821H158.887ZM175.976 204.547V204.986V206.673V206.915H168.523V208.032C168.523 208.997 169.313 209.786 170.277 209.786H172.031C172.995 209.786 173.784 208.997 173.784 208.032V207.813H175.976V208.032C175.976 210.203 174.223 212 172.031 212H170.277C168.107 212 166.331 210.203 166.331 208.032V204.766C166.331 202.574 168.107 200.821 170.277 200.821H172.031C174.157 200.821 175.867 202.465 175.976 204.547ZM173.784 205.161V204.766C173.784 203.78 173.017 203.013 172.031 203.013H170.277C169.291 203.013 168.523 203.802 168.523 204.766V205.161H173.784ZM185.174 200.821C187.344 200.821 189.12 202.574 189.12 204.766V205.643H186.928V204.766C186.928 203.802 186.139 203.013 185.174 203.013H184.955L181.667 205.227V212H179.475V200.821H181.667V202.574L184.275 200.821H185.174ZM198.427 209.808H202.263V212H196.235H192.618V209.808H196.235V198.629H192.618V196.437H198.427V209.808ZM213.215 200.821H215.407V212H213.215V210.772L211.395 212H209.707C207.537 212 205.762 210.224 205.762 208.054V204.766C205.762 202.574 207.537 200.821 209.707 200.821H211.395L213.215 202.048V200.821ZM210.716 209.808L213.215 208.12V204.701L210.716 203.013H209.707C208.743 203.013 207.954 203.802 207.954 204.766V208.054C207.954 209.019 208.743 209.808 209.707 209.808H210.716ZM224.604 200.821C226.774 200.821 228.55 202.574 228.55 204.766V212H226.358V204.766C226.358 203.802 225.569 203.013 224.604 203.013H223.596L221.097 204.701V212H218.905V200.821H221.097V202.048L222.917 200.821H224.604ZM239.501 196.437H241.693V212H239.501V210.772L237.682 212H235.994C233.824 212 232.049 210.224 232.049 208.054V204.766C232.049 202.574 233.824 200.821 235.994 200.821H237.682L239.501 202.048V196.437ZM237.003 209.808L239.501 208.12V204.701L237.003 203.013H235.994C235.03 203.013 234.241 203.802 234.241 204.766V208.054C234.241 209.019 235.03 209.808 235.994 209.808H237.003ZM245.192 208.317H247.384V208.756C247.384 209.37 247.954 209.808 248.897 209.808H251.11C252.141 209.808 252.645 209.457 252.645 208.909C252.645 206.432 245.345 208.032 245.345 203.78C245.345 202.004 246.77 200.821 248.853 200.821H250.957C252.93 200.821 254.464 202.246 254.464 204.087V204.284H252.272V204.087C252.272 203.473 251.724 203.013 250.957 203.013H248.853C247.932 203.013 247.537 203.32 247.537 203.78C247.537 205.556 254.837 204.438 254.837 208.909C254.837 210.751 253.324 212 251.11 212H248.897C246.77 212 245.192 210.619 245.192 208.756V208.317ZM261.952 209.808H264.363V212H261.952V209.808ZM294.267 196.656V208.032C294.267 210.203 292.492 212 290.322 212H288.568C286.376 212 284.622 210.203 284.622 208.032V196.656H286.814V208.032C286.814 208.997 287.603 209.786 288.568 209.786H290.322C291.286 209.786 292.075 208.997 292.075 208.032V196.656H294.267ZM297.766 208.317H299.958V208.756C299.958 209.37 300.528 209.808 301.47 209.808H303.684C304.714 209.808 305.219 209.457 305.219 208.909C305.219 206.432 297.919 208.032 297.919 203.78C297.919 202.004 299.344 200.821 301.426 200.821H303.531C305.504 200.821 307.038 202.246 307.038 204.087V204.284H304.846V204.087C304.846 203.473 304.298 203.013 303.531 203.013H301.426C300.506 203.013 300.111 203.32 300.111 203.78C300.111 205.556 307.411 204.438 307.411 208.909C307.411 210.751 305.898 212 303.684 212H301.47C299.344 212 297.766 210.619 297.766 208.756V208.317ZM316.718 196.656V198.848H314.307V196.656H316.718ZM316.718 209.808H320.554V212H314.526H310.909V209.808H314.526V203.013H310.909V200.821H316.718V209.808ZM329.752 200.821C331.922 200.821 333.697 202.574 333.697 204.766V212H331.505V204.766C331.505 203.802 330.716 203.013 329.752 203.013H328.744L326.245 204.701V212H324.053V200.821H326.245V202.048L328.064 200.821H329.752ZM344.649 200.821H346.841V212.636C346.841 214.806 345.087 216.603 342.895 216.603H341.142C338.972 216.603 337.196 214.806 337.196 212.636H339.388C339.388 213.6 340.177 214.389 341.142 214.389H342.895C343.86 214.389 344.649 213.6 344.649 212.636V210.772L342.83 212H341.142C338.972 212 337.196 210.224 337.196 208.054V204.766C337.196 202.574 338.972 200.821 341.142 200.821H342.83L344.649 202.048V200.821ZM342.15 209.808L344.649 208.12V204.701L342.15 203.013H341.142C340.177 203.013 339.388 203.802 339.388 204.766V208.054C339.388 209.019 340.177 209.808 341.142 209.808H342.15ZM373.128 203.013H369.073V208.054C369.073 209.041 369.84 209.808 370.826 209.808H373.128V212H370.826C368.634 212 366.881 210.246 366.881 208.054V203.013H363.483V200.821H366.881V197.971H369.073V200.821H373.128V203.013ZM382.326 200.821C384.496 200.821 386.271 202.574 386.271 204.766V212H384.079V204.766C384.079 203.802 383.29 203.013 382.326 203.013H381.317L378.818 204.701V212H376.626V196.437H378.818V202.048L380.638 200.821H382.326ZM399.415 204.547V204.986V206.673V206.915H391.962V208.032C391.962 208.997 392.751 209.786 393.715 209.786H395.469C396.434 209.786 397.223 208.997 397.223 208.032V207.813H399.415V208.032C399.415 210.203 397.661 212 395.469 212H393.715C391.545 212 389.77 210.203 389.77 208.032V204.766C389.77 202.574 391.545 200.821 393.715 200.821H395.469C397.595 200.821 399.305 202.465 399.415 204.547ZM397.223 205.161V204.766C397.223 203.78 396.455 203.013 395.469 203.013H393.715C392.729 203.013 391.962 203.802 391.962 204.766V205.161H397.223ZM408.722 196.656V198.848H406.311V196.656H408.722ZM408.722 209.808H412.558V212H406.53H402.913V209.808H406.53V203.013H402.913V200.821H408.722V209.808ZM421.756 200.821C423.926 200.821 425.702 202.574 425.702 204.766V205.643H423.51V204.766C423.51 203.802 422.72 203.013 421.756 203.013H421.537L418.249 205.227V212H416.057V200.821H418.249V202.574L420.857 200.821H421.756ZM449.753 200.821C451.484 200.821 452.427 201.917 452.427 204.328V212H450.235V204.328C450.235 203.912 450.235 203.561 450.191 203.32L448.262 205.161V212H446.07V204.328C446.07 203.912 446.07 203.561 446.026 203.32L444.097 205.161V212H441.905V200.821H444.097V202.092L445.412 200.821H445.588C446.75 200.821 447.561 201.325 447.977 202.377L449.577 200.821H449.753ZM445.478 202.662H445.347H445.478ZM449.643 202.662H449.511H449.643ZM462.94 200.821H465.132V212H462.94V210.772L461.12 212H459.433C457.263 212 455.487 210.246 455.487 208.054V200.821H457.679V208.054C457.679 209.019 458.468 209.808 459.433 209.808H460.441L462.94 208.12V200.821ZM468.63 208.317H470.822V208.756C470.822 209.37 471.392 209.808 472.335 209.808H474.549C475.579 209.808 476.083 209.457 476.083 208.909C476.083 206.432 468.784 208.032 468.784 203.78C468.784 202.004 470.209 200.821 472.291 200.821H474.395C476.368 200.821 477.903 202.246 477.903 204.087V204.284H475.711V204.087C475.711 203.473 475.163 203.013 474.395 203.013H472.291C471.37 203.013 470.976 203.32 470.976 203.78C470.976 205.556 478.275 204.438 478.275 208.909C478.275 210.751 476.763 212 474.549 212H472.335C470.209 212 468.63 210.619 468.63 208.756V208.317ZM487.583 196.656V198.848H485.171V196.656H487.583ZM487.583 209.808H491.419V212H485.391H481.774V209.808H485.391V203.013H481.774V200.821H487.583V209.808ZM502.37 204.766C502.37 203.78 501.603 203.013 500.617 203.013H498.863C497.877 203.013 497.109 203.802 497.109 204.766V208.032C497.109 208.997 497.898 209.786 498.863 209.786H500.617C501.581 209.786 502.37 208.997 502.37 208.032V207.813H504.562V208.032C504.562 210.203 502.809 212 500.617 212H498.863C496.693 212 494.917 210.203 494.917 208.032V204.766C494.917 202.574 496.693 200.821 498.863 200.821H500.617C502.809 200.821 504.562 202.574 504.562 204.766V204.986H502.37V204.766ZM530.849 203.013H526.794V208.054C526.794 209.041 527.561 209.808 528.547 209.808H530.849V212H528.547C526.355 212 524.602 210.246 524.602 208.054V203.013H521.204V200.821H524.602V197.971H526.794V200.821H530.849V203.013ZM540.047 212H538.293C536.101 212 534.348 210.268 534.348 208.076V204.766C534.348 202.574 536.101 200.821 538.293 200.821H540.047C542.239 200.821 543.992 202.574 543.992 204.766V208.076C543.992 210.268 542.239 212 540.047 212ZM540.047 209.808C541.033 209.808 541.8 209.063 541.8 208.076V204.766C541.8 203.78 541.033 203.013 540.047 203.013H538.293C537.307 203.013 536.54 203.78 536.54 204.766V208.076C536.54 209.063 537.307 209.786 538.293 209.808H540.047ZM29.2064 222.437H31.3984V238H29.2064V236.772L27.387 238H25.6992C23.5291 238 21.7536 236.224 21.7536 234.054V230.766C21.7536 228.574 23.5291 226.821 25.6992 226.821H27.387L29.2064 228.048V222.437ZM26.7075 235.808L29.2064 234.12V230.701L26.7075 229.013H25.6992C24.7347 229.013 23.9456 229.802 23.9456 230.766V234.054C23.9456 235.019 24.7347 235.808 25.6992 235.808H26.7075ZM40.7058 222.656V224.848H38.2946V222.656H40.7058ZM40.7058 235.808H44.5418V238H38.5138H34.897V235.808H38.5138V229.013H34.897V226.821H40.7058V235.808ZM48.0405 234.317H50.2325V234.756C50.2325 235.37 50.8024 235.808 51.745 235.808H53.9589C54.9891 235.808 55.4933 235.457 55.4933 234.909C55.4933 232.432 48.1939 234.032 48.1939 229.78C48.1939 228.004 49.6187 226.821 51.7011 226.821H53.8054C55.7782 226.821 57.3126 228.246 57.3126 230.087V230.284H55.1206V230.087C55.1206 229.473 54.5726 229.013 53.8054 229.013H51.7011C50.7805 229.013 50.3859 229.32 50.3859 229.78C50.3859 231.556 57.6853 230.438 57.6853 234.909C57.6853 236.751 56.1728 238 53.9589 238H51.745C49.6187 238 48.0405 236.619 48.0405 234.756V234.317ZM70.8287 229.013H66.7735V234.054C66.7735 235.041 67.5407 235.808 68.5271 235.808H70.8287V238H68.5271C66.3351 238 64.5815 236.246 64.5815 234.054V229.013H61.1839V226.821H64.5815V223.971H66.7735V226.821H70.8287V229.013ZM80.0265 238H78.273C76.0809 238 74.3273 236.268 74.3273 234.076V230.766C74.3273 228.574 76.0809 226.821 78.273 226.821H80.0265C82.2186 226.821 83.9722 228.574 83.9722 230.766V234.076C83.9722 236.268 82.2186 238 80.0265 238ZM80.0265 235.808C81.013 235.808 81.7801 235.063 81.7801 234.076V230.766C81.7801 229.78 81.013 229.013 80.0265 229.013H78.273C77.2865 229.013 76.5193 229.78 76.5193 230.766V234.076C76.5193 235.063 77.2865 235.786 78.273 235.808H80.0265ZM93.17 226.821C95.3401 226.821 97.1156 228.574 97.1156 230.766V231.643H94.9236V230.766C94.9236 229.802 94.1345 229.013 93.17 229.013H92.9508L89.6628 231.227V238H87.4708V226.821H89.6628V228.574L92.2713 226.821H93.17ZM110.259 229.013H106.204V234.054C106.204 235.041 106.971 235.808 107.957 235.808H110.259V238H107.957C105.765 238 104.012 236.246 104.012 234.054V229.013H100.614V226.821H104.012V223.971H106.204V226.821H110.259V229.013ZM132.71 222.656V224.848H130.299V222.656H132.71ZM132.71 235.808H136.546V238H130.518H126.901V235.808H130.518V229.013H126.901V226.821H132.71V235.808ZM147.453 226.821C149.185 226.821 150.128 227.917 150.128 230.328V238H147.936V230.328C147.936 229.912 147.936 229.561 147.892 229.32L145.963 231.161V238H143.771V230.328C143.771 229.912 143.771 229.561 143.727 229.32L141.798 231.161V238H139.606V226.821H141.798V228.092L143.113 226.821H143.289C144.45 226.821 145.261 227.325 145.678 228.377L147.278 226.821H147.453ZM143.179 228.662H143.048H143.179ZM147.344 228.662H147.212H147.344ZM160.641 226.821H162.833V238H160.641V236.772L158.821 238H157.134C154.963 238 153.188 236.224 153.188 234.054V230.766C153.188 228.574 154.963 226.821 157.134 226.821H158.821L160.641 228.048V226.821ZM158.142 235.808L160.641 234.12V230.701L158.142 229.013H157.134C156.169 229.013 155.38 229.802 155.38 230.766V234.054C155.38 235.019 156.169 235.808 157.134 235.808H158.142ZM173.784 226.821H175.976V238.636C175.976 240.806 174.223 242.603 172.031 242.603H170.277C168.107 242.603 166.331 240.806 166.331 238.636H168.523C168.523 239.6 169.313 240.389 170.277 240.389H172.031C172.995 240.389 173.784 239.6 173.784 238.636V236.772L171.965 238H170.277C168.107 238 166.331 236.224 166.331 234.054V230.766C166.331 228.574 168.107 226.821 170.277 226.821H171.965L173.784 228.048V226.821ZM171.285 235.808L173.784 234.12V230.701L171.285 229.013H170.277C169.313 229.013 168.523 229.802 168.523 230.766V234.054C168.523 235.019 169.313 235.808 170.277 235.808H171.285ZM189.12 230.547V230.986V232.673V232.915H181.667V234.032C181.667 234.997 182.456 235.786 183.42 235.786H185.174C186.139 235.786 186.928 234.997 186.928 234.032V233.813H189.12V234.032C189.12 236.203 187.366 238 185.174 238H183.42C181.25 238 179.475 236.203 179.475 234.032V230.766C179.475 228.574 181.25 226.821 183.42 226.821H185.174C187.3 226.821 189.01 228.465 189.12 230.547ZM186.928 231.161V230.766C186.928 229.78 186.16 229.013 185.174 229.013H183.42C182.434 229.013 181.667 229.802 181.667 230.766V231.161H186.928ZM192.618 234.317H194.81V234.756C194.81 235.37 195.38 235.808 196.323 235.808H198.537C199.567 235.808 200.071 235.457 200.071 234.909C200.071 232.432 192.772 234.032 192.772 229.78C192.772 228.004 194.197 226.821 196.279 226.821H198.383C200.356 226.821 201.89 228.246 201.89 230.087V230.284H199.698V230.087C199.698 229.473 199.15 229.013 198.383 229.013H196.279C195.358 229.013 194.964 229.32 194.964 229.78C194.964 231.556 202.263 230.438 202.263 234.909C202.263 236.751 200.751 238 198.537 238H196.323C194.197 238 192.618 236.619 192.618 234.756V234.317ZM209.444 240.411H208.48L210.058 235.808H212.25L211.724 237.408L209.444 240.411ZM241.693 229.013H237.638V234.054C237.638 235.041 238.405 235.808 239.392 235.808H241.693V238H239.392C237.2 238 235.446 236.246 235.446 234.054V229.013H232.049V226.821H235.446V223.971H237.638V226.821H241.693V229.013ZM250.891 226.821C253.061 226.821 254.837 228.574 254.837 230.766V238H252.645V230.766C252.645 229.802 251.856 229.013 250.891 229.013H249.883L247.384 230.701V238H245.192V222.437H247.384V228.048L249.203 226.821H250.891ZM267.98 230.547V230.986V232.673V232.915H260.527V234.032C260.527 234.997 261.317 235.786 262.281 235.786H264.035C264.999 235.786 265.788 234.997 265.788 234.032V233.813H267.98V234.032C267.98 236.203 266.227 238 264.035 238H262.281C260.111 238 258.335 236.203 258.335 234.032V230.766C258.335 228.574 260.111 226.821 262.281 226.821H264.035C266.161 226.821 267.871 228.465 267.98 230.547ZM265.788 231.161V230.766C265.788 229.78 265.021 229.013 264.035 229.013H262.281C261.295 229.013 260.527 229.802 260.527 230.766V231.161H265.788ZM278.778 226.821H281.124L275.337 242.603H272.991L275.008 237.123L271.479 226.821H273.802L276.192 233.857L278.778 226.821ZM305.219 230.766C305.219 229.78 304.451 229.013 303.465 229.013H301.711C300.725 229.013 299.958 229.802 299.958 230.766V234.032C299.958 234.997 300.747 235.786 301.711 235.786H303.465C304.429 235.786 305.219 234.997 305.219 234.032V233.813H307.411V234.032C307.411 236.203 305.657 238 303.465 238H301.711C299.541 238 297.766 236.203 297.766 234.032V230.766C297.766 228.574 299.541 226.821 301.711 226.821H303.465C305.657 226.821 307.411 228.574 307.411 230.766V230.986H305.219V230.766ZM318.362 226.821H320.554V238H318.362V236.772L316.543 238H314.855C312.685 238 310.909 236.224 310.909 234.054V230.766C310.909 228.574 312.685 226.821 314.855 226.821H316.543L318.362 228.048V226.821ZM315.863 235.808L318.362 234.12V230.701L315.863 229.013H314.855C313.89 229.013 313.101 229.802 313.101 230.766V234.054C313.101 235.019 313.89 235.808 314.855 235.808H315.863ZM329.752 226.821C331.922 226.821 333.697 228.574 333.697 230.766V238H331.505V230.766C331.505 229.802 330.716 229.013 329.752 229.013H328.744L326.245 230.701V238H324.053V226.821H326.245V228.048L328.064 226.821H329.752ZM357.792 230.766C357.792 229.78 357.025 229.013 356.039 229.013H354.285C353.299 229.013 352.532 229.802 352.532 230.766V234.032C352.532 234.997 353.321 235.786 354.285 235.786H356.039C357.003 235.786 357.792 234.997 357.792 234.032V233.813H359.984V234.032C359.984 236.203 358.231 238 356.039 238H354.285C352.115 238 350.34 236.203 350.34 234.032V230.766C350.34 228.574 352.115 226.821 354.285 226.821H356.039C358.231 226.821 359.984 228.574 359.984 230.766V230.986H357.792V230.766ZM369.182 226.821C371.352 226.821 373.128 228.574 373.128 230.766V231.643H370.936V230.766C370.936 229.802 370.147 229.013 369.182 229.013H368.963L365.675 231.227V238H363.483V226.821H365.675V228.574L368.283 226.821H369.182ZM386.271 230.547V230.986V232.673V232.915H378.818V234.032C378.818 234.997 379.608 235.786 380.572 235.786H382.326C383.29 235.786 384.079 234.997 384.079 234.032V233.813H386.271V234.032C386.271 236.203 384.518 238 382.326 238H380.572C378.402 238 376.626 236.203 376.626 234.032V230.766C376.626 228.574 378.402 226.821 380.572 226.821H382.326C384.452 226.821 386.162 228.465 386.271 230.547ZM384.079 231.161V230.766C384.079 229.78 383.312 229.013 382.326 229.013H380.572C379.586 229.013 378.818 229.802 378.818 230.766V231.161H384.079ZM397.223 226.821H399.415V238H397.223V236.772L395.403 238H393.715C391.545 238 389.77 236.224 389.77 234.054V230.766C389.77 228.574 391.545 226.821 393.715 226.821H395.403L397.223 228.048V226.821ZM394.724 235.808L397.223 234.12V230.701L394.724 229.013H393.715C392.751 229.013 391.962 229.802 391.962 230.766V234.054C391.962 235.019 392.751 235.808 393.715 235.808H394.724ZM412.558 229.013H408.503V234.054C408.503 235.041 409.27 235.808 410.256 235.808H412.558V238H410.256C408.064 238 406.311 236.246 406.311 234.054V229.013H402.913V226.821H406.311V223.971H408.503V226.821H412.558V229.013ZM425.702 230.547V230.986V232.673V232.915H418.249V234.032C418.249 234.997 419.038 235.786 420.002 235.786H421.756C422.72 235.786 423.51 234.997 423.51 234.032V233.813H425.702V234.032C425.702 236.203 423.948 238 421.756 238H420.002C417.832 238 416.057 236.203 416.057 234.032V230.766C416.057 228.574 417.832 226.821 420.002 226.821H421.756C423.882 226.821 425.592 228.465 425.702 230.547ZM423.51 231.161V230.766C423.51 229.78 422.742 229.013 421.756 229.013H420.002C419.016 229.013 418.249 229.802 418.249 230.766V231.161H423.51ZM449.796 226.821H451.988V238.636C451.988 240.806 450.235 242.603 448.043 242.603H446.289C444.119 242.603 442.344 240.806 442.344 238.636H444.536C444.536 239.6 445.325 240.389 446.289 240.389H448.043C449.007 240.389 449.796 239.6 449.796 238.636V236.772L447.977 238H446.289C444.119 238 442.344 236.224 442.344 234.054V230.766C442.344 228.574 444.119 226.821 446.289 226.821H447.977L449.796 228.048V226.821ZM447.298 235.808L449.796 234.12V230.701L447.298 229.013H446.289C445.325 229.013 444.536 229.802 444.536 230.766V234.054C444.536 235.019 445.325 235.808 446.289 235.808H447.298ZM461.186 226.821C463.356 226.821 465.132 228.574 465.132 230.766V231.643H462.94V230.766C462.94 229.802 462.151 229.013 461.186 229.013H460.967L457.679 231.227V238H455.487V226.821H457.679V228.574L460.288 226.821H461.186ZM476.083 226.821H478.275V238H476.083V236.772L474.264 238H472.576C470.406 238 468.63 236.224 468.63 234.054V230.766C468.63 228.574 470.406 226.821 472.576 226.821H474.264L476.083 228.048V226.821ZM473.584 235.808L476.083 234.12V230.701L473.584 229.013H472.576C471.612 229.013 470.822 229.802 470.822 230.766V234.054C470.822 235.019 471.612 235.808 472.576 235.808H473.584ZM487.473 226.821C489.643 226.821 491.419 228.596 491.419 230.766V234.054C491.419 236.246 489.643 238 487.473 238H485.785L483.966 236.772V242.603H481.774V226.821H483.966V228.048L485.785 226.821H487.473ZM489.227 234.054V230.766C489.227 229.802 488.438 229.013 487.473 229.013H486.465L483.966 230.701V234.12L486.465 235.808H487.473C488.438 235.808 489.227 235.019 489.227 234.054ZM500.617 226.821C502.787 226.821 504.562 228.574 504.562 230.766V238H502.37V230.766C502.37 229.802 501.581 229.013 500.617 229.013H499.608L497.109 230.701V238H494.917V222.437H497.109V228.048L498.929 226.821H500.617ZM513.87 222.656V224.848H511.458V222.656H513.87ZM513.87 235.808H517.706V238H511.678H508.061V235.808H511.678V229.013H508.061V226.821H513.87V235.808ZM528.657 230.766C528.657 229.78 527.89 229.013 526.903 229.013H525.15C524.163 229.013 523.396 229.802 523.396 230.766V234.032C523.396 234.997 524.185 235.786 525.15 235.786H526.903C527.868 235.786 528.657 234.997 528.657 234.032V233.813H530.849V234.032C530.849 236.203 529.095 238 526.903 238H525.15C522.98 238 521.204 236.203 521.204 234.032V230.766C521.204 228.574 522.98 226.821 525.15 226.821H526.903C529.095 226.821 530.849 228.574 530.849 230.766V230.986H528.657V230.766ZM534.348 234.317H536.54V234.756C536.54 235.37 537.11 235.808 538.052 235.808H540.266C541.296 235.808 541.8 235.457 541.8 234.909C541.8 232.432 534.501 234.032 534.501 229.78C534.501 228.004 535.926 226.821 538.008 226.821H540.113C542.085 226.821 543.62 228.246 543.62 230.087V230.284H541.428V230.087C541.428 229.473 540.88 229.013 540.113 229.013H538.008C537.088 229.013 536.693 229.32 536.693 229.78C536.693 231.556 543.992 230.438 543.992 234.909C543.992 236.751 542.48 238 540.266 238H538.052C535.926 238 534.348 236.619 534.348 234.756V234.317ZM27.4528 252.821C29.6229 252.821 31.3984 254.574 31.3984 256.766V257.643H29.2064V256.766C29.2064 255.802 28.4173 255.013 27.4528 255.013H27.2336L23.9456 257.227V264H21.7536V252.821H23.9456V254.574L26.5541 252.821H27.4528ZM44.5418 256.547V256.986V258.673V258.915H37.089V260.032C37.089 260.997 37.8782 261.786 38.8426 261.786H40.5962C41.5607 261.786 42.3498 260.997 42.3498 260.032V259.813H44.5418V260.032C44.5418 262.203 42.7882 264 40.5962 264H38.8426C36.6726 264 34.897 262.203 34.897 260.032V256.766C34.897 254.574 36.6726 252.821 38.8426 252.821H40.5962C42.7225 252.821 44.4322 254.465 44.5418 256.547ZM42.3498 257.161V256.766C42.3498 255.78 41.5826 255.013 40.5962 255.013H38.8426C37.8562 255.013 37.089 255.802 37.089 256.766V257.161H42.3498ZM53.7397 252.821C55.9098 252.821 57.6853 254.596 57.6853 256.766V260.054C57.6853 262.246 55.9098 264 53.7397 264H52.0518L50.2325 262.772V268.603H48.0405V252.821H50.2325V254.048L52.0518 252.821H53.7397ZM55.4933 260.054V256.766C55.4933 255.802 54.7042 255.013 53.7397 255.013H52.7314L50.2325 256.701V260.12L52.7314 261.808H53.7397C54.7042 261.808 55.4933 261.019 55.4933 260.054ZM66.8831 252.821C69.0532 252.821 70.8287 254.574 70.8287 256.766V257.643H68.6367V256.766C68.6367 255.802 67.8476 255.013 66.8831 255.013H66.6639L63.3759 257.227V264H61.1839V252.821H63.3759V254.574L65.9844 252.821H66.8831ZM83.9722 256.547V256.986V258.673V258.915H76.5193V260.032C76.5193 260.997 77.3085 261.786 78.273 261.786H80.0265C80.991 261.786 81.7801 260.997 81.7801 260.032V259.813H83.9722V260.032C83.9722 262.203 82.2186 264 80.0265 264H78.273C76.1029 264 74.3273 262.203 74.3273 260.032V256.766C74.3273 254.574 76.1029 252.821 78.273 252.821H80.0265C82.1528 252.821 83.8626 254.465 83.9722 256.547ZM81.7801 257.161V256.766C81.7801 255.78 81.013 255.013 80.0265 255.013H78.273C77.2865 255.013 76.5193 255.802 76.5193 256.766V257.161H81.7801ZM87.4708 260.317H89.6628V260.756C89.6628 261.37 90.2327 261.808 91.1753 261.808H93.3892C94.4194 261.808 94.9236 261.457 94.9236 260.909C94.9236 258.432 87.6242 260.032 87.6242 255.78C87.6242 254.004 89.049 252.821 91.1314 252.821H93.2357C95.2085 252.821 96.7429 254.246 96.7429 256.087V256.284H94.5509V256.087C94.5509 255.473 94.0029 255.013 93.2357 255.013H91.1314C90.2108 255.013 89.8162 255.32 89.8162 255.78C89.8162 257.556 97.1156 256.438 97.1156 260.909C97.1156 262.751 95.6031 264 93.3892 264H91.1753C89.049 264 87.4708 262.619 87.4708 260.756V260.317ZM110.259 256.547V256.986V258.673V258.915H102.806V260.032C102.806 260.997 103.595 261.786 104.56 261.786H106.313C107.278 261.786 108.067 260.997 108.067 260.032V259.813H110.259V260.032C110.259 262.203 108.505 264 106.313 264H104.56C102.39 264 100.614 262.203 100.614 260.032V256.766C100.614 254.574 102.39 252.821 104.56 252.821H106.313C108.44 252.821 110.149 254.465 110.259 256.547ZM108.067 257.161V256.766C108.067 255.78 107.3 255.013 106.313 255.013H104.56C103.573 255.013 102.806 255.802 102.806 256.766V257.161H108.067ZM119.457 252.821C121.627 252.821 123.402 254.574 123.402 256.766V264H121.21V256.766C121.21 255.802 120.421 255.013 119.457 255.013H118.449L115.95 256.701V264H113.758V252.821H115.95V254.048L117.769 252.821H119.457ZM136.546 255.013H132.491V260.054C132.491 261.041 133.258 261.808 134.244 261.808H136.546V264H134.244C132.052 264 130.299 262.246 130.299 260.054V255.013H126.901V252.821H130.299V249.971H132.491V252.821H136.546V255.013ZM145.853 248.656V250.848H143.442V248.656H145.853ZM145.853 261.808H149.689V264H143.661H140.045V261.808H143.661V255.013H140.045V252.821H145.853V261.808ZM158.887 252.821C161.057 252.821 162.833 254.574 162.833 256.766V264H160.641V256.766C160.641 255.802 159.852 255.013 158.887 255.013H157.879L155.38 256.701V264H153.188V252.821H155.38V254.048L157.199 252.821H158.887ZM173.784 252.821H175.976V264.636C175.976 266.806 174.223 268.603 172.031 268.603H170.277C168.107 268.603 166.331 266.806 166.331 264.636H168.523C168.523 265.6 169.313 266.389 170.277 266.389H172.031C172.995 266.389 173.784 265.6 173.784 264.636V262.772L171.965 264H170.277C168.107 264 166.331 262.224 166.331 260.054V256.766C166.331 254.574 168.107 252.821 170.277 252.821H171.965L173.784 254.048V252.821ZM171.285 261.808L173.784 260.12V256.701L171.285 255.013H170.277C169.313 255.013 168.523 255.802 168.523 256.766V260.054C168.523 261.019 169.313 261.808 170.277 261.808H171.285ZM202.263 255.013H198.208V260.054C198.208 261.041 198.975 261.808 199.961 261.808H202.263V264H199.961C197.769 264 196.016 262.246 196.016 260.054V255.013H192.618V252.821H196.016V249.971H198.208V252.821H202.263V255.013ZM211.461 252.821C213.631 252.821 215.407 254.574 215.407 256.766V264H213.215V256.766C213.215 255.802 212.425 255.013 211.461 255.013H210.453L207.954 256.701V264H205.762V248.437H207.954V254.048L209.773 252.821H211.461ZM228.55 256.547V256.986V258.673V258.915H221.097V260.032C221.097 260.997 221.886 261.786 222.851 261.786H224.604C225.569 261.786 226.358 260.997 226.358 260.032V259.813H228.55V260.032C228.55 262.203 226.796 264 224.604 264H222.851C220.681 264 218.905 262.203 218.905 260.032V256.766C218.905 254.574 220.681 252.821 222.851 252.821H224.604C226.731 252.821 228.44 254.465 228.55 256.547ZM226.358 257.161V256.766C226.358 255.78 225.591 255.013 224.604 255.013H222.851C221.864 255.013 221.097 255.802 221.097 256.766V257.161H226.358ZM254.837 256.547V256.986V258.673V258.915H247.384V260.032C247.384 260.997 248.173 261.786 249.138 261.786H250.891C251.856 261.786 252.645 260.997 252.645 260.032V259.813H254.837V260.032C254.837 262.203 253.083 264 250.891 264H249.138C246.968 264 245.192 262.203 245.192 260.032V256.766C245.192 254.574 246.968 252.821 249.138 252.821H250.891C253.017 252.821 254.727 254.465 254.837 256.547ZM252.645 257.161V256.766C252.645 255.78 251.878 255.013 250.891 255.013H249.138C248.151 255.013 247.384 255.802 247.384 256.766V257.161H252.645ZM265.744 252.821C267.476 252.821 268.419 253.917 268.419 256.328V264H266.227V256.328C266.227 255.912 266.227 255.561 266.183 255.32L264.254 257.161V264H262.062V256.328C262.062 255.912 262.062 255.561 262.018 255.32L260.089 257.161V264H257.897V252.821H260.089V254.092L261.404 252.821H261.58C262.741 252.821 263.552 253.325 263.969 254.377L265.569 252.821H265.744ZM261.47 254.662H261.339H261.47ZM265.635 254.662H265.503H265.635ZM277.178 252.821C279.348 252.821 281.124 254.574 281.124 256.766V260.054C281.124 262.224 279.348 264 277.178 264H275.49L273.671 262.772V264H271.479V248.437H273.671V254.048L275.49 252.821H277.178ZM278.932 260.054V256.766C278.932 255.802 278.143 255.013 277.178 255.013H276.17L273.671 256.701V260.12L276.17 261.808H277.178C278.143 261.808 278.932 261.019 278.932 260.054ZM290.431 261.808H294.267V264H288.239H284.622V261.808H288.239V250.629H284.622V248.437H290.431V261.808ZM307.411 256.547V256.986V258.673V258.915H299.958V260.032C299.958 260.997 300.747 261.786 301.711 261.786H303.465C304.429 261.786 305.219 260.997 305.219 260.032V259.813H307.411V260.032C307.411 262.203 305.657 264 303.465 264H301.711C299.541 264 297.766 262.203 297.766 260.032V256.766C297.766 254.574 299.541 252.821 301.711 252.821H303.465C305.591 252.821 307.301 254.465 307.411 256.547ZM305.219 257.161V256.766C305.219 255.78 304.451 255.013 303.465 255.013H301.711C300.725 255.013 299.958 255.802 299.958 256.766V257.161H305.219ZM318.318 252.821C320.05 252.821 320.992 253.917 320.992 256.328V264H318.8V256.328C318.8 255.912 318.8 255.561 318.757 255.32L316.828 257.161V264H314.636V256.328C314.636 255.912 314.636 255.561 314.592 255.32L312.663 257.161V264H310.471V252.821H312.663V254.092L313.978 252.821H314.153C315.315 252.821 316.126 253.325 316.543 254.377L318.143 252.821H318.318ZM314.044 254.662H313.912H314.044ZM318.209 254.662H318.077H318.209ZM331.505 252.821H333.697V264H331.505V262.772L329.686 264H327.998C325.828 264 324.053 262.224 324.053 260.054V256.766C324.053 254.574 325.828 252.821 327.998 252.821H329.686L331.505 254.048V252.821ZM329.007 261.808L331.505 260.12V256.701L329.007 255.013H327.998C327.034 255.013 326.245 255.802 326.245 256.766V260.054C326.245 261.019 327.034 261.808 327.998 261.808H329.007ZM346.841 255.013H342.786V260.054C342.786 261.041 343.553 261.808 344.539 261.808H346.841V264H344.539C342.347 264 340.594 262.246 340.594 260.054V255.013H337.196V252.821H340.594V249.971H342.786V252.821H346.841V255.013ZM356.148 248.656V250.848H353.737V248.656H356.148ZM356.148 261.808H359.984V264H353.956H350.34V261.808H353.956V255.013H350.34V252.821H356.148V261.808ZM370.936 256.766C370.936 255.78 370.169 255.013 369.182 255.013H367.429C366.442 255.013 365.675 255.802 365.675 256.766V260.032C365.675 260.997 366.464 261.786 367.429 261.786H369.182C370.147 261.786 370.936 260.997 370.936 260.032V259.813H373.128V260.032C373.128 262.203 371.374 264 369.182 264H367.429C365.258 264 363.483 262.203 363.483 260.032V256.766C363.483 254.574 365.258 252.821 367.429 252.821H369.182C371.374 252.821 373.128 254.574 373.128 256.766V256.986H370.936V256.766ZM397.179 252.821C398.91 252.821 399.853 253.917 399.853 256.328V264H397.661V256.328C397.661 255.912 397.661 255.561 397.617 255.32L395.688 257.161V264H393.496V256.328C393.496 255.912 393.496 255.561 393.452 255.32L391.523 257.161V264H389.331V252.821H391.523V254.092L392.839 252.821H393.014C394.176 252.821 394.987 253.325 395.403 254.377L397.003 252.821H397.179ZM392.904 254.662H392.773H392.904ZM397.069 254.662H396.938H397.069ZM408.612 264H406.859C404.667 264 402.913 262.268 402.913 260.076V256.766C402.913 254.574 404.667 252.821 406.859 252.821H408.612C410.804 252.821 412.558 254.574 412.558 256.766V260.076C412.558 262.268 410.804 264 408.612 264ZM408.612 261.808C409.599 261.808 410.366 261.063 410.366 260.076V256.766C410.366 255.78 409.599 255.013 408.612 255.013H406.859C405.872 255.013 405.105 255.78 405.105 256.766V260.076C405.105 261.063 405.872 261.786 406.859 261.808H408.612ZM423.466 252.821C425.197 252.821 426.14 253.917 426.14 256.328V264H423.948V256.328C423.948 255.912 423.948 255.561 423.904 255.32L421.975 257.161V264H419.783V256.328C419.783 255.912 419.783 255.561 419.739 255.32L417.81 257.161V264H415.618V252.821H417.81V254.092L419.126 252.821H419.301C420.463 252.821 421.274 253.325 421.69 254.377L423.29 252.821H423.466ZM419.191 254.662H419.06H419.191ZM423.356 254.662H423.225H423.356ZM438.845 256.547V256.986V258.673V258.915H431.392V260.032C431.392 260.997 432.181 261.786 433.146 261.786H434.899C435.864 261.786 436.653 260.997 436.653 260.032V259.813H438.845V260.032C438.845 262.203 437.091 264 434.899 264H433.146C430.976 264 429.2 262.203 429.2 260.032V256.766C429.2 254.574 430.976 252.821 433.146 252.821H434.899C437.026 252.821 438.735 254.465 438.845 256.547ZM436.653 257.161V256.766C436.653 255.78 435.886 255.013 434.899 255.013H433.146C432.159 255.013 431.392 255.802 431.392 256.766V257.161H436.653ZM448.043 252.821C450.213 252.821 451.988 254.574 451.988 256.766V264H449.796V256.766C449.796 255.802 449.007 255.013 448.043 255.013H447.034L444.536 256.701V264H442.344V252.821H444.536V254.048L446.355 252.821H448.043ZM465.132 255.013H461.077V260.054C461.077 261.041 461.844 261.808 462.83 261.808H465.132V264H462.83C460.638 264 458.885 262.246 458.885 260.054V255.013H455.487V252.821H458.885V249.971H461.077V252.821H465.132V255.013ZM468.63 260.317H470.822V260.756C470.822 261.37 471.392 261.808 472.335 261.808H474.549C475.579 261.808 476.083 261.457 476.083 260.909C476.083 258.432 468.784 260.032 468.784 255.78C468.784 254.004 470.209 252.821 472.291 252.821H474.395C476.368 252.821 477.903 254.246 477.903 256.087V256.284H475.711V256.087C475.711 255.473 475.163 255.013 474.395 255.013H472.291C471.37 255.013 470.976 255.32 470.976 255.78C470.976 257.556 478.275 256.438 478.275 260.909C478.275 262.751 476.763 264 474.549 264H472.335C470.209 264 468.63 262.619 468.63 260.756V260.317ZM500.617 264H498.863C496.671 264 494.917 262.268 494.917 260.076V256.766C494.917 254.574 496.671 252.821 498.863 252.821H500.617C502.809 252.821 504.562 254.574 504.562 256.766V260.076C504.562 262.268 502.809 264 500.617 264ZM500.617 261.808C501.603 261.808 502.37 261.063 502.37 260.076V256.766C502.37 255.78 501.603 255.013 500.617 255.013H498.863C497.877 255.013 497.109 255.78 497.109 256.766V260.076C497.109 261.063 497.877 261.786 498.863 261.808H500.617ZM515.623 250.629C514.637 250.629 513.87 251.396 513.87 252.382V253.478H517.706V255.67H513.87V264H511.678V255.67H508.061V253.478H511.678V252.382C511.678 250.19 513.431 248.437 515.623 248.437H517.706V250.629H515.623ZM31.3984 281.013H27.3432V286.054C27.3432 287.041 28.1104 287.808 29.0968 287.808H31.3984V290H29.0968C26.9048 290 25.1512 288.246 25.1512 286.054V281.013H21.7536V278.821H25.1512V275.971H27.3432V278.821H31.3984V281.013ZM40.5962 278.821C42.7663 278.821 44.5418 280.574 44.5418 282.766V290H42.3498V282.766C42.3498 281.802 41.5607 281.013 40.5962 281.013H39.5879L37.089 282.701V290H34.897V274.437H37.089V280.048L38.9084 278.821H40.5962ZM57.6853 282.547V282.986V284.673V284.915H50.2325V286.032C50.2325 286.997 51.0216 287.786 51.9861 287.786H53.7397C54.7042 287.786 55.4933 286.997 55.4933 286.032V285.813H57.6853V286.032C57.6853 288.203 55.9317 290 53.7397 290H51.9861C49.816 290 48.0405 288.203 48.0405 286.032V282.766C48.0405 280.574 49.816 278.821 51.9861 278.821H53.7397C55.8659 278.821 57.5757 280.465 57.6853 282.547ZM55.4933 283.161V282.766C55.4933 281.78 54.7261 281.013 53.7397 281.013H51.9861C50.9997 281.013 50.2325 281.802 50.2325 282.766V283.161H55.4933ZM66.9927 274.656V276.848H64.5815V274.656H66.9927ZM66.9927 287.808H70.8287V290H64.8007H61.1839V287.808H64.8007V281.013H61.1839V278.821H66.9927V287.808ZM80.0265 278.821C82.1966 278.821 83.9722 280.574 83.9722 282.766V283.643H81.7801V282.766C81.7801 281.802 80.991 281.013 80.0265 281.013H79.8073L76.5193 283.227V290H74.3273V278.821H76.5193V280.574L79.1278 278.821H80.0265ZM100.614 286.317H102.806V286.756C102.806 287.37 103.376 287.808 104.319 287.808H106.533C107.563 287.808 108.067 287.457 108.067 286.909C108.067 284.432 100.768 286.032 100.768 281.78C100.768 280.004 102.192 278.821 104.275 278.821H106.379C108.352 278.821 109.886 280.246 109.886 282.087V282.284H107.694V282.087C107.694 281.473 107.146 281.013 106.379 281.013H104.275C103.354 281.013 102.96 281.32 102.96 281.78C102.96 283.556 110.259 282.438 110.259 286.909C110.259 288.751 108.747 290 106.533 290H104.319C102.192 290 100.614 288.619 100.614 286.756V286.317ZM119.457 290H117.703C115.511 290 113.758 288.268 113.758 286.076V282.766C113.758 280.574 115.511 278.821 117.703 278.821H119.457C121.649 278.821 123.402 280.574 123.402 282.766V286.076C123.402 288.268 121.649 290 119.457 290ZM119.457 287.808C120.443 287.808 121.21 287.063 121.21 286.076V282.766C121.21 281.78 120.443 281.013 119.457 281.013H117.703C116.717 281.013 115.95 281.78 115.95 282.766V286.076C115.95 287.063 116.717 287.786 117.703 287.808H119.457ZM132.6 278.821C134.77 278.821 136.546 280.574 136.546 282.766V290H134.354V282.766C134.354 281.802 133.565 281.013 132.6 281.013H131.592L129.093 282.701V290H126.901V278.821H129.093V280.048L130.912 278.821H132.6ZM147.497 278.821H149.689V290.636C149.689 292.806 147.936 294.603 145.744 294.603H143.99C141.82 294.603 140.045 292.806 140.045 290.636H142.237C142.237 291.6 143.026 292.389 143.99 292.389H145.744C146.708 292.389 147.497 291.6 147.497 290.636V288.772L145.678 290H143.99C141.82 290 140.045 288.224 140.045 286.054V282.766C140.045 280.574 141.82 278.821 143.99 278.821H145.678L147.497 280.048V278.821ZM144.998 287.808L147.497 286.12V282.701L144.998 281.013H143.99C143.026 281.013 142.237 281.802 142.237 282.766V286.054C142.237 287.019 143.026 287.808 143.99 287.808H144.998ZM153.188 286.317H155.38V286.756C155.38 287.37 155.95 287.808 156.892 287.808H159.106C160.137 287.808 160.641 287.457 160.641 286.909C160.641 284.432 153.341 286.032 153.341 281.78C153.341 280.004 154.766 278.821 156.849 278.821H158.953C160.926 278.821 162.46 280.246 162.46 282.087V282.284H160.268V282.087C160.268 281.473 159.72 281.013 158.953 281.013H156.849C155.928 281.013 155.533 281.32 155.533 281.78C155.533 283.556 162.833 282.438 162.833 286.909C162.833 288.751 161.32 290 159.106 290H156.892C154.766 290 153.188 288.619 153.188 286.756V286.317ZM169.948 287.808H172.359V290H169.948V287.808Z" fill="#1E1E1E"/>
<path d="M44 65V79.35H42.85V70.55L38.95 66.2H33.5V103.8H39.25V105H23.8V103.8H29.55L29.5 66.2H24.25L20.35 70.55V79.35H19.2V65H44ZM68.15 65V66.2H62.7V98.4L57.25 105H48.9L43.8 99.8V94.65H48.95V99.8H46.2V100.4L49.45 103.75H55.65L58.7 97.5V66.2H50.55V65H68.15ZM70.7508 105V103.8H76.2008L76.2508 66.2H70.8008V65H89.6508L96.0508 70.3V79.55L89.6008 84.8H84.9008L95.7008 101.3H96.3508L96.4008 92H97.6508L97.5508 105H93.9508L80.7008 84.8H80.2508L80.2008 103.8H85.6508V105H70.7508ZM80.2508 83.6H87.9508L92.0008 78.95V70.9L87.9508 66.2H80.2508V83.6ZM103.008 70.75L109.708 65H123.258V79.35H122.108V70.55L118.208 66.2H111.358L106.708 71.85V78.6L110.958 82.2H117.858L124.458 87.65V99.25L117.758 105H103.158V90.65H104.308V99.75L108.308 103.75H116.108L120.758 98.15V89.7L116.508 86.05H109.608L103.008 80.45V70.75ZM130.016 99.9H135.116V105H130.016V99.9ZM140.087 105V103.8H145.537V66.2H140.087V65H160.037L165.187 70.3V77L160.537 81.6L166.687 87.75V98.25L160.037 105H140.087ZM149.537 103.75H158.087L162.687 97.65V88.35L158.087 82.25H149.537V103.75ZM149.537 81H158.087L161.187 76.4V70.9L158.087 66.25H149.537V81ZM183.192 71.75L188.642 65H204.842V79.35H203.692V70.55L199.792 66.2H190.292L187.192 72.35V97.65L190.292 103.8H197.792L200.892 97.65V84.3H195.442V83.1H207.292V84.3H204.842V105H203.642V99.8L199.442 105H188.642L183.192 98.25V71.75ZM210.399 105V103.8H215.849L215.899 66.2H210.449V65H229.299L235.699 70.3V79.55L229.249 84.8H224.549L235.349 101.3H235.999L236.049 92H237.299L237.199 105H233.599L220.349 84.8H219.899L219.849 103.8H225.299V105H210.399ZM219.899 83.6H227.599L231.649 78.95V70.9L227.599 66.2H219.899V83.6ZM253.555 65H257.305L265.705 103.8H270.855V105H256.305V103.8H261.505L258.655 90.25H249.555L247.255 101.2L249.055 103.8H251.905V105H240.705V103.8H242.955L245.855 101.2L253.555 65ZM249.805 89H258.405L254.405 70.15H253.805L249.805 89ZM273.339 105V103.8H278.789V66.2H273.339V65H292.189L298.339 70.3V82L292.189 87.25H282.789V103.8H288.239V105H273.339ZM282.789 86H290.539L294.289 81.4V70.9L290.539 66.25H282.789V86ZM300.194 105V103.8H305.644V66.2H300.194V65H315.094V66.2H309.644V83.3H321.394V66.2H315.944V65H330.844V66.2H325.394V103.8H330.844V105H315.944V103.8H321.394V84.55H309.644V103.8H315.094V105H300.194ZM334.227 105V103.8H339.677V66.2H334.227V65H349.127V66.2H343.677V103.8H349.127V105H334.227ZM359.579 66.2L356.479 72.35V97.65L359.579 103.75H368.229L372.229 99.75V90.65H373.379V105H357.929L352.479 98.25V71.75L357.929 65H373.379V79.35H372.229V70.55L368.329 66.2H359.579ZM378.887 70.75L385.587 65H399.137V79.35H397.987V70.55L394.087 66.2H387.237L382.587 71.85V78.6L386.837 82.2H393.737L400.337 87.65V99.25L393.637 105H379.037V90.65H380.187V99.75L384.187 103.75H391.987L396.637 98.15V89.7L392.387 86.05H385.487L378.887 80.45V70.75Z" fill="#1E1E1E"/>
</svg>
