<svg width="475" height="750" viewBox="0 0 475 750" fill="none" xmlns="http://www.w3.org/2000/svg">
<g clip-path="url(#clip0_549_2)">
<mask id="path-1-inside-1_549_2" fill="white">
<path fill-rule="evenodd" clip-rule="evenodd" d="M394.937 0H415.382C418.528 9.53089 427.506 16.4093 438.091 16.4093C448.676 16.4093 457.654 9.53089 460.8 0H475V13.4627C465.862 16.8236 459.344 25.6053 459.344 35.9094C459.344 46.2135 465.862 54.9952 475 58.3561V79.2441C465.744 82.5429 459.119 91.3838 459.119 101.772C459.119 112.16 465.744 121.001 475 124.3V145.029C465.628 148.264 458.896 157.164 458.896 167.635C458.896 178.107 465.628 187.006 475 190.241V210.818C465.511 213.988 458.672 222.945 458.672 233.5C458.672 244.055 465.511 253.012 475 256.182V276.607C465.395 279.71 458.447 288.725 458.447 299.363C458.447 310.001 465.395 319.016 475 322.119V342.399C465.28 345.434 458.225 354.506 458.225 365.226C458.225 375.946 465.28 385.018 475 388.053V408.193C465.164 411.157 458 420.286 458 431.089C458 441.891 465.164 451.02 475 453.985V474.856C466.39 478.473 460.344 486.985 460.344 496.909C460.344 506.833 466.39 515.345 475 518.962V540.626C466.271 544.189 460.119 552.762 460.119 562.772C460.119 572.782 466.271 581.356 475 584.918V606.4C466.153 609.906 459.896 618.54 459.896 628.635C459.896 638.73 466.153 647.364 475 650.871V672.177C466.034 675.625 459.672 684.32 459.672 694.5C459.672 704.68 466.034 713.375 475 716.823V741.89C471.684 743.896 468.894 746.685 466.887 750H461.496C459.232 739.15 449.613 731 438.091 731C426.569 731 416.95 739.15 414.686 750H395.633C393.368 739.15 383.75 731 372.228 731C360.706 731 351.087 739.15 348.823 750H329.769C327.505 739.15 317.887 731 306.364 731C294.842 731 285.224 739.15 282.96 750H263.904C261.64 739.15 252.021 731 240.499 731C228.977 731 219.359 739.15 217.094 750H198.041C195.776 739.15 186.158 731 174.636 731C163.114 731 153.495 739.15 151.231 750H132.178C129.913 739.15 120.295 731 108.773 731C97.2506 731 87.6321 739.15 85.3678 750H66.3142C64.0499 739.15 54.4314 731 42.9094 731C31.3873 731 21.7688 739.15 19.5045 750H7.83423C5.38923 749.073 2.75257 748.535 0 748.462V728.002C11.0938 725.929 19.4906 716.195 19.4906 704.5C19.4906 692.805 11.0938 683.071 0 680.998V662.178C11.2049 660.195 19.7152 650.409 19.7152 638.635C19.7152 626.861 11.2049 617.075 0 615.092V596.353C11.3146 594.462 19.9379 584.624 19.9379 572.772C19.9379 560.92 11.3146 551.083 0 549.191V530.527C11.4249 528.729 20.1625 518.839 20.1625 506.909C20.1625 494.979 11.4249 485.09 0 483.292V464.215C10.2547 461.522 17.8187 452.189 17.8187 441.089C17.8187 429.989 10.2547 420.655 0 417.962V398.41C10.3687 395.795 18.0433 386.407 18.0433 375.226C18.0433 364.045 10.3687 354.657 0 352.041V332.602C10.4813 330.066 18.266 320.624 18.266 309.363C18.266 298.102 10.4813 288.66 0 286.123V266.793C10.5945 264.338 18.4906 254.841 18.4906 243.5C18.4906 232.159 10.5945 222.662 0 220.207V200.979C10.7073 198.607 18.7152 189.056 18.7152 177.635C18.7152 166.214 10.7073 156.663 0 154.291V135.164C10.8188 132.876 18.9379 123.272 18.9379 111.772C18.9379 100.272 10.8188 90.6684 0 88.3804V69.3475C10.9308 67.1458 19.1625 57.4889 19.1625 45.9094C19.1625 34.3299 10.9308 24.673 0 22.4712V0H20.2C23.3459 9.53089 32.3244 16.4093 42.9094 16.4093C53.4944 16.4093 62.4728 9.53089 65.6188 0H86.0632C89.2092 9.53089 98.1877 16.4093 108.773 16.4093C119.358 16.4093 128.336 9.53089 131.482 0H151.927C155.072 9.53089 164.051 16.4093 174.636 16.4093C185.221 16.4093 194.199 9.53089 197.345 0H217.79C220.936 9.53089 229.914 16.4093 240.499 16.4093C251.084 16.4093 260.063 9.53089 263.209 0H283.655C286.801 9.53089 295.779 16.4093 306.364 16.4093C316.949 16.4093 325.928 9.53089 329.074 0H349.518C352.664 9.53089 361.643 16.4093 372.228 16.4093C382.813 16.4093 391.791 9.53089 394.937 0Z"/>
</mask>
<path fill-rule="evenodd" clip-rule="evenodd" d="M394.937 0H415.382C418.528 9.53089 427.506 16.4093 438.091 16.4093C448.676 16.4093 457.654 9.53089 460.8 0H475V13.4627C465.862 16.8236 459.344 25.6053 459.344 35.9094C459.344 46.2135 465.862 54.9952 475 58.3561V79.2441C465.744 82.5429 459.119 91.3838 459.119 101.772C459.119 112.16 465.744 121.001 475 124.3V145.029C465.628 148.264 458.896 157.164 458.896 167.635C458.896 178.107 465.628 187.006 475 190.241V210.818C465.511 213.988 458.672 222.945 458.672 233.5C458.672 244.055 465.511 253.012 475 256.182V276.607C465.395 279.71 458.447 288.725 458.447 299.363C458.447 310.001 465.395 319.016 475 322.119V342.399C465.28 345.434 458.225 354.506 458.225 365.226C458.225 375.946 465.28 385.018 475 388.053V408.193C465.164 411.157 458 420.286 458 431.089C458 441.891 465.164 451.02 475 453.985V474.856C466.39 478.473 460.344 486.985 460.344 496.909C460.344 506.833 466.39 515.345 475 518.962V540.626C466.271 544.189 460.119 552.762 460.119 562.772C460.119 572.782 466.271 581.356 475 584.918V606.4C466.153 609.906 459.896 618.54 459.896 628.635C459.896 638.73 466.153 647.364 475 650.871V672.177C466.034 675.625 459.672 684.32 459.672 694.5C459.672 704.68 466.034 713.375 475 716.823V741.89C471.684 743.896 468.894 746.685 466.887 750H461.496C459.232 739.15 449.613 731 438.091 731C426.569 731 416.95 739.15 414.686 750H395.633C393.368 739.15 383.75 731 372.228 731C360.706 731 351.087 739.15 348.823 750H329.769C327.505 739.15 317.887 731 306.364 731C294.842 731 285.224 739.15 282.96 750H263.904C261.64 739.15 252.021 731 240.499 731C228.977 731 219.359 739.15 217.094 750H198.041C195.776 739.15 186.158 731 174.636 731C163.114 731 153.495 739.15 151.231 750H132.178C129.913 739.15 120.295 731 108.773 731C97.2506 731 87.6321 739.15 85.3678 750H66.3142C64.0499 739.15 54.4314 731 42.9094 731C31.3873 731 21.7688 739.15 19.5045 750H7.83423C5.38923 749.073 2.75257 748.535 0 748.462V728.002C11.0938 725.929 19.4906 716.195 19.4906 704.5C19.4906 692.805 11.0938 683.071 0 680.998V662.178C11.2049 660.195 19.7152 650.409 19.7152 638.635C19.7152 626.861 11.2049 617.075 0 615.092V596.353C11.3146 594.462 19.9379 584.624 19.9379 572.772C19.9379 560.92 11.3146 551.083 0 549.191V530.527C11.4249 528.729 20.1625 518.839 20.1625 506.909C20.1625 494.979 11.4249 485.09 0 483.292V464.215C10.2547 461.522 17.8187 452.189 17.8187 441.089C17.8187 429.989 10.2547 420.655 0 417.962V398.41C10.3687 395.795 18.0433 386.407 18.0433 375.226C18.0433 364.045 10.3687 354.657 0 352.041V332.602C10.4813 330.066 18.266 320.624 18.266 309.363C18.266 298.102 10.4813 288.66 0 286.123V266.793C10.5945 264.338 18.4906 254.841 18.4906 243.5C18.4906 232.159 10.5945 222.662 0 220.207V200.979C10.7073 198.607 18.7152 189.056 18.7152 177.635C18.7152 166.214 10.7073 156.663 0 154.291V135.164C10.8188 132.876 18.9379 123.272 18.9379 111.772C18.9379 100.272 10.8188 90.6684 0 88.3804V69.3475C10.9308 67.1458 19.1625 57.4889 19.1625 45.9094C19.1625 34.3299 10.9308 24.673 0 22.4712V0H20.2C23.3459 9.53089 32.3244 16.4093 42.9094 16.4093C53.4944 16.4093 62.4728 9.53089 65.6188 0H86.0632C89.2092 9.53089 98.1877 16.4093 108.773 16.4093C119.358 16.4093 128.336 9.53089 131.482 0H151.927C155.072 9.53089 164.051 16.4093 174.636 16.4093C185.221 16.4093 194.199 9.53089 197.345 0H217.79C220.936 9.53089 229.914 16.4093 240.499 16.4093C251.084 16.4093 260.063 9.53089 263.209 0H283.655C286.801 9.53089 295.779 16.4093 306.364 16.4093C316.949 16.4093 325.928 9.53089 329.074 0H349.518C352.664 9.53089 361.643 16.4093 372.228 16.4093C382.813 16.4093 391.791 9.53089 394.937 0Z" fill="#FFFEEA"/>
<path d="M415.382 0L417.281 -0.626894L416.828 -2H415.382V0ZM394.937 0V-2H393.491L393.038 -0.626894L394.937 0ZM460.8 0V-2H459.354L458.901 -0.626894L460.8 0ZM475 0H477V-2H475V0ZM475 13.4627L475.69 15.3397L477 14.8581V13.4627H475ZM475 58.3561H477V56.9607L475.69 56.479L475 58.3561ZM475 79.2441L475.671 81.128L477 80.6545V79.2441H475ZM475 124.3H477V122.89L475.671 122.416L475 124.3ZM475 145.029L475.653 146.919L477 146.454V145.029H475ZM475 190.241H477V188.816L475.653 188.351L475 190.241ZM475 210.818L475.634 212.714L477 212.258V210.818H475ZM475 256.182H477V254.742L475.634 254.285L475 256.182ZM475 276.607L475.615 278.51L477 278.062V276.607H475ZM475 322.119H477V320.663L475.615 320.216L475 322.119ZM475 342.399L475.596 344.308L477 343.87V342.399H475ZM475 388.053H477V386.582L475.596 386.144L475 388.053ZM475 408.193L475.577 410.108L477 409.679V408.193H475ZM475 453.985H477V452.498L475.577 452.07L475 453.985ZM475 474.856L475.775 476.7L477 476.186V474.856H475ZM475 518.962H477V517.633L475.775 517.118L475 518.962ZM475 540.626L475.756 542.478L477 541.97V540.626H475ZM475 584.918H477V583.574L475.756 583.066L475 584.918ZM475 606.4L475.737 608.259L477 607.758V606.4H475ZM475 650.871H477V649.512L475.737 649.011L475 650.871ZM475 672.177L475.718 674.043L477 673.55V672.177H475ZM475 716.823H477V715.45L475.718 714.957L475 716.823ZM475 741.89L476.035 743.601L477 743.018V741.89H475ZM466.887 750V752H468.015L468.598 751.036L466.887 750ZM461.496 750L459.538 750.409L459.87 752H461.496V750ZM414.686 750V752H416.312L416.644 750.409L414.686 750ZM395.633 750L393.675 750.409L394.007 752H395.633V750ZM348.823 750V752H350.449L350.781 750.409L348.823 750ZM329.769 750L327.811 750.409L328.144 752H329.769V750ZM282.96 750V752H284.585L284.917 750.409L282.96 750ZM263.904 750L261.946 750.409L262.278 752H263.904V750ZM217.094 750V752H218.72L219.052 750.409L217.094 750ZM198.041 750L196.083 750.409L196.415 752H198.041V750ZM151.231 750V752H152.857L153.189 750.409L151.231 750ZM132.178 750L130.22 750.409L130.552 752H132.178V750ZM85.3678 750V752H86.9935L87.3256 750.409L85.3678 750ZM66.3142 750L64.3564 750.409L64.6885 752H66.3142V750ZM19.5045 750V752H21.1302L21.4623 750.409L19.5045 750ZM7.83423 750L7.12495 751.87L7.46768 752H7.83423V750ZM0 748.462H-2V750.41L-0.0527998 750.461L0 748.462ZM0 728.002L-0.367343 726.036L-2 726.341V728.002H0ZM0 680.998H-2V682.659L-0.367343 682.964L0 680.998ZM0 662.178L-0.34848 660.208L-2 660.501V662.178H0ZM0 615.092H-2V616.77L-0.34848 617.062L0 615.092ZM0 596.353L-0.329788 594.381L-2 594.66V596.353H0ZM0 549.191H-2V550.884L-0.329788 551.164L0 549.191ZM0 530.527L-0.310952 528.551L-2 528.817V530.527H0ZM0 483.292H-2V485.002L-0.310952 485.268L0 483.292ZM0 464.215L-0.508065 462.281L-2 462.673V464.215H0ZM0 417.962H-2V419.505L-0.508065 419.896L0 417.962ZM0 398.41L-0.489134 396.471L-2 396.852V398.41H0ZM0 352.041H-2V353.599L-0.489134 353.981L0 352.041ZM0 332.602L-0.470377 330.658L-2 331.029V332.602H0ZM0 286.123H-2V287.697L-0.470377 288.067L0 286.123ZM0 266.793L-0.451461 264.844L-2 265.203V266.793H0ZM0 220.207H-2V221.797L-0.451461 222.156L0 220.207ZM0 200.979L-0.432552 199.026L-2 199.373V200.979H0ZM0 154.291H-2V155.897L-0.432552 156.244L0 154.291ZM0 135.164L-0.413815 133.207L-2 133.543V135.164H0ZM0 88.3804H-2V90.0016L-0.413815 90.3371L0 88.3804ZM0 69.3475L-0.394922 67.3869L-2 67.7102V69.3475H0ZM0 22.4712H-2V24.1085L-0.394922 24.4318L0 22.4712ZM0 0V-2H-2V0H0ZM20.2 0L22.0992 -0.626891L21.6459 -2H20.2V0ZM65.6188 0V-2H64.1728L63.7196 -0.626892L65.6188 0ZM86.0632 0L87.9625 -0.626891L87.5092 -2H86.0632V0ZM131.482 0V-2H130.036L129.583 -0.626891L131.482 0ZM151.927 0L153.826 -0.626891L153.373 -2H151.927V0ZM197.345 0V-2H195.899L195.446 -0.626891L197.345 0ZM217.79 0L219.689 -0.626891L219.236 -2H217.79V0ZM263.209 0V-2H261.763L261.309 -0.626888L263.209 0ZM283.655 0L285.554 -0.626894L285.101 -2H283.655V0ZM329.074 0V-2H327.628L327.175 -0.626894L329.074 0ZM349.518 0L351.418 -0.626894L350.964 -2H349.518V0ZM415.382 -2H394.937V2H415.382V-2ZM438.091 14.4093C428.395 14.4093 420.164 8.10893 417.281 -0.626894L413.482 0.626894C416.891 10.9528 426.618 18.4093 438.091 18.4093V14.4093ZM458.901 -0.626894C456.018 8.10893 447.787 14.4093 438.091 14.4093V18.4093C449.564 18.4093 459.291 10.9528 462.7 0.626894L458.901 -0.626894ZM475 -2H460.8V2H475V-2ZM477 13.4627V0H473V13.4627H477ZM461.344 35.9094C461.344 26.4703 467.314 18.4206 475.69 15.3397L474.31 11.5856C464.41 15.2265 457.344 24.7402 457.344 35.9094H461.344ZM475.69 56.479C467.314 53.3981 461.344 45.3484 461.344 35.9094H457.344C457.344 47.0785 464.41 56.5922 474.31 60.2331L475.69 56.479ZM477 79.2441V58.3561H473V79.2441H477ZM461.119 101.772C461.119 92.2559 467.187 84.1519 475.671 81.128L474.329 77.3602C464.301 80.9339 457.119 90.5117 457.119 101.772H461.119ZM475.671 122.416C467.187 119.392 461.119 111.288 461.119 101.772H457.119C457.119 113.033 464.301 122.61 474.329 126.184L475.671 122.416ZM477 145.029V124.3H473V145.029H477ZM460.896 167.635C460.896 158.043 467.062 149.885 475.653 146.919L474.347 143.138C464.194 146.644 456.896 156.285 456.896 167.635H460.896ZM475.653 188.351C467.062 185.385 460.896 177.227 460.896 167.635H456.896C456.896 178.986 464.194 188.626 474.347 192.132L475.653 188.351ZM477 210.818V190.241H473V210.818H477ZM460.672 233.5C460.672 223.831 466.936 215.62 475.634 212.714L474.366 208.921C464.086 212.355 456.672 222.059 456.672 233.5H460.672ZM475.634 254.285C466.936 251.38 460.672 243.169 460.672 233.5H456.672C456.672 244.941 464.086 254.645 474.366 258.079L475.634 254.285ZM477 276.607V256.182H473V276.607H477ZM460.447 299.363C460.447 289.618 466.811 281.354 475.615 278.51L474.385 274.703C463.979 278.065 456.447 287.832 456.447 299.363H460.447ZM475.615 320.216C466.811 317.372 460.447 309.108 460.447 299.363H456.447C456.447 310.894 463.979 320.66 474.385 324.022L475.615 320.216ZM477 342.399V322.119H473V342.399H477ZM460.225 365.226C460.225 355.405 466.687 347.089 475.596 344.308L474.404 340.49C463.872 343.778 456.225 353.606 456.225 365.226H460.225ZM475.596 386.144C466.687 383.362 460.225 375.046 460.225 365.226H456.225C456.225 376.846 463.872 386.674 474.404 389.962L475.596 386.144ZM477 408.193V388.053H473V408.193H477ZM460 431.089C460 421.193 466.562 412.824 475.577 410.108L474.423 406.278C463.766 409.49 456 419.38 456 431.089H460ZM475.577 452.07C466.562 449.353 460 440.985 460 431.089H456C456 442.798 463.766 452.688 474.423 455.899L475.577 452.07ZM477 474.856V453.985H473V474.856H477ZM462.344 496.909C462.344 487.819 467.881 480.016 475.775 476.7L474.225 473.012C464.899 476.93 458.344 486.152 458.344 496.909H462.344ZM475.775 517.118C467.881 513.802 462.344 506 462.344 496.909H458.344C458.344 507.667 464.899 516.888 474.225 520.806L475.775 517.118ZM477 540.626V518.962H473V540.626H477ZM462.119 562.772C462.119 553.602 467.753 545.744 475.756 542.478L474.244 538.774C464.789 542.633 458.119 551.921 458.119 562.772H462.119ZM475.756 583.066C467.753 579.801 462.119 571.942 462.119 562.772H458.119C458.119 573.623 464.789 582.911 474.244 586.77L475.756 583.066ZM477 606.4V584.918H473V606.4H477ZM461.896 628.635C461.896 619.388 467.626 611.473 475.737 608.259L474.263 604.54C464.68 608.339 457.896 617.692 457.896 628.635H461.896ZM475.737 649.011C467.626 645.797 461.896 637.883 461.896 628.635H457.896C457.896 639.578 464.68 648.931 474.263 652.73L475.737 649.011ZM477 672.177V650.871H473V672.177H477ZM461.672 694.5C461.672 685.174 467.499 677.205 475.718 674.043L474.282 670.31C464.57 674.046 457.672 683.465 457.672 694.5H461.672ZM475.718 714.957C467.499 711.795 461.672 703.826 461.672 694.5H457.672C457.672 705.535 464.57 714.954 474.282 718.69L475.718 714.957ZM477 741.89V716.823H473V741.89H477ZM468.598 751.036C470.438 747.997 472.996 745.44 476.035 743.601L473.965 740.179C470.372 742.352 467.351 745.372 465.176 748.964L468.598 751.036ZM461.496 752H466.887V748H461.496V752ZM438.091 733C448.647 733 457.463 740.467 459.538 750.409L463.454 749.591C461 737.833 450.579 729 438.091 729V733ZM416.644 750.409C418.719 740.467 427.535 733 438.091 733V729C425.603 729 415.182 737.833 412.728 749.591L416.644 750.409ZM395.633 752H414.686V748H395.633V752ZM372.228 733C382.784 733 391.6 740.467 393.675 750.409L397.59 749.591C395.137 737.833 384.716 729 372.228 729V733ZM350.781 750.409C352.855 740.467 361.672 733 372.228 733V729C359.739 729 349.319 737.833 346.865 749.591L350.781 750.409ZM329.769 752H348.823V748H329.769V752ZM306.364 733C316.92 733 325.737 740.467 327.811 750.409L331.727 749.591C329.273 737.833 318.853 729 306.364 729V733ZM284.917 750.409C286.992 740.467 295.809 733 306.364 733V729C293.876 729 283.456 737.833 281.002 749.591L284.917 750.409ZM263.904 752H282.96V748H263.904V752ZM240.499 733C251.055 733 259.871 740.467 261.946 750.409L265.862 749.591C263.408 737.833 252.987 729 240.499 729V733ZM219.052 750.409C221.127 740.467 229.943 733 240.499 733V729C228.011 729 217.59 737.833 215.137 749.591L219.052 750.409ZM198.041 752H217.094V748H198.041V752ZM174.636 733C185.192 733 194.008 740.467 196.083 750.409L199.999 749.591C197.545 737.833 187.124 729 174.636 729V733ZM153.189 750.409C155.264 740.467 164.08 733 174.636 733V729C162.148 729 151.727 737.833 149.273 749.591L153.189 750.409ZM132.178 752H151.231V748H132.178V752ZM108.773 733C119.329 733 128.145 740.467 130.22 750.409L134.135 749.591C131.681 737.833 121.261 729 108.773 729V733ZM87.3256 750.409C89.4004 740.467 98.2168 733 108.773 733V729C96.2844 729 85.8638 737.833 83.41 749.591L87.3256 750.409ZM66.3142 752H85.3678V748H66.3142V752ZM42.9094 733C53.4652 733 62.2817 740.467 64.3564 750.409L68.272 749.591C65.8182 737.833 55.3976 729 42.9094 729V733ZM21.4623 750.409C23.5371 740.467 32.3535 733 42.9094 733V729C30.4211 729 20.0006 737.833 17.5467 749.591L21.4623 750.409ZM7.83423 752H19.5045V748H7.83423V752ZM-0.0527998 750.461C2.47184 750.528 4.88677 751.021 7.12495 751.87L8.54351 748.13C5.89169 747.124 3.0333 746.541 0.0527998 746.463L-0.0527998 750.461ZM-2 728.002V748.462H2V728.002H-2ZM17.4906 704.5C17.4906 715.215 9.79729 724.137 -0.367343 726.036L0.367343 729.968C12.3903 727.721 21.4906 717.175 21.4906 704.5H17.4906ZM-0.367343 682.964C9.79729 684.863 17.4906 693.785 17.4906 704.5H21.4906C21.4906 691.824 12.3903 681.279 0.367343 679.032L-0.367343 682.964ZM-2 662.178V680.998H2V662.178H-2ZM17.7152 638.635C17.7152 649.422 9.91775 658.392 -0.34848 660.208L0.34848 664.147C12.492 661.998 21.7152 651.396 21.7152 638.635H17.7152ZM-0.34848 617.062C9.91775 618.878 17.7152 627.848 17.7152 638.635H21.7152C21.7152 625.874 12.492 615.272 0.34848 613.123L-0.34848 617.062ZM-2 596.353V615.092H2V596.353H-2ZM17.9379 572.772C17.9379 583.631 10.0368 592.647 -0.329788 594.381L0.329788 598.326C12.5924 596.276 21.9379 585.617 21.9379 572.772H17.9379ZM-0.329788 551.164C10.0368 552.897 17.9379 561.914 17.9379 572.772H21.9379C21.9379 559.927 12.5924 549.269 0.329788 547.218L-0.329788 551.164ZM-2 530.527V549.191H2V530.527H-2ZM18.1625 506.909C18.1625 517.84 10.1566 526.904 -0.310952 528.551L0.310952 532.503C12.6932 530.554 22.1625 519.839 22.1625 506.909H18.1625ZM-0.310952 485.268C10.1566 486.915 18.1625 495.979 18.1625 506.909H22.1625C22.1625 493.979 12.6932 483.265 0.310952 481.316L-0.310952 485.268ZM-2 464.215V483.292H2V464.215H-2ZM15.8187 441.089C15.8187 451.257 8.88944 459.813 -0.508065 462.281L0.508065 466.15C11.62 463.231 19.8187 453.12 19.8187 441.089H15.8187ZM-0.508065 419.896C8.88944 422.365 15.8187 430.92 15.8187 441.089H19.8187C19.8187 429.057 11.62 418.946 0.508065 416.028L-0.508065 419.896ZM-2 398.41V417.962H2V398.41H-2ZM16.0433 375.226C16.0433 385.469 9.01254 394.074 -0.489134 396.471L0.489134 400.35C11.7249 397.516 20.0433 387.345 20.0433 375.226H16.0433ZM-0.489134 353.981C9.01254 356.377 16.0433 364.983 16.0433 375.226H20.0433C20.0433 363.107 11.7249 352.936 0.489134 350.102L-0.489134 353.981ZM-2 332.602V352.041H2V332.602H-2ZM16.266 309.363C16.266 319.679 9.13423 328.334 -0.470377 330.658L0.470377 334.546C11.8284 331.798 20.266 321.568 20.266 309.363H16.266ZM-0.470377 288.067C9.13423 290.391 16.266 299.047 16.266 309.363H20.266C20.266 297.158 11.8284 286.928 0.470377 284.179L-0.470377 288.067ZM-2 266.793V286.123H2V266.793H-2ZM16.4906 243.5C16.4906 253.89 9.25664 262.595 -0.451461 264.844L0.451461 268.741C11.9324 266.081 20.4906 255.792 20.4906 243.5H16.4906ZM-0.451461 222.156C9.25663 224.405 16.4906 233.11 16.4906 243.5H20.4906C20.4906 231.208 11.9324 220.919 0.451461 218.259L-0.451461 222.156ZM-2 200.979V220.207H2V200.979H-2ZM16.7152 177.635C16.7152 188.098 9.37868 196.853 -0.432552 199.026L0.432552 202.931C12.036 200.361 20.7152 190.014 20.7152 177.635H16.7152ZM-0.432552 156.244C9.37868 158.418 16.7152 167.172 16.7152 177.635H20.7152C20.7152 165.256 12.036 154.909 0.432552 152.339L-0.432552 156.244ZM-2 135.164V154.291H2V135.164H-2ZM16.9379 111.772C16.9379 122.308 9.49932 131.111 -0.413815 133.207L0.413815 137.121C12.1382 134.641 20.9379 124.237 20.9379 111.772H16.9379ZM-0.413815 90.3371C9.49932 92.4336 16.9379 101.236 16.9379 111.772H20.9379C20.9379 99.3077 12.1382 88.9032 0.413815 86.4236L-0.413815 90.3371ZM-2 69.3475V88.3804H2V69.3475H-2ZM17.1625 45.9094C17.1625 56.518 9.62066 65.3695 -0.394922 67.3869L0.394922 71.3082C12.241 68.9221 21.1625 58.4598 21.1625 45.9094H17.1625ZM-0.394922 24.4318C9.62066 26.4492 17.1625 35.3008 17.1625 45.9094H21.1625C21.1625 33.3589 12.241 22.8967 0.394922 20.5106L-0.394922 24.4318ZM-2 0V22.4712H2V0H-2ZM20.2 -2H0V2H20.2V-2ZM42.9094 14.4093C33.2129 14.4093 24.9827 8.10893 22.0992 -0.626891L18.3008 0.626891C21.7091 10.9529 31.4359 18.4093 42.9094 18.4093V14.4093ZM63.7196 -0.626892C60.836 8.10893 52.6059 14.4093 42.9094 14.4093V18.4093C54.3829 18.4093 64.1096 10.9529 67.518 0.626892L63.7196 -0.626892ZM86.0632 -2H65.6188V2H86.0632V-2ZM108.773 14.4093C99.0762 14.4093 90.846 8.10893 87.9625 -0.626891L84.164 0.626891C87.5724 10.9529 97.2992 18.4093 108.773 18.4093V14.4093ZM129.583 -0.626891C126.699 8.10893 118.469 14.4093 108.773 14.4093V18.4093C120.246 18.4093 129.973 10.9529 133.381 0.626891L129.583 -0.626891ZM151.927 -2H131.482V2H151.927V-2ZM174.636 14.4093C164.939 14.4093 156.709 8.10893 153.826 -0.626891L150.027 0.626891C153.436 10.9529 163.162 18.4093 174.636 18.4093V14.4093ZM195.446 -0.626891C192.563 8.10893 184.332 14.4093 174.636 14.4093V18.4093C186.109 18.4093 195.836 10.9529 199.245 0.626891L195.446 -0.626891ZM217.79 -2H197.345V2H217.79V-2ZM240.499 14.4093C230.803 14.4093 222.573 8.10893 219.689 -0.626891L215.891 0.626891C219.299 10.9529 229.026 18.4093 240.499 18.4093V14.4093ZM261.309 -0.626888C258.426 8.10893 250.196 14.4093 240.499 14.4093V18.4093C251.973 18.4093 261.699 10.9529 265.108 0.626888L261.309 -0.626888ZM283.655 -2H263.209V2H283.655V-2ZM306.364 14.4093C296.668 14.4093 288.438 8.10893 285.554 -0.626894L281.756 0.626894C285.164 10.9528 294.891 18.4093 306.364 18.4093V14.4093ZM327.175 -0.626894C324.291 8.10893 316.061 14.4093 306.364 14.4093V18.4093C317.838 18.4093 327.565 10.9528 330.973 0.626894L327.175 -0.626894ZM349.518 -2H329.074V2H349.518V-2ZM372.228 14.4093C362.531 14.4093 354.301 8.10893 351.418 -0.626894L347.619 0.626894C351.028 10.9528 360.754 18.4093 372.228 18.4093V14.4093ZM393.038 -0.626894C390.154 8.10893 381.924 14.4093 372.228 14.4093V18.4093C383.701 18.4093 393.428 10.9528 396.836 0.626894L393.038 -0.626894Z" fill="#16356E" mask="url(#path-1-inside-1_549_2)"/>
</g>
<defs>
<clipPath id="clip0_549_2">
<rect width="475" height="750" fill="white"/>
</clipPath>
</defs>
</svg>
