<svg width="605" height="236" viewBox="0 0 605 236" fill="none" xmlns="http://www.w3.org/2000/svg">
<rect x="10" y="9" width="582" height="218" stroke="#1E1E1E" stroke-width="2"/>
<line x1="9" y1="54" x2="593" y2="54" stroke="#1E1E1E" stroke-width="2"/>
<line x1="9" y1="114" x2="593" y2="114" stroke="#1E1E1E" stroke-width="2"/>
<path d="M28.7257 28.018V26.4824C28.7257 25.2261 27.7486 24.249 26.4922 24.249H24.2588C23.0024 24.249 22.0253 25.254 22.0253 26.4824V35.9468C22.0253 37.1752 23.0304 38.1802 24.2588 38.1802H26.4922C27.7207 38.1802 28.7257 37.1752 28.7257 35.9468V34.4113H31.5176V35.9468C31.5176 38.7107 29.2841 41 26.4922 41H24.2588C21.4949 41 19.2335 38.7107 19.2335 35.9468V26.4824C19.2335 23.6906 21.4949 21.4571 24.2588 21.4571H26.4922C29.2841 21.4571 31.5176 23.6906 31.5176 26.4824V28.018H28.7257ZM45.4658 21.4571H48.2577V32.0661V41H45.4658V32.0661H38.7654V41H35.9736V29.2743V21.4571H38.7654V29.2743H45.4658V21.4571ZM60.2517 21.4571L64.9978 34.5788V41H62.2059V36.4772H55.5055V41H52.7137V34.5788L57.4598 21.4571H60.2517ZM58.8278 25.8682L56.0081 33.6854H61.7034L58.8837 25.8682H58.8278ZM78.9461 21.4571H81.7379V41H77.6897L72.2457 26.1474V41H69.4538V21.4571H73.502L78.9461 36.3097V21.4571ZM98.478 28.018H95.6862V26.4824C95.6862 25.2261 94.709 24.249 93.4527 24.249H91.2192C89.9629 24.249 88.9858 25.254 88.9858 26.4824V35.9468C88.9858 37.1752 89.9908 38.1802 91.2192 38.1802H93.4527C94.6811 38.1802 95.6862 37.1752 95.6862 35.9468V34.4113V33.2666H91.4984V30.4748H98.478V34.4113V35.9468C98.478 38.7107 96.2445 41 93.4527 41H91.2192C88.4553 41 86.1939 38.7107 86.1939 35.9468V26.4824C86.1939 23.6906 88.4553 21.4571 91.2192 21.4571H93.4527C96.2445 21.4571 98.478 23.6906 98.478 26.4824V28.018ZM115.218 24.249H110.472V38.2082H115.218V41H107.68H102.934V38.2082H107.68V24.249H102.934V21.4571H110.472H115.218V24.249ZM129.166 21.4571H131.958V41H127.91L122.466 26.1474V41H119.674V21.4571H123.722L129.166 36.3097V21.4571ZM148.698 28.018H145.907V26.4824C145.907 25.2261 144.929 24.249 143.673 24.249H141.44C140.183 24.249 139.206 25.254 139.206 26.4824V35.9468C139.206 37.1752 140.211 38.1802 141.44 38.1802H143.673C144.901 38.1802 145.907 37.1752 145.907 35.9468V34.4113V33.2666H141.719V30.4748H148.698V34.4113V35.9468C148.698 38.7107 146.465 41 143.673 41H141.44C138.676 41 136.414 38.7107 136.414 35.9468V26.4824C136.414 23.6906 138.676 21.4571 141.44 21.4571H143.673C146.465 21.4571 148.698 23.6906 148.698 26.4824V28.018ZM169.895 34.6904H172.686V35.8072C172.686 37.1193 173.775 38.2082 175.087 38.2082H176.958C178.382 38.2082 179.387 37.3148 179.387 36.0864C179.387 32.2336 170.174 31.3961 170.174 26.0916C170.174 23.3556 172.323 21.4571 175.367 21.4571H176.679C179.554 21.4571 181.899 23.7744 181.899 26.65V27.4875H179.108V26.65C179.108 25.3099 178.019 24.249 176.679 24.249H175.367C173.859 24.249 172.966 24.9469 172.966 26.0916C172.966 29.0509 182.179 30.1956 182.179 36.0864C182.179 38.8782 179.917 41 176.958 41H175.087C172.212 41 169.895 38.6828 169.895 35.8072V34.6904ZM198.919 21.4571V24.249H194.173V41H191.381V24.249H186.635V21.4571H194.173H198.919ZM210.913 21.4571L215.659 34.5788V41H212.867V36.4772H206.167V41H203.375V34.5788L208.121 21.4571H210.913ZM209.489 25.8682L206.669 33.6854H212.364L209.545 25.8682H209.489ZM232.399 21.4571V24.249H227.653V41H224.861V24.249H220.115V21.4571H227.653H232.399ZM249.139 24.249H239.647V29.358H248.022V32.1499H239.647V38.2082H249.139V41H236.855V32.1499V24.249V21.4571H249.139V24.249ZM253.595 34.6904H256.387V35.8072C256.387 37.1193 257.476 38.2082 258.788 38.2082H260.658C262.082 38.2082 263.087 37.3148 263.087 36.0864C263.087 32.2336 253.874 31.3961 253.874 26.0916C253.874 23.3556 256.024 21.4571 259.067 21.4571H260.379C263.255 21.4571 265.6 23.7744 265.6 26.65V27.4875H262.808V26.65C262.808 25.3099 261.719 24.249 260.379 24.249H259.067C257.56 24.249 256.666 24.9469 256.666 26.0916C256.666 29.0509 265.879 30.1956 265.879 36.0864C265.879 38.8782 263.618 41 260.658 41H258.788C255.912 41 253.595 38.6828 253.595 35.8072V34.6904Z" fill="#1E1E1E"/>
<path d="M32.3984 141.656V143.848H28.672V157H26.48V143.848H22.7536V141.656H28.672H32.3984ZM41.5962 145.821C43.7663 145.821 45.5418 147.574 45.5418 149.766V157H43.3498V149.766C43.3498 148.802 42.5607 148.013 41.5962 148.013H40.5879L38.089 149.701V157H35.897V141.437H38.089V147.048L39.9084 145.821H41.5962ZM54.8493 141.656V143.848H52.4381V141.656H54.8493ZM54.8493 154.808H58.6853V157H52.6573H49.0405V154.808H52.6573V148.013H49.0405V145.821H54.8493V154.808ZM62.1839 153.317H64.3759V153.756C64.3759 154.37 64.9458 154.808 65.8884 154.808H68.1023C69.1326 154.808 69.6367 154.457 69.6367 153.909C69.6367 151.432 62.3374 153.032 62.3374 148.78C62.3374 147.004 63.7622 145.821 65.8446 145.821H67.9489C69.9217 145.821 71.4561 147.246 71.4561 149.087V149.284H69.2641V149.087C69.2641 148.473 68.7161 148.013 67.9489 148.013H65.8446C64.9239 148.013 64.5294 148.32 64.5294 148.78C64.5294 150.556 71.8287 149.438 71.8287 153.909C71.8287 155.751 70.3162 157 68.1023 157H65.8884C63.7622 157 62.1839 155.619 62.1839 153.756V153.317ZM88.4708 153.317H90.6628V153.756C90.6628 154.37 91.2327 154.808 92.1753 154.808H94.3892C95.4194 154.808 95.9236 154.457 95.9236 153.909C95.9236 151.432 88.6242 153.032 88.6242 148.78C88.6242 147.004 90.049 145.821 92.1314 145.821H94.2357C96.2085 145.821 97.7429 147.246 97.7429 149.087V149.284H95.5509V149.087C95.5509 148.473 95.0029 148.013 94.2357 148.013H92.1314C91.2108 148.013 90.8162 148.32 90.8162 148.78C90.8162 150.556 98.1156 149.438 98.1156 153.909C98.1156 155.751 96.6031 157 94.3892 157H92.1753C90.049 157 88.4708 155.619 88.4708 153.756V153.317ZM111.259 148.013H107.204V153.054C107.204 154.041 107.971 154.808 108.957 154.808H111.259V157H108.957C106.765 157 105.012 155.246 105.012 153.054V148.013H101.614V145.821H105.012V142.971H107.204V145.821H111.259V148.013ZM122.21 145.821H124.402V157H122.21V155.772L120.391 157H118.703C116.533 157 114.758 155.224 114.758 153.054V149.766C114.758 147.574 116.533 145.821 118.703 145.821H120.391L122.21 147.048V145.821ZM119.712 154.808L122.21 153.12V149.701L119.712 148.013H118.703C117.739 148.013 116.95 148.802 116.95 149.766V153.054C116.95 154.019 117.739 154.808 118.703 154.808H119.712ZM135.31 145.821C137.042 145.821 137.984 146.917 137.984 149.328V157H135.792V149.328C135.792 148.912 135.792 148.561 135.748 148.32L133.819 150.161V157H131.627V149.328C131.627 148.912 131.627 148.561 131.584 148.32L129.655 150.161V157H127.463V145.821H129.655V147.092L130.97 145.821H131.145C132.307 145.821 133.118 146.325 133.535 147.377L135.135 145.821H135.31ZM131.036 147.662H130.904H131.036ZM135.2 147.662H135.069H135.2ZM146.744 145.821C148.914 145.821 150.689 147.596 150.689 149.766V153.054C150.689 155.246 148.914 157 146.744 157H145.056L143.237 155.772V161.603H141.045V145.821H143.237V147.048L145.056 145.821H146.744ZM148.497 153.054V149.766C148.497 148.802 147.708 148.013 146.744 148.013H145.735L143.237 149.701V153.12L145.735 154.808H146.744C147.708 154.808 148.497 154.019 148.497 153.054ZM174.784 149.766C174.784 148.78 174.017 148.013 173.031 148.013H171.277C170.291 148.013 169.523 148.802 169.523 149.766V153.032C169.523 153.997 170.313 154.786 171.277 154.786H173.031C173.995 154.786 174.784 153.997 174.784 153.032V152.813H176.976V153.032C176.976 155.203 175.223 157 173.031 157H171.277C169.107 157 167.331 155.203 167.331 153.032V149.766C167.331 147.574 169.107 145.821 171.277 145.821H173.031C175.223 145.821 176.976 147.574 176.976 149.766V149.986H174.784V149.766ZM186.174 157H184.42C182.228 157 180.475 155.268 180.475 153.076V149.766C180.475 147.574 182.228 145.821 184.42 145.821H186.174C188.366 145.821 190.12 147.574 190.12 149.766V153.076C190.12 155.268 188.366 157 186.174 157ZM186.174 154.808C187.16 154.808 187.928 154.063 187.928 153.076V149.766C187.928 148.78 187.16 148.013 186.174 148.013H184.42C183.434 148.013 182.667 148.78 182.667 149.766V153.076C182.667 154.063 183.434 154.786 184.42 154.808H186.174ZM199.427 154.808H203.263V157H197.235H193.618V154.808H197.235V143.629H193.618V141.437H199.427V154.808ZM212.571 154.808H216.407V157H210.379H206.762V154.808H210.379V143.629H206.762V141.437H212.571V154.808ZM229.55 149.547V149.986V151.673V151.915H222.097V153.032C222.097 153.997 222.886 154.786 223.851 154.786H225.604C226.569 154.786 227.358 153.997 227.358 153.032V152.813H229.55V153.032C229.55 155.203 227.796 157 225.604 157H223.851C221.681 157 219.905 155.203 219.905 153.032V149.766C219.905 147.574 221.681 145.821 223.851 145.821H225.604C227.731 145.821 229.44 147.465 229.55 149.547ZM227.358 150.161V149.766C227.358 148.78 226.591 148.013 225.604 148.013H223.851C222.864 148.013 222.097 148.802 222.097 149.766V150.161H227.358ZM240.501 149.766C240.501 148.78 239.734 148.013 238.748 148.013H236.994C236.008 148.013 235.241 148.802 235.241 149.766V153.032C235.241 153.997 236.03 154.786 236.994 154.786H238.748C239.712 154.786 240.501 153.997 240.501 153.032V152.813H242.693V153.032C242.693 155.203 240.94 157 238.748 157H236.994C234.824 157 233.049 155.203 233.049 153.032V149.766C233.049 147.574 234.824 145.821 236.994 145.821H238.748C240.94 145.821 242.693 147.574 242.693 149.766V149.986H240.501V149.766ZM255.837 148.013H251.782V153.054C251.782 154.041 252.549 154.808 253.535 154.808H255.837V157H253.535C251.343 157 249.59 155.246 249.59 153.054V148.013H246.192V145.821H249.59V142.971H251.782V145.821H255.837V148.013ZM265.144 141.656V143.848H262.733V141.656H265.144ZM265.144 154.808H268.98V157H262.952H259.335V154.808H262.952V148.013H259.335V145.821H265.144V154.808ZM278.178 157H276.425C274.233 157 272.479 155.268 272.479 153.076V149.766C272.479 147.574 274.233 145.821 276.425 145.821H278.178C280.37 145.821 282.124 147.574 282.124 149.766V153.076C282.124 155.268 280.37 157 278.178 157ZM278.178 154.808C279.165 154.808 279.932 154.063 279.932 153.076V149.766C279.932 148.78 279.165 148.013 278.178 148.013H276.425C275.438 148.013 274.671 148.78 274.671 149.766V153.076C274.671 154.063 275.438 154.786 276.425 154.808H278.178ZM291.322 145.821C293.492 145.821 295.267 147.574 295.267 149.766V157H293.075V149.766C293.075 148.802 292.286 148.013 291.322 148.013H290.313L287.814 149.701V157H285.622V145.821H287.814V147.048L289.634 145.821H291.322ZM319.362 145.821H321.554V157H319.362V155.772L317.543 157H315.855C313.685 157 311.909 155.224 311.909 153.054V149.766C311.909 147.574 313.685 145.821 315.855 145.821H317.543L319.362 147.048V145.821ZM316.863 154.808L319.362 153.12V149.701L316.863 148.013H315.855C314.89 148.013 314.101 148.802 314.101 149.766V153.054C314.101 154.019 314.89 154.808 315.855 154.808H316.863ZM330.861 141.656V143.848H328.45V141.656H330.861ZM330.861 154.808H334.697V157H328.669H325.053V154.808H328.669V148.013H325.053V145.821H330.861V154.808ZM345.605 145.821C347.337 145.821 348.279 146.917 348.279 149.328V157H346.087V149.328C346.087 148.912 346.087 148.561 346.043 148.32L344.115 150.161V157H341.923V149.328C341.923 148.912 341.923 148.561 341.879 148.32L339.95 150.161V157H337.758V145.821H339.95V147.092L341.265 145.821H341.44C342.602 145.821 343.413 146.325 343.83 147.377L345.43 145.821H345.605ZM341.331 147.662H341.199H341.331ZM345.495 147.662H345.364H345.495ZM351.34 153.317H353.532V153.756C353.532 154.37 354.101 154.808 355.044 154.808H357.258C358.288 154.808 358.792 154.457 358.792 153.909C358.792 151.432 351.493 153.032 351.493 148.78C351.493 147.004 352.918 145.821 355 145.821H357.104C359.077 145.821 360.612 147.246 360.612 149.087V149.284H358.42V149.087C358.42 148.473 357.872 148.013 357.104 148.013H355C354.08 148.013 353.685 148.32 353.685 148.78C353.685 150.556 360.984 149.438 360.984 153.909C360.984 155.751 359.472 157 357.258 157H355.044C352.918 157 351.34 155.619 351.34 153.756V153.317ZM387.271 148.013H383.216V153.054C383.216 154.041 383.983 154.808 384.97 154.808H387.271V157H384.97C382.778 157 381.024 155.246 381.024 153.054V148.013H377.626V145.821H381.024V142.971H383.216V145.821H387.271V148.013ZM396.469 157H394.715C392.523 157 390.77 155.268 390.77 153.076V149.766C390.77 147.574 392.523 145.821 394.715 145.821H396.469C398.661 145.821 400.415 147.574 400.415 149.766V153.076C400.415 155.268 398.661 157 396.469 157ZM396.469 154.808C397.455 154.808 398.223 154.063 398.223 153.076V149.766C398.223 148.78 397.455 148.013 396.469 148.013H394.715C393.729 148.013 392.962 148.78 392.962 149.766V153.076C392.962 154.063 393.729 154.786 394.715 154.808H396.469ZM422.756 145.821C424.926 145.821 426.702 147.596 426.702 149.766V153.054C426.702 155.246 424.926 157 422.756 157H421.068L419.249 155.772V161.603H417.057V145.821H419.249V147.048L421.068 145.821H422.756ZM424.51 153.054V149.766C424.51 148.802 423.72 148.013 422.756 148.013H421.748L419.249 149.701V153.12L421.748 154.808H422.756C423.72 154.808 424.51 154.019 424.51 153.054ZM437.653 145.821H439.845V157H437.653V155.772L435.834 157H434.146C431.976 157 430.2 155.246 430.2 153.054V145.821H432.392V153.054C432.392 154.019 433.181 154.808 434.146 154.808H435.154L437.653 153.12V145.821ZM452.988 148.013H448.933V153.054C448.933 154.041 449.7 154.808 450.687 154.808H452.988V157H450.687C448.495 157 446.741 155.246 446.741 153.054V148.013H443.344V145.821H446.741V142.971H448.933V145.821H452.988V148.013ZM477.193 143.629C476.206 143.629 475.439 144.396 475.439 145.382V146.478H479.275V148.67H475.439V157H473.247V148.67H469.63V146.478H473.247V145.382C473.247 143.19 475.001 141.437 477.193 141.437H479.275V143.629H477.193ZM488.473 157H486.719C484.527 157 482.774 155.268 482.774 153.076V149.766C482.774 147.574 484.527 145.821 486.719 145.821H488.473C490.665 145.821 492.419 147.574 492.419 149.766V153.076C492.419 155.268 490.665 157 488.473 157ZM488.473 154.808C489.459 154.808 490.227 154.063 490.227 153.076V149.766C490.227 148.78 489.459 148.013 488.473 148.013H486.719C485.733 148.013 484.966 148.78 484.966 149.766V153.076C484.966 154.063 485.733 154.786 486.719 154.808H488.473ZM501.617 145.821C503.787 145.821 505.562 147.574 505.562 149.766V150.643H503.37V149.766C503.37 148.802 502.581 148.013 501.617 148.013H501.397L498.109 150.227V157H495.917V145.821H498.109V147.574L500.718 145.821H501.617ZM518.706 148.013H514.65V153.054C514.65 154.041 515.418 154.808 516.404 154.808H518.706V157H516.404C514.212 157 512.458 155.246 512.458 153.054V148.013H509.061V145.821H512.458V142.971H514.65V145.821H518.706V148.013ZM527.903 145.821C530.074 145.821 531.849 147.574 531.849 149.766V157H529.657V149.766C529.657 148.802 528.868 148.013 527.903 148.013H526.895L524.396 149.701V157H522.204V141.437H524.396V147.048L526.216 145.821H527.903ZM30.2064 167.656H32.3984V183H29.22L24.9456 171.339V183H22.7536V167.656H25.932L30.2064 179.317V167.656ZM41.5962 183H39.8426C37.6506 183 35.897 181.268 35.897 179.076V175.766C35.897 173.574 37.6506 171.821 39.8426 171.821H41.5962C43.7882 171.821 45.5418 173.574 45.5418 175.766V179.076C45.5418 181.268 43.7882 183 41.5962 183ZM41.5962 180.808C42.5826 180.808 43.3498 180.063 43.3498 179.076V175.766C43.3498 174.78 42.5826 174.013 41.5962 174.013H39.8426C38.8562 174.013 38.089 174.78 38.089 175.766V179.076C38.089 180.063 38.8562 180.786 39.8426 180.808H41.5962ZM54.7397 171.821C56.9098 171.821 58.6853 173.574 58.6853 175.766V176.643H56.4933V175.766C56.4933 174.802 55.7042 174.013 54.7397 174.013H54.5205L51.2325 176.227V183H49.0405V171.821H51.2325V173.574L53.841 171.821H54.7397ZM69.6367 171.821H71.8287V176.862L70.5135 183H68.7599L67.0063 177.761L65.2527 183H63.4991L62.1839 176.862V171.821H64.3759V176.205L64.7705 178.857L66.1076 173.794H67.905L69.2422 178.857L69.6367 176.205V171.821ZM84.9722 175.547V175.986V177.673V177.915H77.5193V179.032C77.5193 179.997 78.3085 180.786 79.273 180.786H81.0265C81.991 180.786 82.7801 179.997 82.7801 179.032V178.813H84.9722V179.032C84.9722 181.203 83.2186 183 81.0265 183H79.273C77.1029 183 75.3273 181.203 75.3273 179.032V175.766C75.3273 173.574 77.1029 171.821 79.273 171.821H81.0265C83.1528 171.821 84.8626 173.465 84.9722 175.547ZM82.7801 176.161V175.766C82.7801 174.78 82.013 174.013 81.0265 174.013H79.273C78.2865 174.013 77.5193 174.802 77.5193 175.766V176.161H82.7801ZM95.9236 171.821H98.1156V183.636C98.1156 185.806 96.362 187.603 94.17 187.603H92.4164C90.2463 187.603 88.4708 185.806 88.4708 183.636H90.6628C90.6628 184.6 91.4519 185.389 92.4164 185.389H94.17C95.1345 185.389 95.9236 184.6 95.9236 183.636V181.772L94.1042 183H92.4164C90.2463 183 88.4708 181.224 88.4708 179.054V175.766C88.4708 173.574 90.2463 171.821 92.4164 171.821H94.1042L95.9236 173.048V171.821ZM93.4247 180.808L95.9236 179.12V175.701L93.4247 174.013H92.4164C91.4519 174.013 90.6628 174.802 90.6628 175.766V179.054C90.6628 180.019 91.4519 180.808 92.4164 180.808H93.4247ZM107.423 167.656V169.848H105.012V167.656H107.423ZM107.423 180.808H111.259V183H105.231H101.614V180.808H105.231V174.013H101.614V171.821H107.423V180.808ZM122.21 171.821H124.402V183H122.21V181.772L120.391 183H118.703C116.533 183 114.758 181.224 114.758 179.054V175.766C114.758 173.574 116.533 171.821 118.703 171.821H120.391L122.21 173.048V171.821ZM119.712 180.808L122.21 179.12V175.701L119.712 174.013H118.703C117.739 174.013 116.95 174.802 116.95 175.766V179.054C116.95 180.019 117.739 180.808 118.703 180.808H119.712ZM133.6 171.821C135.77 171.821 137.546 173.574 137.546 175.766V183H135.354V175.766C135.354 174.802 134.565 174.013 133.6 174.013H132.592L130.093 175.701V183H127.901V171.821H130.093V173.048L131.912 171.821H133.6ZM159.887 183H158.134C155.963 183 154.188 181.203 154.188 179.032V171.602C154.188 169.41 155.963 167.656 158.134 167.656H159.887C162.079 167.656 163.833 169.41 163.833 171.602V179.032C163.833 181.203 162.079 183 159.887 183ZM159.887 180.786C160.852 180.786 161.641 179.997 161.641 179.032V171.602C161.641 170.615 160.874 169.848 159.887 169.848H158.134C157.147 169.848 156.38 170.637 156.38 171.602V179.032C156.38 179.997 157.169 180.786 158.134 180.786H159.887ZM173.14 180.808H176.976V183H170.948H167.331V180.808H170.948V169.629H167.331V167.437H173.14V180.808ZM187.774 171.821H190.12L184.333 187.603H181.987L184.004 182.123L180.475 171.821H182.798L185.188 178.857L187.774 171.821ZM201.027 171.821C202.759 171.821 203.701 172.917 203.701 175.328V183H201.509V175.328C201.509 174.912 201.509 174.561 201.466 174.32L199.537 176.161V183H197.345V175.328C197.345 174.912 197.345 174.561 197.301 174.32L195.372 176.161V183H193.18V171.821H195.372V173.092L196.687 171.821H196.862C198.024 171.821 198.835 172.325 199.252 173.377L200.852 171.821H201.027ZM196.753 173.662H196.621H196.753ZM200.918 173.662H200.786H200.918ZM212.461 171.821C214.631 171.821 216.407 173.596 216.407 175.766V179.054C216.407 181.246 214.631 183 212.461 183H210.773L208.954 181.772V187.603H206.762V171.821H208.954V173.048L210.773 171.821H212.461ZM214.215 179.054V175.766C214.215 174.802 213.425 174.013 212.461 174.013H211.453L208.954 175.701V179.12L211.453 180.808H212.461C213.425 180.808 214.215 180.019 214.215 179.054ZM225.714 167.656V169.848H223.303V167.656H225.714ZM225.714 180.808H229.55V183H223.522H219.905V180.808H223.522V174.013H219.905V171.821H225.714V180.808ZM240.501 171.821H242.693V183H240.501V181.772L238.682 183H236.994C234.824 183 233.049 181.224 233.049 179.054V175.766C233.049 173.574 234.824 171.821 236.994 171.821H238.682L240.501 173.048V171.821ZM238.003 180.808L240.501 179.12V175.701L238.003 174.013H236.994C236.03 174.013 235.241 174.802 235.241 175.766V179.054C235.241 180.019 236.03 180.808 236.994 180.808H238.003ZM251.891 171.821C254.061 171.821 255.837 173.574 255.837 175.766V183H253.645V175.766C253.645 174.802 252.856 174.013 251.891 174.013H250.883L248.384 175.701V183H246.192V171.821H248.384V173.048L250.203 171.821H251.891ZM259.335 179.317H261.527V179.756C261.527 180.37 262.097 180.808 263.04 180.808H265.254C266.284 180.808 266.788 180.457 266.788 179.909C266.788 177.432 259.489 179.032 259.489 174.78C259.489 173.004 260.914 171.821 262.996 171.821H265.1C267.073 171.821 268.608 173.246 268.608 175.087V175.284H266.416V175.087C266.416 174.473 265.868 174.013 265.1 174.013H262.996C262.075 174.013 261.681 174.32 261.681 174.78C261.681 176.556 268.98 175.438 268.98 179.909C268.98 181.751 267.468 183 265.254 183H263.04C260.914 183 259.335 181.619 259.335 179.756V179.317ZM293.185 169.629C292.198 169.629 291.431 170.396 291.431 171.382V172.478H295.267V174.67H291.431V183H289.239V174.67H285.622V172.478H289.239V171.382C289.239 169.19 290.993 167.437 293.185 167.437H295.267V169.629H293.185ZM304.465 171.821C306.635 171.821 308.411 173.574 308.411 175.766V176.643H306.219V175.766C306.219 174.802 305.429 174.013 304.465 174.013H304.246L300.958 176.227V183H298.766V171.821H300.958V173.574L303.566 171.821H304.465ZM317.608 183H315.855C313.663 183 311.909 181.268 311.909 179.076V175.766C311.909 173.574 313.663 171.821 315.855 171.821H317.608C319.8 171.821 321.554 173.574 321.554 175.766V179.076C321.554 181.268 319.8 183 317.608 183ZM317.608 180.808C318.595 180.808 319.362 180.063 319.362 179.076V175.766C319.362 174.78 318.595 174.013 317.608 174.013H315.855C314.868 174.013 314.101 174.78 314.101 175.766V179.076C314.101 180.063 314.868 180.786 315.855 180.808H317.608ZM332.462 171.821C334.193 171.821 335.136 172.917 335.136 175.328V183H332.944V175.328C332.944 174.912 332.944 174.561 332.9 174.32L330.971 176.161V183H328.779V175.328C328.779 174.912 328.779 174.561 328.735 174.32L326.806 176.161V183H324.614V171.821H326.806V173.092L328.121 171.821H328.297C329.459 171.821 330.27 172.325 330.686 173.377L332.286 171.821H332.462ZM328.187 173.662H328.056H328.187ZM332.352 173.662H332.221H332.352ZM360.984 174.013H356.929V179.054C356.929 180.041 357.696 180.808 358.683 180.808H360.984V183H358.683C356.491 183 354.737 181.246 354.737 179.054V174.013H351.34V171.821H354.737V168.971H356.929V171.821H360.984V174.013ZM370.182 171.821C372.352 171.821 374.128 173.574 374.128 175.766V183H371.936V175.766C371.936 174.802 371.147 174.013 370.182 174.013H369.174L366.675 175.701V183H364.483V167.437H366.675V173.048L368.494 171.821H370.182ZM387.271 175.547V175.986V177.673V177.915H379.818V179.032C379.818 179.997 380.608 180.786 381.572 180.786H383.326C384.29 180.786 385.079 179.997 385.079 179.032V178.813H387.271V179.032C387.271 181.203 385.518 183 383.326 183H381.572C379.402 183 377.626 181.203 377.626 179.032V175.766C377.626 173.574 379.402 171.821 381.572 171.821H383.326C385.452 171.821 387.162 173.465 387.271 175.547ZM385.079 176.161V175.766C385.079 174.78 384.312 174.013 383.326 174.013H381.572C380.586 174.013 379.818 174.802 379.818 175.766V176.161H385.079ZM409.612 171.821C411.783 171.821 413.558 173.596 413.558 175.766V179.054C413.558 181.246 411.783 183 409.612 183H407.925L406.105 181.772V187.603H403.913V171.821H406.105V173.048L407.925 171.821H409.612ZM411.366 179.054V175.766C411.366 174.802 410.577 174.013 409.612 174.013H408.604L406.105 175.701V179.12L408.604 180.808H409.612C410.577 180.808 411.366 180.019 411.366 179.054ZM424.51 171.821H426.702V183H424.51V181.772L422.69 183H421.002C418.832 183 417.057 181.224 417.057 179.054V175.766C417.057 173.574 418.832 171.821 421.002 171.821H422.69L424.51 173.048V171.821ZM422.011 180.808L424.51 179.12V175.701L422.011 174.013H421.002C420.038 174.013 419.249 174.802 419.249 175.766V179.054C419.249 180.019 420.038 180.808 421.002 180.808H422.011ZM430.2 179.317H432.392V179.756C432.392 180.37 432.962 180.808 433.905 180.808H436.119C437.149 180.808 437.653 180.457 437.653 179.909C437.653 177.432 430.354 179.032 430.354 174.78C430.354 173.004 431.778 171.821 433.861 171.821H435.965C437.938 171.821 439.472 173.246 439.472 175.087V175.284H437.28V175.087C437.28 174.473 436.732 174.013 435.965 174.013H433.861C432.94 174.013 432.546 174.32 432.546 174.78C432.546 176.556 439.845 175.438 439.845 179.909C439.845 181.751 438.332 183 436.119 183H433.905C431.778 183 430.2 181.619 430.2 179.756V179.317ZM452.988 174.013H448.933V179.054C448.933 180.041 449.7 180.808 450.687 180.808H452.988V183H450.687C448.495 183 446.741 181.246 446.741 179.054V174.013H443.344V171.821H446.741V168.971H448.933V171.821H452.988V174.013ZM479.275 172.478C479.275 173.596 478.815 174.605 478.07 175.328C478.815 176.051 479.275 177.06 479.275 178.178V179.054C479.275 181.246 477.522 183 475.33 183H473.576C471.406 183 469.63 181.246 469.63 179.054V178.287H471.822V179.054C471.822 180.019 472.612 180.808 473.576 180.808H475.33C476.316 180.808 477.083 180.041 477.083 179.054V178.178C477.083 177.191 476.316 176.424 475.33 176.424H473.795V174.232H475.33C476.316 174.232 477.083 173.465 477.083 172.478V171.602C477.083 170.615 476.316 169.848 475.33 169.848H473.576C472.612 169.848 471.822 170.637 471.822 171.602V172.369H469.63V171.602C469.63 169.41 471.406 167.656 473.576 167.656H475.33C477.522 167.656 479.275 169.41 479.275 171.602V172.478ZM488.473 167.656C490.665 167.656 492.419 169.41 492.419 171.602V179.032C492.419 181.203 490.665 183 488.473 183H486.719C484.549 183 482.774 181.203 482.774 179.032V171.602C482.774 169.41 484.549 167.656 486.719 167.656H488.473ZM488.473 169.848H486.719C486.347 169.848 485.996 169.958 485.711 170.155L490.227 177.498V171.602C490.227 170.615 489.459 169.848 488.473 169.848ZM486.719 180.786H488.473C488.846 180.786 489.175 180.676 489.459 180.479L484.966 173.158V179.032C484.966 179.997 485.755 180.786 486.719 180.786ZM30.053 197.821H32.3984L26.6115 213.603H24.2661L26.2827 208.123L22.7536 197.821H25.0771L27.4664 204.857L30.053 197.821ZM45.5418 201.547V201.986V203.673V203.915H38.089V205.032C38.089 205.997 38.8782 206.786 39.8426 206.786H41.5962C42.5607 206.786 43.3498 205.997 43.3498 205.032V204.813H45.5418V205.032C45.5418 207.203 43.7882 209 41.5962 209H39.8426C37.6726 209 35.897 207.203 35.897 205.032V201.766C35.897 199.574 37.6726 197.821 39.8426 197.821H41.5962C43.7225 197.821 45.4322 199.465 45.5418 201.547ZM43.3498 202.161V201.766C43.3498 200.78 42.5826 200.013 41.5962 200.013H39.8426C38.8562 200.013 38.089 200.802 38.089 201.766V202.161H43.3498ZM56.4933 197.821H58.6853V209H56.4933V207.772L54.6739 209H52.9861C50.816 209 49.0405 207.224 49.0405 205.054V201.766C49.0405 199.574 50.816 197.821 52.9861 197.821H54.6739L56.4933 199.048V197.821ZM53.9944 206.808L56.4933 205.12V201.701L53.9944 200.013H52.9861C52.0216 200.013 51.2325 200.802 51.2325 201.766V205.054C51.2325 206.019 52.0216 206.808 52.9861 206.808H53.9944ZM67.8831 197.821C70.0532 197.821 71.8287 199.574 71.8287 201.766V202.643H69.6367V201.766C69.6367 200.802 68.8476 200.013 67.8831 200.013H67.6639L64.3759 202.227V209H62.1839V197.821H64.3759V199.574L66.9844 197.821H67.8831ZM75.3273 205.317H77.5193V205.756C77.5193 206.37 78.0893 206.808 79.0318 206.808H81.2458C82.276 206.808 82.7801 206.457 82.7801 205.909C82.7801 203.432 75.4808 205.032 75.4808 200.78C75.4808 199.004 76.9056 197.821 78.988 197.821H81.0923C83.0651 197.821 84.5995 199.246 84.5995 201.087V201.284H82.4075V201.087C82.4075 200.473 81.8595 200.013 81.0923 200.013H78.988C78.0673 200.013 77.6728 200.32 77.6728 200.78C77.6728 202.556 84.9722 201.438 84.9722 205.909C84.9722 207.751 83.4597 209 81.2458 209H79.0318C76.9056 209 75.3273 207.619 75.3273 205.756V205.317ZM92.1533 211.411H91.1889L92.7671 206.808H94.9591L94.433 208.408L92.1533 211.411ZM122.21 197.821H124.402V209H122.21V207.772L120.391 209H118.703C116.533 209 114.758 207.224 114.758 205.054V201.766C114.758 199.574 116.533 197.821 118.703 197.821H120.391L122.21 199.048V197.821ZM119.712 206.808L122.21 205.12V201.701L119.712 200.013H118.703C117.739 200.013 116.95 200.802 116.95 201.766V205.054C116.95 206.019 117.739 206.808 118.703 206.808H119.712ZM133.6 197.821C135.77 197.821 137.546 199.574 137.546 201.766V209H135.354V201.766C135.354 200.802 134.565 200.013 133.6 200.013H132.592L130.093 201.701V209H127.901V197.821H130.093V199.048L131.912 197.821H133.6ZM148.497 193.437H150.689V209H148.497V207.772L146.678 209H144.99C142.82 209 141.045 207.224 141.045 205.054V201.766C141.045 199.574 142.82 197.821 144.99 197.821H146.678L148.497 199.048V193.437ZM145.998 206.808L148.497 205.12V201.701L145.998 200.013H144.99C144.026 200.013 143.237 200.802 143.237 201.766V205.054C143.237 206.019 144.026 206.808 144.99 206.808H145.998ZM176.976 200.013H172.921V205.054C172.921 206.041 173.688 206.808 174.675 206.808H176.976V209H174.675C172.483 209 170.729 207.246 170.729 205.054V200.013H167.331V197.821H170.729V194.971H172.921V197.821H176.976V200.013ZM186.174 197.821C188.344 197.821 190.12 199.574 190.12 201.766V209H187.928V201.766C187.928 200.802 187.139 200.013 186.174 200.013H185.166L182.667 201.701V209H180.475V193.437H182.667V199.048L184.486 197.821H186.174ZM203.263 201.547V201.986V203.673V203.915H195.81V205.032C195.81 205.997 196.599 206.786 197.564 206.786H199.317C200.282 206.786 201.071 205.997 201.071 205.032V204.813H203.263V205.032C203.263 207.203 201.509 209 199.317 209H197.564C195.394 209 193.618 207.203 193.618 205.032V201.766C193.618 199.574 195.394 197.821 197.564 197.821H199.317C201.444 197.821 203.153 199.465 203.263 201.547ZM201.071 202.161V201.766C201.071 200.78 200.304 200.013 199.317 200.013H197.564C196.577 200.013 195.81 200.802 195.81 201.766V202.161H201.071ZM229.55 201.547V201.986V203.673V203.915H222.097V205.032C222.097 205.997 222.886 206.786 223.851 206.786H225.604C226.569 206.786 227.358 205.997 227.358 205.032V204.813H229.55V205.032C229.55 207.203 227.796 209 225.604 209H223.851C221.681 209 219.905 207.203 219.905 205.032V201.766C219.905 199.574 221.681 197.821 223.851 197.821H225.604C227.731 197.821 229.44 199.465 229.55 201.547ZM227.358 202.161V201.766C227.358 200.78 226.591 200.013 225.604 200.013H223.851C222.864 200.013 222.097 200.802 222.097 201.766V202.161H227.358ZM240.501 197.821H242.693V202.862L238.967 209H236.775L233.049 202.862V197.821H235.241V202.249L237.849 206.545H237.893L240.501 202.249V197.821ZM255.837 201.547V201.986V203.673V203.915H248.384V205.032C248.384 205.997 249.173 206.786 250.138 206.786H251.891C252.856 206.786 253.645 205.997 253.645 205.032V204.813H255.837V205.032C255.837 207.203 254.083 209 251.891 209H250.138C247.968 209 246.192 207.203 246.192 205.032V201.766C246.192 199.574 247.968 197.821 250.138 197.821H251.891C254.017 197.821 255.727 199.465 255.837 201.547ZM253.645 202.161V201.766C253.645 200.78 252.878 200.013 251.891 200.013H250.138C249.151 200.013 248.384 200.802 248.384 201.766V202.161H253.645ZM265.035 197.821C267.205 197.821 268.98 199.574 268.98 201.766V209H266.788V201.766C266.788 200.802 265.999 200.013 265.035 200.013H264.026L261.527 201.701V209H259.335V197.821H261.527V199.048L263.347 197.821H265.035ZM282.124 200.013H278.069V205.054C278.069 206.041 278.836 206.808 279.822 206.808H282.124V209H279.822C277.63 209 275.877 207.246 275.877 205.054V200.013H272.479V197.821H275.877V194.971H278.069V197.821H282.124V200.013ZM285.622 205.317H287.814V205.756C287.814 206.37 288.384 206.808 289.327 206.808H291.541C292.571 206.808 293.075 206.457 293.075 205.909C293.075 203.432 285.776 205.032 285.776 200.78C285.776 199.004 287.201 197.821 289.283 197.821H291.387C293.36 197.821 294.895 199.246 294.895 201.087V201.284H292.703V201.087C292.703 200.473 292.155 200.013 291.387 200.013H289.283C288.362 200.013 287.968 200.32 287.968 200.78C287.968 202.556 295.267 201.438 295.267 205.909C295.267 207.751 293.755 209 291.541 209H289.327C287.201 209 285.622 207.619 285.622 205.756V205.317ZM321.554 200.013H317.499V205.054C317.499 206.041 318.266 206.808 319.252 206.808H321.554V209H319.252C317.06 209 315.307 207.246 315.307 205.054V200.013H311.909V197.821H315.307V194.971H317.499V197.821H321.554V200.013ZM330.752 197.821C332.922 197.821 334.697 199.574 334.697 201.766V209H332.505V201.766C332.505 200.802 331.716 200.013 330.752 200.013H329.744L327.245 201.701V209H325.053V193.437H327.245V199.048L329.064 197.821H330.752ZM347.841 201.547V201.986V203.673V203.915H340.388V205.032C340.388 205.997 341.177 206.786 342.142 206.786H343.895C344.86 206.786 345.649 205.997 345.649 205.032V204.813H347.841V205.032C347.841 207.203 346.087 209 343.895 209H342.142C339.972 209 338.196 207.203 338.196 205.032V201.766C338.196 199.574 339.972 197.821 342.142 197.821H343.895C346.022 197.821 347.731 199.465 347.841 201.547ZM345.649 202.161V201.766C345.649 200.78 344.882 200.013 343.895 200.013H342.142C341.155 200.013 340.388 200.802 340.388 201.766V202.161H345.649ZM358.639 197.821H360.984L355.197 213.603H352.852L354.869 208.123L351.34 197.821H353.663L356.052 204.857L358.639 197.821ZM385.079 201.766C385.079 200.78 384.312 200.013 383.326 200.013H381.572C380.586 200.013 379.818 200.802 379.818 201.766V205.032C379.818 205.997 380.608 206.786 381.572 206.786H383.326C384.29 206.786 385.079 205.997 385.079 205.032V204.813H387.271V205.032C387.271 207.203 385.518 209 383.326 209H381.572C379.402 209 377.626 207.203 377.626 205.032V201.766C377.626 199.574 379.402 197.821 381.572 197.821H383.326C385.518 197.821 387.271 199.574 387.271 201.766V201.986H385.079V201.766ZM396.469 209H394.715C392.523 209 390.77 207.268 390.77 205.076V201.766C390.77 199.574 392.523 197.821 394.715 197.821H396.469C398.661 197.821 400.415 199.574 400.415 201.766V205.076C400.415 207.268 398.661 209 396.469 209ZM396.469 206.808C397.455 206.808 398.223 206.063 398.223 205.076V201.766C398.223 200.78 397.455 200.013 396.469 200.013H394.715C393.729 200.013 392.962 200.78 392.962 201.766V205.076C392.962 206.063 393.729 206.786 394.715 206.808H396.469ZM411.322 197.821C413.054 197.821 413.996 198.917 413.996 201.328V209H411.804V201.328C411.804 200.912 411.804 200.561 411.761 200.32L409.832 202.161V209H407.64V201.328C407.64 200.912 407.64 200.561 407.596 200.32L405.667 202.161V209H403.475V197.821H405.667V199.092L406.982 197.821H407.157C408.319 197.821 409.13 198.325 409.547 199.377L411.147 197.821H411.322ZM407.048 199.662H406.916H407.048ZM411.213 199.662H411.081H411.213ZM422.756 197.821C424.926 197.821 426.702 199.596 426.702 201.766V205.054C426.702 207.246 424.926 209 422.756 209H421.068L419.249 207.772V213.603H417.057V197.821H419.249V199.048L421.068 197.821H422.756ZM424.51 205.054V201.766C424.51 200.802 423.72 200.013 422.756 200.013H421.748L419.249 201.701V205.12L421.748 206.808H422.756C423.72 206.808 424.51 206.019 424.51 205.054ZM439.845 201.547V201.986V203.673V203.915H432.392V205.032C432.392 205.997 433.181 206.786 434.146 206.786H435.899C436.864 206.786 437.653 205.997 437.653 205.032V204.813H439.845V205.032C439.845 207.203 438.091 209 435.899 209H434.146C431.976 209 430.2 207.203 430.2 205.032V201.766C430.2 199.574 431.976 197.821 434.146 197.821H435.899C438.026 197.821 439.735 199.465 439.845 201.547ZM437.653 202.161V201.766C437.653 200.78 436.886 200.013 435.899 200.013H434.146C433.159 200.013 432.392 200.802 432.392 201.766V202.161H437.653ZM452.988 200.013H448.933V205.054C448.933 206.041 449.7 206.808 450.687 206.808H452.988V209H450.687C448.495 209 446.741 207.246 446.741 205.054V200.013H443.344V197.821H446.741V194.971H448.933V197.821H452.988V200.013ZM466.132 201.547V201.986V203.673V203.915H458.679V205.032C458.679 205.997 459.468 206.786 460.433 206.786H462.186C463.151 206.786 463.94 205.997 463.94 205.032V204.813H466.132V205.032C466.132 207.203 464.378 209 462.186 209H460.433C458.263 209 456.487 207.203 456.487 205.032V201.766C456.487 199.574 458.263 197.821 460.433 197.821H462.186C464.312 197.821 466.022 199.465 466.132 201.547ZM463.94 202.161V201.766C463.94 200.78 463.173 200.013 462.186 200.013H460.433C459.446 200.013 458.679 200.802 458.679 201.766V202.161H463.94ZM477.083 193.437H479.275V209H477.083V207.772L475.264 209H473.576C471.406 209 469.63 207.224 469.63 205.054V201.766C469.63 199.574 471.406 197.821 473.576 197.821H475.264L477.083 199.048V193.437ZM474.584 206.808L477.083 205.12V201.701L474.584 200.013H473.576C472.612 200.013 471.822 200.802 471.822 201.766V205.054C471.822 206.019 472.612 206.808 473.576 206.808H474.584ZM501.726 193.656V195.848H499.315V193.656H501.726ZM501.726 206.808H505.562V209H499.534H495.917V206.808H499.534V200.013H495.917V197.821H501.726V206.808ZM514.76 197.821C516.93 197.821 518.706 199.574 518.706 201.766V209H516.514V201.766C516.514 200.802 515.724 200.013 514.76 200.013H513.752L511.253 201.701V209H509.061V197.821H511.253V199.048L513.072 197.821H514.76ZM525.821 206.808H528.232V209H525.821V206.808Z" fill="#1E1E1E"/>
<path d="M41.2398 107.456C28.727 107.456 19.7202 98.0868 19.7202 84.9695C19.7202 71.8522 28.727 62.4827 41.2398 62.4827C53.7527 62.4827 62.7595 71.8522 62.7595 84.9695C62.7595 98.0868 53.7527 107.456 41.2398 107.456ZM27.2762 84.9695C27.2762 94.8831 32.8375 101.532 41.2398 101.532C49.6422 101.532 55.2034 94.8831 55.2034 84.9695C55.2034 75.056 49.6422 68.4066 41.2398 68.4066C32.8375 68.4066 27.2762 75.056 27.2762 84.9695ZM69.6964 106.731V63.2081H76.9502V100.686H100.042V106.731H69.6964ZM111.077 106.731V89.2613L94.5748 63.2081H102.796L114.765 83.1561H114.885L126.854 63.2081H134.833L118.331 89.2613V106.731H111.077ZM139.354 106.731V63.2081H151.323L162.264 96.6965H162.506L173.447 63.2081H185.416V106.731H178.524V68.5275H178.283L165.588 106.731H159.06L146.366 68.5275H146.124V106.731H139.354ZM193.899 106.731V63.2081H213.666C223.096 63.2081 229.262 68.588 229.262 76.809C229.262 85.03 223.096 90.4099 213.666 90.4099H201.153V106.731H193.899ZM201.153 84.365H213.666C218.743 84.365 221.826 81.4635 221.826 76.809C221.826 72.1544 218.743 69.2529 213.666 69.2529H201.153V84.365ZM235.635 106.731V63.2081H242.888V106.731H235.635ZM271.285 107.456C258.47 107.456 249.826 98.2077 249.826 84.9695C249.826 71.7313 258.53 62.4827 271.225 62.4827C281.199 62.4827 288.936 68.1648 291.112 77.0508L283.919 78.8642C282.649 72.3358 277.874 68.4066 271.345 68.4066C262.822 68.4066 257.382 74.9955 257.382 84.9695C257.382 94.9435 262.822 101.532 271.345 101.532C278.176 101.532 283.133 97.301 284.221 90.4099L291.354 92.1629C289.48 101.532 281.561 107.456 271.285 107.456ZM327.954 107.456C318.221 107.456 310.968 102.681 308.912 94.9435L315.924 92.7069C317.496 98.51 321.606 101.714 327.772 101.714C333.333 101.714 337.142 99.1144 337.142 95.1248C337.142 91.9815 334.784 89.624 330.492 88.7778L322.03 87.1457C313.748 85.574 310 81.2821 310 75.1769C310 67.5603 316.408 62.4827 326.08 62.4827C335.872 62.4827 342.884 67.4999 344.033 75.3582L336.779 76.9299C336.175 71.5499 332.125 68.2253 326.08 68.2253C321.002 68.2253 317.254 70.5828 317.254 74.5119C317.254 77.6552 319.672 79.7105 323.964 80.5568L332.427 82.1889C340.648 83.7605 344.396 88.1733 344.396 94.3995C344.396 102.197 337.867 107.456 327.954 107.456ZM361.922 106.731V69.2529H347.415V63.2081H383.684V69.2529H369.176V106.731H361.922ZM379.757 106.731L396.501 63.2081H405.327L422.071 106.731H414.273L410.223 95.6084H391.242L387.192 106.731H379.757ZM393.358 89.8054H408.107L400.793 69.6156H400.672L393.358 89.8054ZM426.602 106.731V63.2081H438.571L449.512 96.6965H449.754L460.695 63.2081H472.664V106.731H465.773V68.5275H465.531L452.837 106.731H446.308L433.614 68.5275H433.372V106.731H426.602ZM481.147 106.731V63.2081H500.914C510.344 63.2081 516.51 68.588 516.51 76.809C516.51 85.03 510.344 90.4099 500.914 90.4099H488.401V106.731H481.147ZM488.401 84.365H500.914C505.992 84.365 509.075 81.4635 509.075 76.809C509.075 72.1544 505.992 69.2529 500.914 69.2529H488.401V84.365ZM539.641 107.456C529.909 107.456 522.655 102.681 520.6 94.9435L527.612 92.7069C529.184 98.51 533.294 101.714 539.46 101.714C545.021 101.714 548.829 99.1144 548.829 95.1248C548.829 91.9815 546.472 89.624 542.18 88.7778L533.717 87.1457C525.436 85.574 521.688 81.2821 521.688 75.1769C521.688 67.5603 528.096 62.4827 537.767 62.4827C547.56 62.4827 554.572 67.4999 555.721 75.3582L548.467 76.9299C547.862 71.5499 543.812 68.2253 537.767 68.2253C532.69 68.2253 528.942 70.5828 528.942 74.5119C528.942 77.6552 531.36 79.7105 535.652 80.5568L544.114 82.1889C552.335 83.7605 556.083 88.1733 556.083 94.3995C556.083 102.197 549.555 107.456 539.641 107.456Z" fill="#1E1E1E"/>
</svg>
