<svg width="605" height="260" viewBox="0 0 605 260" fill="none" xmlns="http://www.w3.org/2000/svg">
<rect x="10" y="9" width="582" height="240" stroke="#1E1E1E" stroke-width="2"/>
<line x1="9" y1="54" x2="593" y2="54" stroke="#1E1E1E" stroke-width="2"/>
<line x1="9" y1="114" x2="593" y2="114" stroke="#1E1E1E" stroke-width="2"/>
<path d="M28.7257 28.018V26.4824C28.7257 25.2261 27.7486 24.249 26.4922 24.249H24.2588C23.0024 24.249 22.0253 25.254 22.0253 26.4824V35.9468C22.0253 37.1752 23.0304 38.1802 24.2588 38.1802H26.4922C27.7207 38.1802 28.7257 37.1752 28.7257 35.9468V34.4113H31.5176V35.9468C31.5176 38.7107 29.2841 41 26.4922 41H24.2588C21.4949 41 19.2335 38.7107 19.2335 35.9468V26.4824C19.2335 23.6906 21.4949 21.4571 24.2588 21.4571H26.4922C29.2841 21.4571 31.5176 23.6906 31.5176 26.4824V28.018H28.7257ZM45.4658 21.4571H48.2577V32.0661V41H45.4658V32.0661H38.7654V41H35.9736V29.2743V21.4571H38.7654V29.2743H45.4658V21.4571ZM60.2517 21.4571L64.9978 34.5788V41H62.2059V36.4772H55.5055V41H52.7137V34.5788L57.4598 21.4571H60.2517ZM58.8278 25.8682L56.0081 33.6854H61.7034L58.8837 25.8682H58.8278ZM78.9461 21.4571H81.7379V41H77.6897L72.2457 26.1474V41H69.4538V21.4571H73.502L78.9461 36.3097V21.4571ZM98.478 28.018H95.6862V26.4824C95.6862 25.2261 94.709 24.249 93.4527 24.249H91.2192C89.9629 24.249 88.9858 25.254 88.9858 26.4824V35.9468C88.9858 37.1752 89.9908 38.1802 91.2192 38.1802H93.4527C94.6811 38.1802 95.6862 37.1752 95.6862 35.9468V34.4113V33.2666H91.4984V30.4748H98.478V34.4113V35.9468C98.478 38.7107 96.2445 41 93.4527 41H91.2192C88.4553 41 86.1939 38.7107 86.1939 35.9468V26.4824C86.1939 23.6906 88.4553 21.4571 91.2192 21.4571H93.4527C96.2445 21.4571 98.478 23.6906 98.478 26.4824V28.018ZM115.218 24.249H110.472V38.2082H115.218V41H107.68H102.934V38.2082H107.68V24.249H102.934V21.4571H110.472H115.218V24.249ZM129.166 21.4571H131.958V41H127.91L122.466 26.1474V41H119.674V21.4571H123.722L129.166 36.3097V21.4571ZM148.698 28.018H145.907V26.4824C145.907 25.2261 144.929 24.249 143.673 24.249H141.44C140.183 24.249 139.206 25.254 139.206 26.4824V35.9468C139.206 37.1752 140.211 38.1802 141.44 38.1802H143.673C144.901 38.1802 145.907 37.1752 145.907 35.9468V34.4113V33.2666H141.719V30.4748H148.698V34.4113V35.9468C148.698 38.7107 146.465 41 143.673 41H141.44C138.676 41 136.414 38.7107 136.414 35.9468V26.4824C136.414 23.6906 138.676 21.4571 141.44 21.4571H143.673C146.465 21.4571 148.698 23.6906 148.698 26.4824V28.018ZM169.895 34.6904H172.686V35.8072C172.686 37.1193 173.775 38.2082 175.087 38.2082H176.958C178.382 38.2082 179.387 37.3148 179.387 36.0864C179.387 32.2336 170.174 31.3961 170.174 26.0916C170.174 23.3556 172.323 21.4571 175.367 21.4571H176.679C179.554 21.4571 181.899 23.7744 181.899 26.65V27.4875H179.108V26.65C179.108 25.3099 178.019 24.249 176.679 24.249H175.367C173.859 24.249 172.966 24.9469 172.966 26.0916C172.966 29.0509 182.179 30.1956 182.179 36.0864C182.179 38.8782 179.917 41 176.958 41H175.087C172.212 41 169.895 38.6828 169.895 35.8072V34.6904ZM198.919 21.4571V24.249H194.173V41H191.381V24.249H186.635V21.4571H194.173H198.919ZM210.913 21.4571L215.659 34.5788V41H212.867V36.4772H206.167V41H203.375V34.5788L208.121 21.4571H210.913ZM209.489 25.8682L206.669 33.6854H212.364L209.545 25.8682H209.489ZM232.399 21.4571V24.249H227.653V41H224.861V24.249H220.115V21.4571H227.653H232.399ZM249.139 24.249H239.647V29.358H248.022V32.1499H239.647V38.2082H249.139V41H236.855V32.1499V24.249V21.4571H249.139V24.249ZM253.595 34.6904H256.387V35.8072C256.387 37.1193 257.476 38.2082 258.788 38.2082H260.658C262.082 38.2082 263.087 37.3148 263.087 36.0864C263.087 32.2336 253.874 31.3961 253.874 26.0916C253.874 23.3556 256.024 21.4571 259.067 21.4571H260.379C263.255 21.4571 265.6 23.7744 265.6 26.65V27.4875H262.808V26.65C262.808 25.3099 261.719 24.249 260.379 24.249H259.067C257.56 24.249 256.666 24.9469 256.666 26.0916C256.666 29.0509 265.879 30.1956 265.879 36.0864C265.879 38.8782 263.618 41 260.658 41H258.788C255.912 41 253.595 38.6828 253.595 35.8072V34.6904Z" fill="#1E1E1E"/>
<path d="M31.3984 145.848H23.9456V150.517H30.5216V152.709H23.9456V159H21.7536V150.517V143.656H31.3984V145.848ZM40.5962 159H38.8426C36.6506 159 34.897 157.268 34.897 155.076V151.766C34.897 149.574 36.6506 147.821 38.8426 147.821H40.5962C42.7882 147.821 44.5418 149.574 44.5418 151.766V155.076C44.5418 157.268 42.7882 159 40.5962 159ZM40.5962 156.808C41.5826 156.808 42.3498 156.063 42.3498 155.076V151.766C42.3498 150.78 41.5826 150.013 40.5962 150.013H38.8426C37.8562 150.013 37.089 150.78 37.089 151.766V155.076C37.089 156.063 37.8562 156.786 38.8426 156.808H40.5962ZM53.7397 147.821C55.9098 147.821 57.6853 149.574 57.6853 151.766V152.643H55.4933V151.766C55.4933 150.802 54.7042 150.013 53.7397 150.013H53.5205L50.2325 152.227V159H48.0405V147.821H50.2325V149.574L52.841 147.821H53.7397ZM68.6367 147.821H70.8287V159.636C70.8287 161.806 69.0751 163.603 66.8831 163.603H65.1295C62.9594 163.603 61.1839 161.806 61.1839 159.636H63.3759C63.3759 160.6 64.165 161.389 65.1295 161.389H66.8831C67.8476 161.389 68.6367 160.6 68.6367 159.636V157.772L66.8174 159H65.1295C62.9594 159 61.1839 157.224 61.1839 155.054V151.766C61.1839 149.574 62.9594 147.821 65.1295 147.821H66.8174L68.6367 149.048V147.821ZM66.1378 156.808L68.6367 155.12V151.701L66.1378 150.013H65.1295C64.165 150.013 63.3759 150.802 63.3759 151.766V155.054C63.3759 156.019 64.165 156.808 65.1295 156.808H66.1378ZM83.9722 151.547V151.986V153.673V153.915H76.5193V155.032C76.5193 155.997 77.3085 156.786 78.273 156.786H80.0265C80.991 156.786 81.7801 155.997 81.7801 155.032V154.813H83.9722V155.032C83.9722 157.203 82.2186 159 80.0265 159H78.273C76.1029 159 74.3273 157.203 74.3273 155.032V151.766C74.3273 149.574 76.1029 147.821 78.273 147.821H80.0265C82.1528 147.821 83.8626 149.465 83.9722 151.547ZM81.7801 152.161V151.766C81.7801 150.78 81.013 150.013 80.0265 150.013H78.273C77.2865 150.013 76.5193 150.802 76.5193 151.766V152.161H81.7801ZM97.1156 150.013H93.0604V155.054C93.0604 156.041 93.8276 156.808 94.814 156.808H97.1156V159H94.814C92.622 159 90.8684 157.246 90.8684 155.054V150.013H87.4708V147.821H90.8684V144.971H93.0604V147.821H97.1156V150.013ZM123.402 150.013H119.347V155.054C119.347 156.041 120.114 156.808 121.101 156.808H123.402V159H121.101C118.909 159 117.155 157.246 117.155 155.054V150.013H113.758V147.821H117.155V144.971H119.347V147.821H123.402V150.013ZM132.6 147.821C134.77 147.821 136.546 149.574 136.546 151.766V159H134.354V151.766C134.354 150.802 133.565 150.013 132.6 150.013H131.592L129.093 151.701V159H126.901V143.437H129.093V149.048L130.912 147.821H132.6ZM149.689 151.547V151.986V153.673V153.915H142.237V155.032C142.237 155.997 143.026 156.786 143.99 156.786H145.744C146.708 156.786 147.497 155.997 147.497 155.032V154.813H149.689V155.032C149.689 157.203 147.936 159 145.744 159H143.99C141.82 159 140.045 157.203 140.045 155.032V151.766C140.045 149.574 141.82 147.821 143.99 147.821H145.744C147.87 147.821 149.58 149.465 149.689 151.547ZM147.497 152.161V151.766C147.497 150.78 146.73 150.013 145.744 150.013H143.99C143.004 150.013 142.237 150.802 142.237 151.766V152.161H147.497ZM172.031 147.821C174.201 147.821 175.976 149.574 175.976 151.766V159H173.784V151.766C173.784 150.802 172.995 150.013 172.031 150.013H171.022L168.523 151.701V159H166.331V143.437H168.523V149.048L170.343 147.821H172.031ZM185.284 143.656V145.848H182.872V143.656H185.284ZM185.284 156.808H189.12V159H183.092H179.475V156.808H183.092V150.013H179.475V147.821H185.284V156.808ZM198.317 147.821C200.488 147.821 202.263 149.574 202.263 151.766V159H200.071V151.766C200.071 150.802 199.282 150.013 198.317 150.013H197.309L194.81 151.701V159H192.618V147.821H194.81V149.048L196.63 147.821H198.317ZM215.407 150.013H211.351V155.054C211.351 156.041 212.119 156.808 213.105 156.808H215.407V159H213.105C210.913 159 209.159 157.246 209.159 155.054V150.013H205.762V147.821H209.159V144.971H211.351V147.821H215.407V150.013ZM224.714 143.656V145.848H222.303V143.656H224.714ZM224.714 156.808H228.55V159H222.522H218.905V156.808H222.522V150.013H218.905V147.821H224.714V156.808ZM237.748 147.821C239.918 147.821 241.693 149.574 241.693 151.766V159H239.501V151.766C239.501 150.802 238.712 150.013 237.748 150.013H236.739L234.241 151.701V159H232.049V147.821H234.241V149.048L236.06 147.821H237.748ZM252.645 147.821H254.837V159.636C254.837 161.806 253.083 163.603 250.891 163.603H249.138C246.968 163.603 245.192 161.806 245.192 159.636H247.384C247.384 160.6 248.173 161.389 249.138 161.389H250.891C251.856 161.389 252.645 160.6 252.645 159.636V157.772L250.825 159H249.138C246.968 159 245.192 157.224 245.192 155.054V151.766C245.192 149.574 246.968 147.821 249.138 147.821H250.825L252.645 149.048V147.821ZM250.146 156.808L252.645 155.12V151.701L250.146 150.013H249.138C248.173 150.013 247.384 150.802 247.384 151.766V155.054C247.384 156.019 248.173 156.808 249.138 156.808H250.146ZM277.178 159H275.425C273.233 159 271.479 157.268 271.479 155.076V151.766C271.479 149.574 273.233 147.821 275.425 147.821H277.178C279.37 147.821 281.124 149.574 281.124 151.766V155.076C281.124 157.268 279.37 159 277.178 159ZM277.178 156.808C278.165 156.808 278.932 156.063 278.932 155.076V151.766C278.932 150.78 278.165 150.013 277.178 150.013H275.425C274.438 150.013 273.671 150.78 273.671 151.766V155.076C273.671 156.063 274.438 156.786 275.425 156.808H277.178ZM290.322 147.821C292.492 147.821 294.267 149.574 294.267 151.766V152.643H292.075V151.766C292.075 150.802 291.286 150.013 290.322 150.013H290.102L286.814 152.227V159H284.622V147.821H286.814V149.574L289.423 147.821H290.322ZM320.554 150.013H316.499V155.054C316.499 156.041 317.266 156.808 318.252 156.808H320.554V159H318.252C316.06 159 314.307 157.246 314.307 155.054V150.013H310.909V147.821H314.307V144.971H316.499V147.821H320.554V150.013ZM329.752 147.821C331.922 147.821 333.697 149.574 333.697 151.766V159H331.505V151.766C331.505 150.802 330.716 150.013 329.752 150.013H328.744L326.245 151.701V159H324.053V143.437H326.245V149.048L328.064 147.821H329.752ZM346.841 151.547V151.986V153.673V153.915H339.388V155.032C339.388 155.997 340.177 156.786 341.142 156.786H342.895C343.86 156.786 344.649 155.997 344.649 155.032V154.813H346.841V155.032C346.841 157.203 345.087 159 342.895 159H341.142C338.972 159 337.196 157.203 337.196 155.032V151.766C337.196 149.574 338.972 147.821 341.142 147.821H342.895C345.022 147.821 346.731 149.465 346.841 151.547ZM344.649 152.161V151.766C344.649 150.78 343.882 150.013 342.895 150.013H341.142C340.155 150.013 339.388 150.802 339.388 151.766V152.161H344.649ZM370.936 147.821H373.128V159H370.936V157.772L369.116 159H367.429C365.258 159 363.483 157.224 363.483 155.054V151.766C363.483 149.574 365.258 147.821 367.429 147.821H369.116L370.936 149.048V147.821ZM368.437 156.808L370.936 155.12V151.701L368.437 150.013H367.429C366.464 150.013 365.675 150.802 365.675 151.766V155.054C365.675 156.019 366.464 156.808 367.429 156.808H368.437ZM382.326 147.821C384.496 147.821 386.271 149.574 386.271 151.766V159H384.079V151.766C384.079 150.802 383.29 150.013 382.326 150.013H381.317L378.818 151.701V159H376.626V147.821H378.818V149.048L380.638 147.821H382.326ZM399.415 150.013H395.359V155.054C395.359 156.041 396.127 156.808 397.113 156.808H399.415V159H397.113C394.921 159 393.167 157.246 393.167 155.054V150.013H389.77V147.821H393.167V144.971H395.359V147.821H399.415V150.013ZM408.722 143.656V145.848H406.311V143.656H408.722ZM408.722 156.808H412.558V159H406.53H402.913V156.808H406.53V150.013H402.913V147.821H408.722V156.808ZM423.51 147.821H425.702V159H423.51V157.772L421.69 159H420.002C417.832 159 416.057 157.224 416.057 155.054V151.766C416.057 149.574 417.832 147.821 420.002 147.821H421.69L423.51 149.048V147.821ZM421.011 156.808L423.51 155.12V151.701L421.011 150.013H420.002C419.038 150.013 418.249 150.802 418.249 151.766V155.054C418.249 156.019 419.038 156.808 420.002 156.808H421.011ZM435.009 156.808H438.845V159H432.817H429.2V156.808H432.817V145.629H429.2V143.437H435.009V156.808ZM448.152 143.656V145.848H445.741V143.656H448.152ZM448.152 156.808H451.988V159H445.96H442.344V156.808H445.96V150.013H442.344V147.821H448.152V156.808ZM462.94 147.821H465.132V159H462.94V157.772L461.12 159H459.433C457.263 159 455.487 157.224 455.487 155.054V151.766C455.487 149.574 457.263 147.821 459.433 147.821H461.12L462.94 149.048V147.821ZM460.441 156.808L462.94 155.12V151.701L460.441 150.013H459.433C458.468 150.013 457.679 150.802 457.679 151.766V155.054C457.679 156.019 458.468 156.808 459.433 156.808H460.441ZM468.63 155.317H470.822V155.756C470.822 156.37 471.392 156.808 472.335 156.808H474.549C475.579 156.808 476.083 156.457 476.083 155.909C476.083 153.432 468.784 155.032 468.784 150.78C468.784 149.004 470.209 147.821 472.291 147.821H474.395C476.368 147.821 477.903 149.246 477.903 151.087V151.284H475.711V151.087C475.711 150.473 475.163 150.013 474.395 150.013H472.291C471.37 150.013 470.976 150.32 470.976 150.78C470.976 152.556 478.275 151.438 478.275 155.909C478.275 157.751 476.763 159 474.549 159H472.335C470.209 159 468.63 157.619 468.63 155.756V155.317ZM487.583 143.656V145.848H485.171V143.656H487.583ZM487.583 156.808H491.419V159H485.391H481.774V156.808H485.391V150.013H481.774V147.821H487.583V156.808ZM500.617 147.821C502.787 147.821 504.562 149.574 504.562 151.766V159H502.37V151.766C502.37 150.802 501.581 150.013 500.617 150.013H499.608L497.109 151.701V159H494.917V147.821H497.109V149.048L498.929 147.821H500.617ZM515.514 147.821H517.706V159.636C517.706 161.806 515.952 163.603 513.76 163.603H512.006C509.836 163.603 508.061 161.806 508.061 159.636H510.253C510.253 160.6 511.042 161.389 512.006 161.389H513.76C514.724 161.389 515.514 160.6 515.514 159.636V157.772L513.694 159H512.006C509.836 159 508.061 157.224 508.061 155.054V151.766C508.061 149.574 509.836 147.821 512.006 147.821H513.694L515.514 149.048V147.821ZM513.015 156.808L515.514 155.12V151.701L513.015 150.013H512.006C511.042 150.013 510.253 150.802 510.253 151.766V155.054C510.253 156.019 511.042 156.808 512.006 156.808H513.015ZM524.887 161.411H523.922L525.501 156.808H527.693L527.166 158.408L524.887 161.411ZM27.5624 182.808H31.3984V185H25.3704H21.7536V182.808H25.3704V171.629H21.7536V169.437H27.5624V182.808ZM44.5418 177.547V177.986V179.673V179.915H37.089V181.032C37.089 181.997 37.8782 182.786 38.8426 182.786H40.5962C41.5607 182.786 42.3498 181.997 42.3498 181.032V180.813H44.5418V181.032C44.5418 183.203 42.7882 185 40.5962 185H38.8426C36.6726 185 34.897 183.203 34.897 181.032V177.766C34.897 175.574 36.6726 173.821 38.8426 173.821H40.5962C42.7225 173.821 44.4322 175.465 44.5418 177.547ZM42.3498 178.161V177.766C42.3498 176.78 41.5826 176.013 40.5962 176.013H38.8426C37.8562 176.013 37.089 176.802 37.089 177.766V178.161H42.3498ZM57.6853 176.013H53.6301V181.054C53.6301 182.041 54.3973 182.808 55.3837 182.808H57.6853V185H55.3837C53.1917 185 51.4381 183.246 51.4381 181.054V176.013H48.0405V173.821H51.4381V170.971H53.6301V173.821H57.6853V176.013ZM64.8665 174.04H63.902L65.4802 169.437H67.6722L67.1462 171.037L64.8665 174.04ZM74.3273 181.317H76.5193V181.756C76.5193 182.37 77.0893 182.808 78.0318 182.808H80.2458C81.276 182.808 81.7801 182.457 81.7801 181.909C81.7801 179.432 74.4808 181.032 74.4808 176.78C74.4808 175.004 75.9056 173.821 77.988 173.821H80.0923C82.0651 173.821 83.5995 175.246 83.5995 177.087V177.284H81.4075V177.087C81.4075 176.473 80.8595 176.013 80.0923 176.013H77.988C77.0673 176.013 76.6728 176.32 76.6728 176.78C76.6728 178.556 83.9722 177.438 83.9722 181.909C83.9722 183.751 82.4597 185 80.2458 185H78.0318C75.9056 185 74.3273 183.619 74.3273 181.756V181.317ZM110.259 176.013H106.204V181.054C106.204 182.041 106.971 182.808 107.957 182.808H110.259V185H107.957C105.765 185 104.012 183.246 104.012 181.054V176.013H100.614V173.821H104.012V170.971H106.204V173.821H110.259V176.013ZM121.21 173.821H123.402V185H121.21V183.772L119.391 185H117.703C115.533 185 113.758 183.224 113.758 181.054V177.766C113.758 175.574 115.533 173.821 117.703 173.821H119.391L121.21 175.048V173.821ZM118.712 182.808L121.21 181.12V177.701L118.712 176.013H117.703C116.739 176.013 115.95 176.802 115.95 177.766V181.054C115.95 182.019 116.739 182.808 117.703 182.808H118.712ZM136.546 173.821L133.039 179.41L136.546 185H133.959L131.132 180.506H129.093V185H126.901V169.437H129.093V178.314H131.132L133.959 173.821H136.546ZM149.689 177.547V177.986V179.673V179.915H142.237V181.032C142.237 181.997 143.026 182.786 143.99 182.786H145.744C146.708 182.786 147.497 181.997 147.497 181.032V180.813H149.689V181.032C149.689 183.203 147.936 185 145.744 185H143.99C141.82 185 140.045 183.203 140.045 181.032V177.766C140.045 175.574 141.82 173.821 143.99 173.821H145.744C147.87 173.821 149.58 175.465 149.689 177.547ZM147.497 178.161V177.766C147.497 176.78 146.73 176.013 145.744 176.013H143.99C143.004 176.013 142.237 176.802 142.237 177.766V178.161H147.497ZM173.784 173.821H175.976V185H173.784V183.772L171.965 185H170.277C168.107 185 166.331 183.224 166.331 181.054V177.766C166.331 175.574 168.107 173.821 170.277 173.821H171.965L173.784 175.048V173.821ZM171.285 182.808L173.784 181.12V177.701L171.285 176.013H170.277C169.313 176.013 168.523 176.802 168.523 177.766V181.054C168.523 182.019 169.313 182.808 170.277 182.808H171.285ZM198.427 182.808H202.263V185H196.235H192.618V182.808H196.235V171.629H192.618V169.437H198.427V182.808ZM211.461 185H209.707C207.515 185 205.762 183.268 205.762 181.076V177.766C205.762 175.574 207.515 173.821 209.707 173.821H211.461C213.653 173.821 215.407 175.574 215.407 177.766V181.076C215.407 183.268 213.653 185 211.461 185ZM211.461 182.808C212.447 182.808 213.215 182.063 213.215 181.076V177.766C213.215 176.78 212.447 176.013 211.461 176.013H209.707C208.721 176.013 207.954 176.78 207.954 177.766V181.076C207.954 182.063 208.721 182.786 209.707 182.808H211.461ZM224.604 185H222.851C220.659 185 218.905 183.268 218.905 181.076V177.766C218.905 175.574 220.659 173.821 222.851 173.821H224.604C226.796 173.821 228.55 175.574 228.55 177.766V181.076C228.55 183.268 226.796 185 224.604 185ZM224.604 182.808C225.591 182.808 226.358 182.063 226.358 181.076V177.766C226.358 176.78 225.591 176.013 224.604 176.013H222.851C221.864 176.013 221.097 176.78 221.097 177.766V181.076C221.097 182.063 221.864 182.786 222.851 182.808H224.604ZM241.693 173.821L238.186 179.41L241.693 185H239.107L236.279 180.506H234.241V185H232.049V169.437H234.241V178.314H236.279L239.107 173.821H241.693ZM265.788 173.821H267.98V185H265.788V183.772L263.969 185H262.281C260.111 185 258.335 183.224 258.335 181.054V177.766C258.335 175.574 260.111 173.821 262.281 173.821H263.969L265.788 175.048V173.821ZM263.289 182.808L265.788 181.12V177.701L263.289 176.013H262.281C261.317 176.013 260.527 176.802 260.527 177.766V181.054C260.527 182.019 261.317 182.808 262.281 182.808H263.289ZM281.124 176.013H277.069V181.054C277.069 182.041 277.836 182.808 278.822 182.808H281.124V185H278.822C276.63 185 274.877 183.246 274.877 181.054V176.013H271.479V173.821H274.877V170.971H277.069V173.821H281.124V176.013ZM297.766 181.317H299.958V181.756C299.958 182.37 300.528 182.808 301.47 182.808H303.684C304.714 182.808 305.219 182.457 305.219 181.909C305.219 179.432 297.919 181.032 297.919 176.78C297.919 175.004 299.344 173.821 301.426 173.821H303.531C305.504 173.821 307.038 175.246 307.038 177.087V177.284H304.846V177.087C304.846 176.473 304.298 176.013 303.531 176.013H301.426C300.506 176.013 300.111 176.32 300.111 176.78C300.111 178.556 307.411 177.438 307.411 181.909C307.411 183.751 305.898 185 303.684 185H301.47C299.344 185 297.766 183.619 297.766 181.756V181.317ZM316.608 185H314.855C312.663 185 310.909 183.268 310.909 181.076V177.766C310.909 175.574 312.663 173.821 314.855 173.821H316.608C318.8 173.821 320.554 175.574 320.554 177.766V181.076C320.554 183.268 318.8 185 316.608 185ZM316.608 182.808C317.595 182.808 318.362 182.063 318.362 181.076V177.766C318.362 176.78 317.595 176.013 316.608 176.013H314.855C313.868 176.013 313.101 176.78 313.101 177.766V181.076C313.101 182.063 313.868 182.786 314.855 182.808H316.608ZM331.462 173.821C333.193 173.821 334.136 174.917 334.136 177.328V185H331.944V177.328C331.944 176.912 331.944 176.561 331.9 176.32L329.971 178.161V185H327.779V177.328C327.779 176.912 327.779 176.561 327.735 176.32L325.806 178.161V185H323.614V173.821H325.806V175.092L327.121 173.821H327.297C328.459 173.821 329.27 174.325 329.686 175.377L331.286 173.821H331.462ZM327.187 175.662H327.056H327.187ZM331.352 175.662H331.221H331.352ZM346.841 177.547V177.986V179.673V179.915H339.388V181.032C339.388 181.997 340.177 182.786 341.142 182.786H342.895C343.86 182.786 344.649 181.997 344.649 181.032V180.813H346.841V181.032C346.841 183.203 345.087 185 342.895 185H341.142C338.972 185 337.196 183.203 337.196 181.032V177.766C337.196 175.574 338.972 173.821 341.142 173.821H342.895C345.022 173.821 346.731 175.465 346.841 177.547ZM344.649 178.161V177.766C344.649 176.78 343.882 176.013 342.895 176.013H341.142C340.155 176.013 339.388 176.802 339.388 177.766V178.161H344.649ZM369.182 173.821C371.352 173.821 373.128 175.574 373.128 177.766V178.643H370.936V177.766C370.936 176.802 370.147 176.013 369.182 176.013H368.963L365.675 178.227V185H363.483V173.821H365.675V175.574L368.283 173.821H369.182ZM386.271 177.547V177.986V179.673V179.915H378.818V181.032C378.818 181.997 379.608 182.786 380.572 182.786H382.326C383.29 182.786 384.079 181.997 384.079 181.032V180.813H386.271V181.032C386.271 183.203 384.518 185 382.326 185H380.572C378.402 185 376.626 183.203 376.626 181.032V177.766C376.626 175.574 378.402 173.821 380.572 173.821H382.326C384.452 173.821 386.162 175.465 386.271 177.547ZM384.079 178.161V177.766C384.079 176.78 383.312 176.013 382.326 176.013H380.572C379.586 176.013 378.818 176.802 378.818 177.766V178.161H384.079ZM397.223 173.821H399.415V185H397.223V183.772L395.403 185H393.715C391.545 185 389.77 183.224 389.77 181.054V177.766C389.77 175.574 391.545 173.821 393.715 173.821H395.403L397.223 175.048V173.821ZM394.724 182.808L397.223 181.12V177.701L394.724 176.013H393.715C392.751 176.013 391.962 176.802 391.962 177.766V181.054C391.962 182.019 392.751 182.808 393.715 182.808H394.724ZM408.722 182.808H412.558V185H406.53H402.913V182.808H406.53V171.629H402.913V169.437H408.722V182.808ZM434.899 173.821C437.069 173.821 438.845 175.596 438.845 177.766V181.054C438.845 183.246 437.069 185 434.899 185H433.212L431.392 183.772V189.603H429.2V173.821H431.392V175.048L433.212 173.821H434.899ZM436.653 181.054V177.766C436.653 176.802 435.864 176.013 434.899 176.013H433.891L431.392 177.701V181.12L433.891 182.808H434.899C435.864 182.808 436.653 182.019 436.653 181.054ZM448.152 169.656V171.848H445.741V169.656H448.152ZM448.152 182.808H451.988V185H445.96H442.344V182.808H445.96V176.013H442.344V173.821H448.152V182.808ZM465.132 173.821L461.603 179.41L465.132 185H462.545L460.309 181.449L458.074 185H455.487L459.016 179.41L455.487 173.821H458.074L460.309 177.372L462.545 173.821H465.132ZM478.275 177.547V177.986V179.673V179.915H470.822V181.032C470.822 181.997 471.612 182.786 472.576 182.786H474.33C475.294 182.786 476.083 181.997 476.083 181.032V180.813H478.275V181.032C478.275 183.203 476.522 185 474.33 185H472.576C470.406 185 468.63 183.203 468.63 181.032V177.766C468.63 175.574 470.406 173.821 472.576 173.821H474.33C476.456 173.821 478.166 175.465 478.275 177.547ZM476.083 178.161V177.766C476.083 176.78 475.316 176.013 474.33 176.013H472.576C471.59 176.013 470.822 176.802 470.822 177.766V178.161H476.083ZM487.583 182.808H491.419V185H485.391H481.774V182.808H485.391V171.629H481.774V169.437H487.583V182.808ZM494.917 181.317H497.109V181.756C497.109 182.37 497.679 182.808 498.622 182.808H500.836C501.866 182.808 502.37 182.457 502.37 181.909C502.37 179.432 495.071 181.032 495.071 176.78C495.071 175.004 496.496 173.821 498.578 173.821H500.682C502.655 173.821 504.19 175.246 504.19 177.087V177.284H501.998V177.087C501.998 176.473 501.45 176.013 500.682 176.013H498.578C497.657 176.013 497.263 176.32 497.263 176.78C497.263 178.556 504.562 177.438 504.562 181.909C504.562 183.751 503.05 185 500.836 185H498.622C496.496 185 494.917 183.619 494.917 181.756V181.317ZM511.787 169.656H513.979V177.723L513.541 180.112H512.226L511.787 177.723V169.656ZM511.678 182.808H514.089V185H511.678V182.808ZM31.3984 197.848H23.9456V201.859H30.5216V204.051H23.9456V208.808H31.3984V211H21.7536V204.051V197.848V195.656H31.3984V197.848ZM40.5962 199.821C42.7663 199.821 44.5418 201.574 44.5418 203.766V211H42.3498V203.766C42.3498 202.802 41.5607 202.013 40.5962 202.013H39.5879L37.089 203.701V211H34.897V199.821H37.089V201.048L38.9084 199.821H40.5962ZM55.2741 195.656H57.6853V197.848H55.2741V195.656ZM50.7805 199.821H57.6853V211.636C57.6853 213.806 55.9098 215.603 53.7397 215.603H51.9861C49.7941 215.603 48.0405 213.806 48.0405 211.636V211H50.2325V211.636C50.2325 212.6 51.0216 213.389 51.9861 213.389H53.7397C54.7042 213.389 55.4933 212.6 55.4933 211.636V202.013H50.7805V199.821ZM66.8831 211H65.1295C62.9375 211 61.1839 209.268 61.1839 207.076V203.766C61.1839 201.574 62.9375 199.821 65.1295 199.821H66.8831C69.0751 199.821 70.8287 201.574 70.8287 203.766V207.076C70.8287 209.268 69.0751 211 66.8831 211ZM66.8831 208.808C67.8695 208.808 68.6367 208.063 68.6367 207.076V203.766C68.6367 202.78 67.8695 202.013 66.8831 202.013H65.1295C64.1431 202.013 63.3759 202.78 63.3759 203.766V207.076C63.3759 208.063 64.1431 208.786 65.1295 208.808H66.8831ZM81.6267 199.821H83.9722L78.1853 215.603H75.8398L77.8565 210.123L74.3273 199.821H76.6509L79.0401 206.857L81.6267 199.821ZM110.259 202.013H106.204V207.054C106.204 208.041 106.971 208.808 107.957 208.808H110.259V211H107.957C105.765 211 104.012 209.246 104.012 207.054V202.013H100.614V199.821H104.012V196.971H106.204V199.821H110.259V202.013ZM119.457 199.821C121.627 199.821 123.402 201.574 123.402 203.766V211H121.21V203.766C121.21 202.802 120.421 202.013 119.457 202.013H118.449L115.95 203.701V211H113.758V195.437H115.95V201.048L117.769 199.821H119.457ZM136.546 203.547V203.986V205.673V205.915H129.093V207.032C129.093 207.997 129.882 208.786 130.847 208.786H132.6C133.565 208.786 134.354 207.997 134.354 207.032V206.813H136.546V207.032C136.546 209.203 134.792 211 132.6 211H130.847C128.677 211 126.901 209.203 126.901 207.032V203.766C126.901 201.574 128.677 199.821 130.847 199.821H132.6C134.727 199.821 136.436 201.465 136.546 203.547ZM134.354 204.161V203.766C134.354 202.78 133.587 202.013 132.6 202.013H130.847C129.86 202.013 129.093 202.802 129.093 203.766V204.161H134.354ZM160.641 199.821H162.833V211.636C162.833 213.806 161.079 215.603 158.887 215.603H157.134C154.963 215.603 153.188 213.806 153.188 211.636H155.38C155.38 212.6 156.169 213.389 157.134 213.389H158.887C159.852 213.389 160.641 212.6 160.641 211.636V209.772L158.821 211H157.134C154.963 211 153.188 209.224 153.188 207.054V203.766C153.188 201.574 154.963 199.821 157.134 199.821H158.821L160.641 201.048V199.821ZM158.142 208.808L160.641 207.12V203.701L158.142 202.013H157.134C156.169 202.013 155.38 202.802 155.38 203.766V207.054C155.38 208.019 156.169 208.808 157.134 208.808H158.142ZM172.14 208.808H175.976V211H169.948H166.331V208.808H169.948V197.629H166.331V195.437H172.14V208.808ZM185.284 195.656V197.848H182.872V195.656H185.284ZM185.284 208.808H189.12V211H183.092H179.475V208.808H183.092V202.013H179.475V199.821H185.284V208.808ZM202.263 202.013H198.208V207.054C198.208 208.041 198.975 208.808 199.961 208.808H202.263V211H199.961C197.769 211 196.016 209.246 196.016 207.054V202.013H192.618V199.821H196.016V196.971H198.208V199.821H202.263V202.013ZM213.215 203.766C213.215 202.78 212.447 202.013 211.461 202.013H209.707C208.721 202.013 207.954 202.802 207.954 203.766V207.032C207.954 207.997 208.743 208.786 209.707 208.786H211.461C212.425 208.786 213.215 207.997 213.215 207.032V206.813H215.407V207.032C215.407 209.203 213.653 211 211.461 211H209.707C207.537 211 205.762 209.203 205.762 207.032V203.766C205.762 201.574 207.537 199.821 209.707 199.821H211.461C213.653 199.821 215.407 201.574 215.407 203.766V203.986H213.215V203.766ZM224.604 199.821C226.774 199.821 228.55 201.574 228.55 203.766V211H226.358V203.766C226.358 202.802 225.569 202.013 224.604 202.013H223.596L221.097 203.701V211H218.905V195.437H221.097V201.048L222.917 199.821H224.604ZM241.693 203.547V203.986V205.673V205.915H234.241V207.032C234.241 207.997 235.03 208.786 235.994 208.786H237.748C238.712 208.786 239.501 207.997 239.501 207.032V206.813H241.693V207.032C241.693 209.203 239.94 211 237.748 211H235.994C233.824 211 232.049 209.203 232.049 207.032V203.766C232.049 201.574 233.824 199.821 235.994 199.821H237.748C239.874 199.821 241.584 201.465 241.693 203.547ZM239.501 204.161V203.766C239.501 202.78 238.734 202.013 237.748 202.013H235.994C235.008 202.013 234.241 202.802 234.241 203.766V204.161H239.501ZM245.192 207.317H247.384V207.756C247.384 208.37 247.954 208.808 248.897 208.808H251.11C252.141 208.808 252.645 208.457 252.645 207.909C252.645 205.432 245.345 207.032 245.345 202.78C245.345 201.004 246.77 199.821 248.853 199.821H250.957C252.93 199.821 254.464 201.246 254.464 203.087V203.284H252.272V203.087C252.272 202.473 251.724 202.013 250.957 202.013H248.853C247.932 202.013 247.537 202.32 247.537 202.78C247.537 204.556 254.837 203.438 254.837 207.909C254.837 209.751 253.324 211 251.11 211H248.897C246.77 211 245.192 209.619 245.192 207.756V207.317ZM278.932 199.821H281.124V211H278.932V209.772L277.112 211H275.425C273.254 211 271.479 209.224 271.479 207.054V203.766C271.479 201.574 273.254 199.821 275.425 199.821H277.112L278.932 201.048V199.821ZM276.433 208.808L278.932 207.12V203.701L276.433 202.013H275.425C274.46 202.013 273.671 202.802 273.671 203.766V207.054C273.671 208.019 274.46 208.808 275.425 208.808H276.433ZM290.322 199.821C292.492 199.821 294.267 201.574 294.267 203.766V211H292.075V203.766C292.075 202.802 291.286 202.013 290.322 202.013H289.313L286.814 203.701V211H284.622V199.821H286.814V201.048L288.634 199.821H290.322ZM305.219 195.437H307.411V211H305.219V209.772L303.399 211H301.711C299.541 211 297.766 209.224 297.766 207.054V203.766C297.766 201.574 299.541 199.821 301.711 199.821H303.399L305.219 201.048V195.437ZM302.72 208.808L305.219 207.12V203.701L302.72 202.013H301.711C300.747 202.013 299.958 202.802 299.958 203.766V207.054C299.958 208.019 300.747 208.808 301.711 208.808H302.72ZM329.752 199.821C331.922 199.821 333.697 201.596 333.697 203.766V207.054C333.697 209.246 331.922 211 329.752 211H328.064L326.245 209.772V215.603H324.053V199.821H326.245V201.048L328.064 199.821H329.752ZM331.505 207.054V203.766C331.505 202.802 330.716 202.013 329.752 202.013H328.744L326.245 203.701V207.12L328.744 208.808H329.752C330.716 208.808 331.505 208.019 331.505 207.054ZM343.005 195.656V197.848H340.594V195.656H343.005ZM343.005 208.808H346.841V211H340.813H337.196V208.808H340.813V202.013H337.196V199.821H343.005V208.808ZM359.984 199.821L356.455 205.41L359.984 211H357.398L355.162 207.449L352.926 211H350.34L353.869 205.41L350.34 199.821H352.926L355.162 203.372L357.398 199.821H359.984ZM373.128 203.547V203.986V205.673V205.915H365.675V207.032C365.675 207.997 366.464 208.786 367.429 208.786H369.182C370.147 208.786 370.936 207.997 370.936 207.032V206.813H373.128V207.032C373.128 209.203 371.374 211 369.182 211H367.429C365.258 211 363.483 209.203 363.483 207.032V203.766C363.483 201.574 365.258 199.821 367.429 199.821H369.182C371.308 199.821 373.018 201.465 373.128 203.547ZM370.936 204.161V203.766C370.936 202.78 370.169 202.013 369.182 202.013H367.429C366.442 202.013 365.675 202.802 365.675 203.766V204.161H370.936ZM382.435 208.808H386.271V211H380.243H376.626V208.808H380.243V197.629H376.626V195.437H382.435V208.808ZM397.223 199.821H399.415V211H397.223V209.772L395.403 211H393.715C391.545 211 389.77 209.224 389.77 207.054V203.766C389.77 201.574 391.545 199.821 393.715 199.821H395.403L397.223 201.048V199.821ZM394.724 208.808L397.223 207.12V203.701L394.724 202.013H393.715C392.751 202.013 391.962 202.802 391.962 203.766V207.054C391.962 208.019 392.751 208.808 393.715 208.808H394.724ZM412.558 202.013H408.503V207.054C408.503 208.041 409.27 208.808 410.256 208.808H412.558V211H410.256C408.064 211 406.311 209.246 406.311 207.054V202.013H402.913V199.821H406.311V196.971H408.503V199.821H412.558V202.013ZM425.702 203.547V203.986V205.673V205.915H418.249V207.032C418.249 207.997 419.038 208.786 420.002 208.786H421.756C422.72 208.786 423.51 207.997 423.51 207.032V206.813H425.702V207.032C425.702 209.203 423.948 211 421.756 211H420.002C417.832 211 416.057 209.203 416.057 207.032V203.766C416.057 201.574 417.832 199.821 420.002 199.821H421.756C423.882 199.821 425.592 201.465 425.702 203.547ZM423.51 204.161V203.766C423.51 202.78 422.742 202.013 421.756 202.013H420.002C419.016 202.013 418.249 202.802 418.249 203.766V204.161H423.51ZM449.643 199.821H451.988L446.202 215.603H443.856L445.873 210.123L442.344 199.821H444.667L447.056 206.857L449.643 199.821ZM461.186 211H459.433C457.241 211 455.487 209.268 455.487 207.076V203.766C455.487 201.574 457.241 199.821 459.433 199.821H461.186C463.378 199.821 465.132 201.574 465.132 203.766V207.076C465.132 209.268 463.378 211 461.186 211ZM461.186 208.808C462.173 208.808 462.94 208.063 462.94 207.076V203.766C462.94 202.78 462.173 202.013 461.186 202.013H459.433C458.446 202.013 457.679 202.78 457.679 203.766V207.076C457.679 208.063 458.446 208.786 459.433 208.808H461.186ZM476.083 199.821H478.275V211H476.083V209.772L474.264 211H472.576C470.406 211 468.63 209.246 468.63 207.054V199.821H470.822V207.054C470.822 208.019 471.612 208.808 472.576 208.808H473.584L476.083 207.12V199.821ZM487.473 199.821C489.643 199.821 491.419 201.574 491.419 203.766V204.643H489.227V203.766C489.227 202.802 488.438 202.013 487.473 202.013H487.254L483.966 204.227V211H481.774V199.821H483.966V201.574L486.574 199.821H487.473ZM29.316 223.629C28.3296 223.629 27.5624 224.396 27.5624 225.382V226.478H31.3984V228.67H27.5624V237H25.3704V228.67H21.7536V226.478H25.3704V225.382C25.3704 223.19 27.124 221.437 29.316 221.437H31.3984V223.629H29.316ZM42.3498 225.821H44.5418V237H42.3498V235.772L40.5305 237H38.8426C36.6726 237 34.897 235.224 34.897 233.054V229.766C34.897 227.574 36.6726 225.821 38.8426 225.821H40.5305L42.3498 227.048V225.821ZM39.851 234.808L42.3498 233.12V229.701L39.851 228.013H38.8426C37.8782 228.013 37.089 228.802 37.089 229.766V233.054C37.089 234.019 37.8782 234.808 38.8426 234.808H39.851ZM55.4933 225.821H57.6853V230.862L53.9589 237H51.7669L48.0405 230.862V225.821H50.2325V230.249L52.841 234.545H52.8848L55.4933 230.249V225.821ZM66.8831 237H65.1295C62.9375 237 61.1839 235.268 61.1839 233.076V229.766C61.1839 227.574 62.9375 225.821 65.1295 225.821H66.8831C69.0751 225.821 70.8287 227.574 70.8287 229.766V233.076C70.8287 235.268 69.0751 237 66.8831 237ZM66.8831 234.808C67.8695 234.808 68.6367 234.063 68.6367 233.076V229.766C68.6367 228.78 67.8695 228.013 66.8831 228.013H65.1295C64.1431 228.013 63.3759 228.78 63.3759 229.766V233.076C63.3759 234.063 64.1431 234.786 65.1295 234.808H66.8831ZM80.0265 225.821C82.1966 225.821 83.9722 227.574 83.9722 229.766V230.643H81.7801V229.766C81.7801 228.802 80.991 228.013 80.0265 228.013H79.8073L76.5193 230.227V237H74.3273V225.821H76.5193V227.574L79.1278 225.821H80.0265ZM93.2796 221.656V223.848H90.8684V221.656H93.2796ZM93.2796 234.808H97.1156V237H91.0876H87.4708V234.808H91.0876V228.013H87.4708V225.821H93.2796V234.808ZM110.259 228.013H106.204V233.054C106.204 234.041 106.971 234.808 107.957 234.808H110.259V237H107.957C105.765 237 104.012 235.246 104.012 233.054V228.013H100.614V225.821H104.012V222.971H106.204V225.821H110.259V228.013ZM123.402 229.547V229.986V231.673V231.915H115.95V233.032C115.95 233.997 116.739 234.786 117.703 234.786H119.457C120.421 234.786 121.21 233.997 121.21 233.032V232.813H123.402V233.032C123.402 235.203 121.649 237 119.457 237H117.703C115.533 237 113.758 235.203 113.758 233.032V229.766C113.758 227.574 115.533 225.821 117.703 225.821H119.457C121.583 225.821 123.293 227.465 123.402 229.547ZM121.21 230.161V229.766C121.21 228.78 120.443 228.013 119.457 228.013H117.703C116.717 228.013 115.95 228.802 115.95 229.766V230.161H121.21ZM149.689 228.013H145.634V233.054C145.634 234.041 146.401 234.808 147.388 234.808H149.689V237H147.388C145.196 237 143.442 235.246 143.442 233.054V228.013H140.045V225.821H143.442V222.971H145.634V225.821H149.689V228.013ZM160.487 225.821H162.833L157.046 241.603H154.7L156.717 236.123L153.188 225.821H155.511L157.901 232.857L160.487 225.821ZM172.031 225.821C174.201 225.821 175.976 227.596 175.976 229.766V233.054C175.976 235.246 174.201 237 172.031 237H170.343L168.523 235.772V241.603H166.331V225.821H168.523V227.048L170.343 225.821H172.031ZM173.784 233.054V229.766C173.784 228.802 172.995 228.013 172.031 228.013H171.022L168.523 229.701V233.12L171.022 234.808H172.031C172.995 234.808 173.784 234.019 173.784 233.054ZM189.12 229.547V229.986V231.673V231.915H181.667V233.032C181.667 233.997 182.456 234.786 183.42 234.786H185.174C186.139 234.786 186.928 233.997 186.928 233.032V232.813H189.12V233.032C189.12 235.203 187.366 237 185.174 237H183.42C181.25 237 179.475 235.203 179.475 233.032V229.766C179.475 227.574 181.25 225.821 183.42 225.821H185.174C187.3 225.821 189.01 227.465 189.12 229.547ZM186.928 230.161V229.766C186.928 228.78 186.16 228.013 185.174 228.013H183.42C182.434 228.013 181.667 228.802 181.667 229.766V230.161H186.928ZM200.181 223.629C199.194 223.629 198.427 224.396 198.427 225.382V226.478H202.263V228.67H198.427V237H196.235V228.67H192.618V226.478H196.235V225.382C196.235 223.19 197.989 221.437 200.181 221.437H202.263V223.629H200.181ZM213.215 225.821H215.407V237H213.215V235.772L211.395 237H209.707C207.537 237 205.762 235.224 205.762 233.054V229.766C205.762 227.574 207.537 225.821 209.707 225.821H211.395L213.215 227.048V225.821ZM210.716 234.808L213.215 233.12V229.701L210.716 228.013H209.707C208.743 228.013 207.954 228.802 207.954 229.766V233.054C207.954 234.019 208.743 234.808 209.707 234.808H210.716ZM226.358 229.766C226.358 228.78 225.591 228.013 224.604 228.013H222.851C221.864 228.013 221.097 228.802 221.097 229.766V233.032C221.097 233.997 221.886 234.786 222.851 234.786H224.604C225.569 234.786 226.358 233.997 226.358 233.032V232.813H228.55V233.032C228.55 235.203 226.796 237 224.604 237H222.851C220.681 237 218.905 235.203 218.905 233.032V229.766C218.905 227.574 220.681 225.821 222.851 225.821H224.604C226.796 225.821 228.55 227.574 228.55 229.766V229.986H226.358V229.766ZM241.693 229.547V229.986V231.673V231.915H234.241V233.032C234.241 233.997 235.03 234.786 235.994 234.786H237.748C238.712 234.786 239.501 233.997 239.501 233.032V232.813H241.693V233.032C241.693 235.203 239.94 237 237.748 237H235.994C233.824 237 232.049 235.203 232.049 233.032V229.766C232.049 227.574 233.824 225.821 235.994 225.821H237.748C239.874 225.821 241.584 227.465 241.693 229.547ZM239.501 230.161V229.766C239.501 228.78 238.734 228.013 237.748 228.013H235.994C235.008 228.013 234.241 228.802 234.241 229.766V230.161H239.501ZM245.192 233.317H247.384V233.756C247.384 234.37 247.954 234.808 248.897 234.808H251.11C252.141 234.808 252.645 234.457 252.645 233.909C252.645 231.432 245.345 233.032 245.345 228.78C245.345 227.004 246.77 225.821 248.853 225.821H250.957C252.93 225.821 254.464 227.246 254.464 229.087V229.284H252.272V229.087C252.272 228.473 251.724 228.013 250.957 228.013H248.853C247.932 228.013 247.537 228.32 247.537 228.78C247.537 230.556 254.837 229.438 254.837 233.909C254.837 235.751 253.324 237 251.11 237H248.897C246.77 237 245.192 235.619 245.192 233.756V233.317ZM261.952 234.808H264.363V237H261.952V234.808Z" fill="#1E1E1E"/>
<path d="M18.45 72.75V66.8H48.65V72.75H37V104H30.05V72.75H18.45ZM64.5391 104V89.3L51.4891 66.8H59.1391L64.3891 76.2C66.0391 79.2 68.0891 84.15 68.0891 84.15H68.1891C68.1891 84.15 70.2891 79.25 71.9391 76.2L77.2391 66.8H84.5891L71.4891 89.4V104H64.5391ZM88.9082 104V66.8H105.008C109.208 66.8 112.408 68.05 114.458 70.3C116.458 72.45 117.608 75.15 117.608 78.45C117.608 85.45 113.158 90 105.308 90H95.9082V104H88.9082ZM95.9082 72.75V84.45H104.208C108.458 84.45 110.658 82.15 110.658 78.55C110.658 74.8 108.358 72.75 104.308 72.75H95.9082ZM122.307 104V66.8H149.507V72.7H129.207V81.9H147.157V87.45H129.207V97.95H149.957V104H122.307ZM155.705 104V66.8H182.105V72.75H162.605V82.3H178.855V88.05H162.605V104H155.705ZM181.225 104L194.725 66.8H202.125L215.675 104H208.275L205.325 95.15H191.225L188.225 104H181.225ZM195.875 81.45L192.925 90.05H203.625L200.775 81.45C199.325 77.05 198.425 72.5 198.425 72.5H198.325C198.325 72.5 197.075 77.9 195.875 81.45ZM234.312 104.8C223.562 104.8 216.412 96.65 216.412 85.5C216.412 74.45 223.312 66.1 234.362 66.1C238.612 66.1 242.112 67.2 244.662 69.15C247.662 71.5 249.462 74.85 249.912 78.75H243.012C242.362 74.75 239.212 71.95 234.312 71.95C227.212 71.95 223.462 77.75 223.462 85.5C223.462 93.4 227.712 98.95 234.362 98.95C239.912 98.95 242.962 95.25 243.362 90.75H250.312C250.162 94.45 248.412 98.2 245.812 100.7C243.112 103.4 239.312 104.8 234.312 104.8ZM255.51 104V66.8H282.71V72.7H262.41V81.9H280.36V87.45H262.41V97.95H283.16V104H255.51ZM301.555 104V66.8H317.655C321.855 66.8 325.055 68.05 327.105 70.3C329.105 72.45 330.255 75.15 330.255 78.45C330.255 85.45 325.805 90 317.955 90H308.555V104H301.555ZM308.555 72.75V84.45H316.855C321.105 84.45 323.305 82.15 323.305 78.55C323.305 74.8 321.005 72.75 316.955 72.75H308.555ZM334.953 104V66.8H341.903V104H334.953ZM346.417 104L359.067 84.7L347.417 66.8H355.367L359.567 73.65C361.117 76.3 363.117 80.5 363.117 80.5H363.217C363.217 80.5 365.267 76.3 366.917 73.65L371.117 66.8H378.717L367.067 84.7L379.517 104H371.317L366.567 96C364.967 93.3 363.017 89.05 363.017 89.05H362.917C362.917 89.05 360.817 93.3 359.167 96L354.267 104H346.417ZM384.025 104V66.8H411.225V72.7H390.925V81.9H408.875V87.45H390.925V97.95H411.675V104H384.025ZM417.424 104V66.8H424.324V97.95H442.424V104H417.424ZM444.848 104L458.348 66.8H465.748L479.298 104H471.898L468.948 95.15H454.848L451.848 104H444.848ZM459.498 81.45L456.548 90.05H467.248L464.398 81.45C462.948 77.05 462.048 72.5 462.048 72.5H461.948C461.948 72.5 460.698 77.9 459.498 81.45ZM476.995 72.75V66.8H507.195V72.75H495.545V104H488.595V72.75H476.995ZM527.144 104.85C515.894 104.85 508.844 96.6 508.844 85.5C508.844 74.35 515.894 66.1 527.144 66.1C538.394 66.1 545.444 74.35 545.444 85.5C545.444 96.6 538.394 104.85 527.144 104.85ZM527.194 99C534.544 99 538.344 93.2 538.344 85.5C538.344 77.75 534.544 71.8 527.194 71.8C519.794 71.8 515.894 77.75 515.894 85.5C515.894 93.2 519.794 99 527.194 99ZM550.92 104V66.8H568.47C575.42 66.8 580.42 70.75 580.42 77.25C580.42 81.7 578.42 84.9 573.57 86.45V86.6C577.52 87.8 578.97 90.05 579.37 94.65C579.97 100.1 580.02 103.15 581.02 103.65V104H574.02C573.07 103.4 573.07 100.5 572.67 95.5C572.27 91.1 570.22 89.2 565.77 89.2H557.82V104H550.92ZM557.82 72.45V83.9H566.82C571.17 83.9 573.47 81.7 573.47 78.25C573.47 74.55 571.52 72.45 567.07 72.45H557.82Z" fill="#1E1E1E"/>
</svg>
